<svg xmlns="http://www.w3.org/2000/svg" width="60" height="60" fill="none"><path fill="#fff" d="M8.329 19.436c-1.034 0-1.911.36-2.632 1.081-.721.721-1.082 1.586-1.082 2.596v15.505c0 1.035.36 1.911 1.082 2.632.72.721 1.598 1.082 2.632 1.082 1.033 0 1.905-.36 2.614-1.082.709-.72 1.064-1.597 1.064-2.632V23.113c0-1.01-.36-1.875-1.082-2.596-.72-.72-1.586-1.081-2.596-1.081ZM38.185 5.516l2.56-4.722c.168-.313.108-.553-.18-.721-.313-.146-.553-.072-.721.215l-2.596 4.76A17.727 17.727 0 0 0 30 3.534c-2.548 0-4.964.506-7.248 1.516L20.156.289c-.168-.288-.409-.361-.72-.216-.29.169-.35.408-.18.72l2.56 4.723c-2.596 1.324-4.664 3.168-6.202 5.536-1.539 2.369-2.308 4.957-2.308 7.77h33.352c0-2.812-.77-5.4-2.308-7.77-1.538-2.368-3.594-4.212-6.165-5.536Zm-14.802 6.87a1.352 1.352 0 0 1-.992.415 1.29 1.29 0 0 1-.973-.415 1.382 1.382 0 0 1-.397-.992c0-.384.133-.714.397-.99.264-.277.589-.415.973-.415.385 0 .715.138.992.414.276.278.415.607.415.991 0 .386-.14.716-.415.992Zm15.198 0c-.265.277-.59.415-.973.415a1.35 1.35 0 0 1-.992-.415 1.35 1.35 0 0 1-.415-.992c0-.384.138-.714.414-.99.277-.277.607-.415.993-.415.384 0 .708.138.973.414.264.278.396.607.396.991 0 .386-.132.716-.396.992ZM13.45 44.134c0 1.106.384 2.043 1.152 2.812.77.769 1.707 1.153 2.813 1.153h2.668l.037 8.186c0 1.034.36 1.912 1.081 2.633.721.721 1.587 1.082 2.596 1.082 1.034 0 1.911-.36 2.633-1.082.72-.721 1.081-1.599 1.081-2.633V48.1h4.976v8.185c0 1.034.36 1.912 1.081 2.633C34.29 59.639 35.167 60 36.2 60c1.033 0 1.911-.36 2.632-1.082.721-.721 1.082-1.599 1.082-2.633V48.1h2.704c1.082 0 2.007-.384 2.777-1.153.769-.769 1.153-1.706 1.153-2.813V20.12H13.45v24.015ZM51.67 19.436c-1.01 0-1.874.355-2.595 1.063-.721.71-1.082 1.582-1.082 2.614v15.505c0 1.035.36 1.911 1.082 2.632.72.722 1.587 1.082 2.596 1.082 1.033 0 1.91-.36 2.632-1.082.72-.72 1.081-1.597 1.081-2.632V23.113c0-1.032-.36-1.904-1.081-2.614-.721-.708-1.599-1.063-2.632-1.063Z"/></svg>