<svg xmlns="http://www.w3.org/2000/svg" width="50" height="60" fill="none"><path fill="#fff" d="M41.44 33.632c-1.65-8.306 6.234-13.178 6.234-13.178s-3.071-4.444-8.234-5.587c-5.16-1.146-7.742.286-10.32 1.36-2.58 1.076-3.867 1.076-3.867 1.076-3.723 0-6.445-3.943-13.538-2.148C6.828 16.39 1.683 22.03.754 28.763c-.93 6.736 1.076 15.33 4.943 21.992 3.868 6.666 7.807 9.171 10.603 9.243 2.797.07 5.588-2.003 8.953-2.508 3.368-.5 5.44 1.22 8.744 2.15 3.29.927 4.444.067 8.234-3.157 3.8-3.223 7.24-12.47 7.24-12.47s-6.38-2.07-8.03-10.381ZM34.133 9.493C37.79 5.768 36.551 0 36.551 0s-5.134.901-8.574 4.48C24.54 8.062 25.11 13.72 25.11 13.72s5.368-.502 9.024-4.226Z"/></svg>