<svg width="1920" height="613" viewBox="0 0 1920 613" fill="none" xmlns="http://www.w3.org/2000/svg">
<g opacity="0.3">
<path d="M648.673 612.559C639.202 612.559 629.983 612.059 621.124 611.061C602.543 608.966 585.378 604.666 570.102 598.279C553.684 591.416 539.284 582.064 527.299 570.484C503.212 547.21 491.161 519.337 479.506 492.38C477.216 487.087 474.849 481.614 472.445 476.304C456.045 440.109 435.255 408.404 408.892 379.378C356.303 321.476 282.344 272.06 195.009 236.474C94.0064 195.322 -14.5879 174.822 -110.772 178.752C-167.304 181.064 -241.999 203.042 -275.382 240.577C-295.193 262.854 -296.791 287.575 -279.999 312.065L-280.332 312.168C-289.137 299.325 -292.973 286.449 -291.731 273.899C-290.591 262.386 -285.198 251.132 -275.697 240.449C-260.587 223.458 -235.668 208.399 -203.633 196.899C-174.032 186.273 -141.063 179.74 -110.794 178.503C-60.4578 176.448 -6.92279 181.009 48.3233 192.064C98.4032 202.086 147.82 216.955 195.199 236.26C282.586 271.866 356.589 321.308 409.208 379.245C435.585 408.291 456.386 440.013 472.797 476.227C475.204 481.538 477.571 487.013 479.857 492.306C491.502 519.243 503.545 547.096 527.6 570.337C550.862 592.815 582.351 606.433 621.186 610.809C674.966 616.871 740.274 604.193 795.879 576.891C876.011 537.55 931.624 480.286 985.408 424.91C994.836 415.203 1004.58 405.166 1014.23 395.474C1039.29 370.307 1073.22 337.695 1113.55 308.642C1154.77 278.945 1196.65 257.127 1241.6 241.938C1269.12 232.64 1298.28 226.376 1328.27 223.32C1355.97 220.496 1385.3 220.321 1415.43 222.795C1467.11 227.041 1522.78 239.035 1585.64 259.458C1709.42 299.677 1833.05 348.494 1953.12 404.555C2067.25 457.839 2179.18 518.134 2285.8 583.759L2285.55 583.942C2064.53 447.903 1828.99 338.807 1585.48 259.68C1447.91 214.976 1338.69 209.407 1241.77 242.157C1143.17 275.473 1074.29 335.598 1014.54 395.61C1004.89 405.299 995.143 415.336 985.716 425.043C931.917 480.439 876.286 537.72 796.099 577.089C770.187 589.811 741.036 599.735 711.801 605.785C696.357 608.981 681.005 611.07 666.166 611.997C660.252 612.374 654.415 612.559 648.673 612.559Z" fill="#FF0000"/>
<path d="M657.934 598.757C633.781 598.757 611.408 595.664 591.414 589.56C569.118 582.754 549.878 572.207 534.226 558.215C532.841 556.976 531.466 555.694 530.14 554.403C506.309 531.229 493.723 503.719 481.555 477.112C479.093 471.735 476.55 466.174 473.971 460.777C458.607 428.643 440.108 400.322 417.409 374.198C414.613 370.983 411.719 367.759 408.799 364.62C355.436 307.216 280.877 258.426 193.182 223.525C91.4503 183.075 -17.4517 163.423 -113.464 168.191C-169.586 171.007 -243.936 193.346 -277.462 230.593C-297.537 252.896 -299.809 277.667 -284.039 302.228L-284.376 302.327C-292.642 289.453 -296.038 276.553 -294.466 263.988C-293.023 252.448 -287.41 241.169 -277.777 230.465C-262.513 213.503 -237.667 198.427 -205.933 186.867C-176.602 176.182 -143.776 169.462 -113.497 167.944C-63.2227 165.448 -9.62903 169.573 45.793 180.204C95.9937 189.834 145.645 204.339 193.365 223.313C281.111 258.234 355.711 307.053 409.107 364.489C412.027 367.631 414.925 370.857 417.721 374.075C440.434 400.216 458.945 428.552 474.315 460.703C476.898 466.1 479.441 471.661 481.903 477.041C494.068 503.63 506.643 531.121 530.441 554.263C531.763 555.549 533.137 556.83 534.519 558.067C566.865 586.99 611.309 598.757 658.047 598.757C658.304 598.757 658.557 598.757 658.813 598.757C658.52 598.754 658.227 598.757 657.934 598.757ZM667.904 598.584C711.355 597.084 756.192 585.854 794.657 569.149C877.629 532.967 937.261 477.083 994.932 423.04C997.307 420.812 999.681 418.589 1002.06 416.366C1007.27 411.487 1013.45 405.711 1019.76 399.888C1048.06 373.775 1082.32 343.391 1121.77 316.043C1163.74 286.942 1205.68 265.348 1249.97 250.023C1277.18 240.617 1305.94 233.991 1335.44 230.329C1362.78 226.936 1391.67 225.977 1421.3 227.478C1472.49 230.073 1527.53 239.91 1589.57 257.554C1650.06 274.73 1699.78 290.897 1746.05 308.435C1811.59 333.304 1874.02 361.959 1926.45 386.707C2048.34 444.409 2167.93 509.931 2281.91 581.453L2281.66 581.633C2167.69 510.121 2048.11 444.604 1926.24 386.909C1873.82 362.163 1811.4 333.514 1745.87 308.652C1699.62 291.119 1649.91 274.956 1589.43 257.785C1454.29 219.348 1346.47 216.951 1250.14 250.245C1150.15 284.838 1078.95 345.702 1020.06 400.036C1013.74 405.859 1007.57 411.633 1002.35 416.514C999.978 418.735 997.604 420.96 995.229 423.187C937.539 477.248 877.885 533.151 794.855 569.361C774.267 578.301 752.359 585.403 729.738 590.467C708.681 595.176 687.924 597.899 667.904 598.584Z" fill="#FF0000"/>
<path d="M668.145 585.267C665.24 585.267 662.352 585.225 659.487 585.139C635.356 584.422 613.024 580.699 593.113 574.067C571.338 566.815 552.472 556.074 537.043 542.138C535.672 540.896 534.306 539.612 532.987 538.321C509.423 515.261 496.314 488.117 483.64 461.871C480.998 456.4 478.265 450.742 475.495 445.252C459.373 413.227 440.386 385.132 417.442 359.361C414.602 356.175 411.664 352.979 408.699 349.864C354.563 292.96 279.403 244.796 191.35 210.58C88.8926 170.832 -20.3173 152.025 -116.161 157.631C-170.124 160.837 -244.259 181.902 -279.507 220.57C-299.871 242.911 -302.835 267.748 -288.08 292.395L-288.421 292.487C-296.152 279.574 -299.102 266.644 -297.196 254.057C-295.445 242.48 -289.597 231.172 -279.818 220.442C-264.392 203.52 -239.627 188.439 -208.197 176.825C-179.142 166.089 -146.466 159.186 -116.194 157.387C-65.9783 154.453 -12.326 158.139 43.2682 168.346C93.5935 177.587 143.476 191.724 191.533 210.368C279.638 244.607 354.838 292.797 409.007 349.733C411.971 352.851 414.914 356.047 417.753 359.238C440.708 385.024 459.706 413.136 475.835 445.178C478.605 450.671 481.339 456.329 483.98 461.799C496.651 488.031 509.75 515.155 533.284 538.188C534.603 539.479 535.962 540.761 537.332 541.998C600.027 598.621 711.135 592.542 793.433 561.401C879.867 528.408 944.101 473.571 1006.22 420.541L1006.86 419.996C1012.87 414.856 1019.1 409.543 1025.29 404.296C1090.63 348.95 1162.45 292.07 1258.33 258.101C1285.25 248.584 1313.62 241.595 1342.63 237.33C1369.61 233.362 1398.07 231.62 1427.19 232.152C1477.97 233.079 1532.37 240.762 1593.51 255.641C1657.76 271.223 1706.12 285.545 1750.29 302.082C1813.23 325.692 1874.19 355.527 1927.98 381.85C2047.74 440.772 2165.51 507.149 2278.03 579.131L2277.77 579.309C2165.27 507.333 2047.51 440.964 1927.76 382.047C1873.98 355.729 1813.03 325.899 1750.11 302.297C1705.95 285.764 1657.62 271.447 1593.39 255.871C1460.86 223.619 1354.45 224.395 1258.5 258.315C1162.68 292.262 1090.89 349.117 1025.57 404.444C1019.38 409.691 1013.16 415.006 1007.14 420.144L1006.51 420.689C975.549 447.115 943.541 474.441 908.974 498.849C870.128 526.279 832.392 546.808 793.609 561.611C753.033 576.963 708.834 585.267 668.145 585.267Z" fill="#FF0000"/>
<path d="M2273.89 576.986C2162.85 504.547 2046.91 437.325 1929.29 377.188C1924.31 374.66 1919.32 372.119 1914.31 369.571C1863.37 343.642 1810.69 316.832 1754.36 295.945C1699.71 275.738 1644.32 263.382 1597.35 253.961C1467.69 227.796 1362.69 231.746 1266.88 266.389C1168.54 302.056 1092.33 361.274 1031.1 408.858C1027.43 411.715 1023.76 414.576 1020.09 417.439C1017.37 419.553 1014.66 421.668 1011.94 423.779C977.081 450.901 945.368 475.149 910.329 497.275C870.3 522.551 831.718 541.062 792.37 553.869C755.495 565.872 716.103 572.223 679.463 572.225C672.787 572.225 666.21 572.016 659.747 571.589C636.151 570.034 614.306 565.665 594.82 558.603C573.558 550.897 555.066 539.951 539.849 526.067C538.49 524.823 537.134 523.537 535.822 522.243C512.537 499.303 498.918 472.542 485.75 446.662C482.914 441.088 479.979 435.322 477.011 429.726C460.12 397.801 440.642 369.931 417.471 344.52C414.587 341.358 411.601 338.192 408.596 335.104C353.684 278.7 277.926 231.162 189.517 197.629C86.3347 158.583 -23.1792 140.626 -118.854 147.063C-184.261 151.55 -251.144 177.637 -281.504 210.497C-302.187 232.885 -305.855 257.801 -292.118 282.552L-292.463 282.638C-299.655 269.678 -302.162 256.709 -299.912 244.09C-297.842 232.471 -291.752 221.125 -281.815 210.367C-266.229 193.494 -241.544 178.413 -210.429 166.757C-181.652 155.976 -149.145 148.894 -118.891 146.819C-68.734 143.443 -15.0268 146.693 40.7396 156.476C91.1859 165.328 141.306 179.1 189.7 197.412C278.165 230.965 353.962 278.53 408.908 334.968C411.916 338.058 414.902 341.227 417.786 344.389C440.972 369.815 460.457 397.7 477.359 429.639C480.327 435.238 483.262 441.002 486.098 446.579C499.259 472.443 512.871 499.188 536.126 522.1C537.438 523.391 538.79 524.675 540.146 525.917C605.596 585.635 716.84 578.176 792.212 553.645C882.138 524.375 950.953 470.846 1011.67 423.617C1014.38 421.502 1017.1 419.388 1019.81 417.276C1023.48 414.413 1027.15 411.552 1030.83 408.696C1065.78 381.535 1100.29 355.141 1138.24 330.819C1181.87 302.847 1223.9 281.701 1266.71 266.172C1293.35 256.539 1321.31 249.188 1349.82 244.326C1376.47 239.78 1404.48 237.256 1433.09 236.823C1483.54 236.059 1537.31 241.589 1597.46 253.725C1644.45 263.151 1699.86 275.511 1754.54 295.73C1810.89 316.625 1863.58 343.443 1914.54 369.376C1919.54 371.924 1924.54 374.465 1929.52 376.993C2047.14 437.136 2163.1 504.365 2274.15 576.811L2273.89 576.986Z" fill="#FF0000"/>
<path d="M2270.01 574.667C2158.33 500.38 2044.22 432.303 1930.82 372.331C1924.04 368.743 1917.1 365.044 1910.38 361.468C1862.31 335.86 1812.6 309.379 1758.61 289.594C1704.69 269.907 1648.84 259.567 1601.31 252.051C1474.81 231.852 1371.2 238.974 1275.26 274.463C1183.75 308.438 1112.05 359.526 1042.72 408.932L1035.1 414.356C1029.09 418.641 1022.87 423.069 1016.74 427.414C947.34 476.536 877.863 522.575 791.132 546.123C770.086 551.838 748.475 555.798 726.894 557.9C703.719 560.155 681.208 560.187 659.982 557.994C636.928 555.611 615.578 550.606 596.525 543.117C575.79 534.968 557.668 523.822 542.667 509.993C541.315 508.741 539.971 507.452 538.67 506.161C515.671 483.357 501.561 456.989 487.916 431.489C484.871 425.8 481.72 419.915 478.54 414.2C460.864 382.375 440.903 354.729 417.512 329.682C414.588 326.552 411.558 323.411 408.505 320.348C352.82 264.444 276.465 217.532 187.693 184.681C83.7814 146.343 -26.0404 129.231 -121.55 136.503C-186.36 141.543 -252.939 167.811 -283.453 200.386C-304.48 222.83 -308.874 247.842 -296.159 272.719L-296.508 272.8C-303.161 259.784 -305.217 246.765 -302.619 234.109C-300.223 222.441 -293.88 211.051 -283.768 200.258C-268.012 183.442 -243.416 168.376 -212.631 156.685C-184.139 145.865 -151.808 138.613 -121.594 136.262C-71.4962 132.447 -17.734 135.259 38.2083 144.618C88.7791 153.08 139.13 166.486 187.865 184.467C276.689 217.335 353.087 264.276 408.806 320.212C411.858 323.277 414.892 326.422 417.816 329.551C441.221 354.61 461.194 382.271 478.877 414.114C482.057 419.829 485.208 425.716 488.253 431.406C501.89 456.891 515.993 483.246 538.967 506.023C540.264 507.309 541.608 508.595 542.957 509.847C606.832 568.735 712.964 567.082 790.989 545.897C877.651 522.368 947.098 476.346 1016.47 427.246C1022.6 422.902 1028.82 418.473 1034.83 414.188L1042.45 408.764C1076.48 384.514 1111.67 359.435 1149.89 336.106C1193.18 309.685 1234.13 289.451 1275.08 274.247C1301.44 264.493 1329.01 256.78 1357 251.324C1383.32 246.194 1410.9 242.887 1438.97 241.494C1489.21 239.003 1542.33 242.379 1601.39 251.81C1648.94 259.331 1704.82 269.673 1758.77 289.377C1812.8 309.17 1862.52 335.658 1910.61 361.274C1917.32 364.849 1924.26 368.546 1931.05 372.136C2044.45 432.113 2158.58 500.195 2270.26 574.489L2270.01 574.667Z" fill="#FF0000"/>
<path d="M2266.12 572.345C2155.41 497.233 2043.11 428.303 1932.35 367.473C1924.03 362.902 1915.49 358.149 1907.24 353.553C1861.76 328.22 1814.73 302.026 1762.85 283.246C1709.19 263.896 1653.08 255.654 1605.27 250.144C1482.28 235.75 1380.07 246.046 1283.63 282.541C1199.47 314.524 1130.37 359.851 1063.54 403.685C1056.51 408.298 1049.24 413.067 1042.15 417.687C1033.83 423.113 1027.47 427.236 1021.54 431.051C989.769 451.469 951.942 474.981 912.246 494.537C870.179 515.258 830.157 529.6 789.89 538.383C768.715 543.001 747.196 545.914 725.927 547.037C703.089 548.245 680.976 547.358 660.209 544.398C637.708 541.192 616.856 535.551 598.225 527.634C578.021 519.048 560.276 507.703 545.481 493.918C544.147 492.669 542.81 491.378 541.513 490.081C518.818 467.43 504.235 441.469 490.129 416.364C486.857 410.541 483.475 404.521 480.063 398.673C461.593 366.936 441.144 339.517 417.544 314.842C414.576 311.74 411.502 308.627 408.406 305.589C351.947 250.185 274.992 203.9 185.861 171.732C81.2272 134.098 -28.9023 117.836 -124.244 125.939C-178.493 130.65 -249.348 152.355 -285.351 190.221C-306.756 212.734 -311.893 237.859 -300.201 262.879L-300.549 262.953C-306.665 249.87 -308.262 236.795 -305.302 224.089C-302.568 212.362 -295.962 200.923 -285.659 190.088C-269.735 173.341 -245.23 158.299 -214.786 146.584C-186.58 135.732 -154.443 128.314 -124.288 125.695C-74.2482 121.441 -20.4274 123.814 35.6834 132.75C86.3752 140.823 136.961 153.863 186.033 171.515C275.215 203.7 352.215 250.013 408.707 305.448C411.803 308.487 414.88 311.604 417.848 314.709C441.459 339.396 461.919 366.83 480.401 398.582C483.815 404.432 487.197 410.452 490.469 416.275C504.565 441.368 519.144 467.314 541.813 489.941C543.11 491.235 544.444 492.523 545.778 493.77C598.917 543.287 690.133 559.876 789.776 538.144C880.014 518.464 953.624 474.357 1021.29 430.868C1027.22 427.054 1033.57 422.931 1041.89 417.505C1048.98 412.884 1056.25 408.116 1063.28 403.503C1096.18 381.924 1130.2 359.61 1166.49 338.716C1207.51 315.086 1245.78 296.639 1283.46 282.322C1309.57 272.44 1336.73 264.365 1364.19 258.322C1390.2 252.598 1417.35 248.51 1444.87 246.166C1494.98 241.903 1547.47 243.123 1605.34 249.895C1653.17 255.41 1709.31 263.655 1763.02 283.021C1814.93 301.814 1861.98 328.016 1907.47 353.356C1915.72 357.951 1924.26 362.705 1932.58 367.276C2043.35 428.113 2155.66 497.048 2266.38 572.165L2266.12 572.345Z" fill="#FF0000"/>
<path d="M2262.24 570.021C2152.48 494.078 2042.01 424.294 1933.87 362.611C1924.67 357.365 1915.23 351.857 1906.09 346.532C1862.56 321.165 1817.56 294.936 1767.09 276.89C1713.39 257.773 1657.16 251.674 1609.23 248.229C1491.81 239.562 1388.04 253.426 1292 290.611C1215.53 320.355 1149.98 360.145 1086.58 398.626C1073.78 406.398 1060.54 414.437 1047.67 422.098C1039.79 426.787 1032.82 430.905 1026.33 434.685C996.173 452.245 956.055 474.761 913.186 493.162C870.112 511.648 829.372 523.908 788.639 530.638C744.213 537.979 699.874 538.033 660.42 530.798C638.484 526.774 618.126 520.5 599.912 512.149C580.248 503.132 562.88 491.589 548.286 477.846C546.964 476.595 545.637 475.301 544.348 474.005C521.975 451.526 506.938 425.991 492.399 401.3C488.882 395.326 485.247 389.151 481.579 383.151C462.299 351.498 441.363 324.3 417.572 300.007C414.561 296.932 411.442 293.847 408.302 290.835C351.07 235.932 273.518 190.27 184.028 158.789C78.6723 121.863 -31.765 106.449 -126.942 115.382C-191.443 121.567 -255.846 147.54 -287.195 180.009C-309.011 202.603 -314.906 227.859 -304.244 253.046L-304.595 253.113C-310.168 239.951 -311.304 226.807 -307.974 214.047C-304.896 202.254 -298.007 190.755 -287.503 179.873C-271.41 163.205 -247.001 148.198 -216.912 136.473C-189.003 125.598 -157.067 118.018 -126.993 115.135C-77.012 110.443 -23.1325 112.38 33.1505 120.889C83.9668 128.573 134.787 141.249 184.196 158.568C273.737 190.068 351.334 235.755 408.603 290.693C411.743 293.704 414.861 296.791 417.876 299.869C441.678 324.177 462.625 351.387 481.916 383.055C485.584 389.055 489.219 395.233 492.736 401.206C507.268 425.885 522.297 451.408 544.648 473.864C545.938 475.16 547.26 476.449 548.583 477.701C600.81 526.897 690.516 546.596 788.551 530.399C877.924 515.631 955.535 475.579 1026.09 434.5C1032.57 430.72 1039.55 426.605 1047.42 421.916C1060.29 414.254 1073.53 406.218 1086.33 398.446C1149.74 359.957 1215.31 320.157 1291.82 290.402C1317.7 280.38 1344.46 271.945 1371.37 265.326C1397.1 258.997 1423.81 254.126 1450.75 250.846C1500.84 244.747 1552.7 243.813 1609.27 247.987C1657.22 251.435 1713.5 257.536 1767.26 276.676C1817.76 294.734 1862.78 320.973 1906.33 346.35C1915.47 351.675 1924.91 357.18 1934.11 362.426C2042.25 424.114 2152.74 493.903 2262.5 569.851L2262.24 570.021Z" fill="#FF0000"/>
<path d="M2258.35 567.7C2149.58 490.919 2040.92 420.284 1935.4 357.754C1925.71 352.008 1915.73 345.924 1906.09 340.039C1864.15 314.458 1820.78 288.004 1771.33 270.54C1717.41 251.585 1661.13 247.66 1613.19 246.319C1500.21 242.928 1397.88 260.057 1300.38 298.687C1231.99 325.907 1171.04 360.357 1112.08 393.671C1091.81 405.127 1072.66 415.947 1053.19 426.511C1045.27 430.812 1038.05 434.675 1031.13 438.32C986.446 461.817 949.271 478.805 914.133 491.782C870.051 508.063 828.596 518.24 787.398 522.893C771.415 524.697 755.491 525.596 739.857 525.596C712.142 525.596 685.325 522.777 660.637 517.193C615.958 507.087 579.105 488.44 551.101 461.77C549.782 460.506 548.467 459.212 547.192 457.921C525.16 435.637 509.701 410.556 494.752 386.298C490.964 380.152 487.05 373.799 483.104 367.621C463 336.042 441.572 309.071 417.61 285.165C414.554 282.117 411.392 279.059 408.208 276.075C350.203 221.672 272.049 176.636 182.2 145.838C76.1227 109.621 -34.6187 95.0521 -129.63 104.815C-194.399 111.609 -256.944 137.089 -288.964 169.731C-311.223 192.419 -317.899 217.825 -308.277 243.204L-308.633 243.266C-313.656 230.013 -314.323 216.79 -310.611 203.964C-307.174 192.091 -299.997 180.529 -289.268 169.595C-273.007 153.018 -248.704 138.06 -218.981 126.336C-191.373 115.444 -159.661 107.716 -129.685 104.571C-79.7631 99.4409 -25.825 100.939 30.6266 109.024C81.5675 116.321 132.618 128.632 182.368 145.616C272.269 176.433 350.466 221.494 408.508 275.929C411.692 278.916 414.854 281.974 417.914 285.025C441.891 308.943 463.329 335.929 483.441 367.52C487.387 373.698 491.304 380.053 495.089 386.199C510.031 410.445 525.482 435.516 547.496 457.78C548.771 459.069 550.082 460.363 551.401 461.624C603.694 511.431 689.689 533.674 787.335 522.646C880.288 512.149 962.619 474.029 1030.9 438.123C1037.82 434.478 1045.04 430.617 1052.96 426.317C1072.43 415.753 1091.58 404.935 1111.85 393.478C1170.81 360.157 1231.78 325.702 1300.19 298.472C1325.88 288.295 1352.24 279.498 1378.56 272.322C1404.05 265.373 1430.32 259.717 1456.64 255.516C1506.84 247.505 1558.06 244.414 1613.21 246.07C1661.19 247.411 1717.51 251.341 1771.5 270.318C1820.99 287.795 1864.37 314.261 1906.33 339.852C1915.98 345.736 1925.95 351.821 1935.64 357.565C2041.16 420.1 2149.83 490.742 2258.61 567.527L2258.35 567.7Z" fill="#FF0000"/>
<path d="M2254.47 565.382C2145.15 486.664 2041.28 417.161 1936.93 352.898C1926.97 346.767 1917.17 340.506 1906.79 333.877C1866.22 307.963 1824.26 281.169 1775.58 264.193C1720.98 245.246 1662.23 243.668 1617.15 244.413C1509.31 245.96 1408.43 266.357 1308.75 306.768C1248.94 331.132 1193.72 360.389 1140.32 388.686C1112.25 403.558 1085.74 417.602 1058.71 430.931C1050.68 434.891 1043.23 438.498 1035.92 441.961C990.63 463.39 952.231 478.781 915.071 490.403C869.967 504.508 827.797 512.603 786.152 515.151C764.754 516.459 743.503 516.213 722.988 514.419C701.268 512.519 680.361 508.874 660.85 503.589C617.603 491.871 581.626 472.396 553.915 445.701C552.607 444.435 551.303 443.138 550.035 441.847C528.373 419.792 512.526 395.189 497.2 371.397C493.111 365.049 488.883 358.485 484.629 352.102C463.681 320.592 441.771 293.845 417.643 270.334C414.539 267.313 411.333 264.282 408.113 261.325C349.335 207.422 270.584 163.011 180.375 132.896C97.1143 105.215 11.2515 90.7724 -67.4847 90.7724C-89.7436 90.7724 -111.416 91.9256 -132.32 94.2593C-196.308 101.544 -258.461 127.115 -290.668 159.406C-313.399 182.201 -320.885 207.779 -312.315 233.375L-312.674 233.43C-317.148 220.073 -317.334 206.759 -313.231 193.859C-309.427 181.9 -301.938 170.261 -290.975 159.268C-274.546 142.795 -250.356 127.899 -221.015 116.186C-193.318 105.129 -162.669 97.4628 -132.385 94.0178C-82.5218 88.4486 -28.5251 89.5107 28.0987 97.1695C79.1605 104.074 130.449 116.018 180.537 132.672C270.796 162.804 349.595 207.24 408.41 261.174C411.634 264.131 414.844 267.165 417.947 270.189C442.086 293.712 464.008 320.471 484.966 351.996C489.22 358.379 493.452 364.943 497.541 371.294C512.86 395.076 528.699 419.669 550.343 441.707C551.611 442.996 552.915 444.292 554.219 445.556C606.04 495.474 690.561 520.747 786.123 514.902C882.82 508.985 970.302 472.702 1035.72 441.754C1043.02 438.291 1050.47 434.684 1058.5 430.726C1085.53 417.402 1112.03 403.356 1140.1 388.487C1193.51 360.187 1248.73 330.922 1308.56 306.551C1359.89 285.745 1410.25 270.583 1462.53 260.194C1512.96 250.174 1563.54 244.93 1617.15 244.161C1647.74 243.656 1672.7 244.533 1695.69 246.919C1725.38 249.999 1751.57 255.576 1775.75 263.969C1824.48 280.96 1866.46 307.768 1907.05 333.694C1917.43 340.323 1927.23 346.582 1937.18 352.713C2041.54 416.978 2145.42 486.487 2254.74 565.209L2254.47 565.382Z" fill="#FF0000"/>
<path d="M2250.58 563.059C2142.27 483.479 2040.17 413.147 1938.45 348.037C1928.39 341.595 1918.47 334.959 1907.97 327.934C1868.61 301.611 1827.91 274.388 1779.82 257.838C1724.77 238.98 1666.09 239.734 1621.11 242.496C1519.35 248.531 1419.91 272.195 1317.12 314.836C1266.48 335.947 1218.26 360.107 1171.63 383.473C1134.76 401.942 1099.95 419.389 1064.23 435.335C1056.16 438.943 1048.24 442.393 1040.71 445.586C995.335 464.817 954.544 479.019 916.009 489.004C869.868 500.96 826.984 506.978 784.907 507.397C763.498 507.609 742.331 506.308 722.006 503.525C700.7 500.608 680.196 496.046 661.063 489.965C619.3 476.69 584.195 456.387 556.726 429.618C555.436 428.354 554.139 427.055 552.875 425.757C531.62 403.97 515.429 379.887 499.769 356.598C495.339 350.008 490.755 343.192 486.15 336.566C464.345 305.115 441.947 278.595 417.676 255.485C414.529 252.491 411.279 249.487 408.014 246.557C348.463 193.155 269.111 149.37 178.544 119.937C71.0268 85.1422 -40.3338 72.2691 -135.016 83.6883C-198.176 91.4384 -259.915 117.076 -292.301 149C-315.546 171.915 -323.863 197.686 -316.359 223.531L-316.718 223.578C-320.632 210.106 -320.331 196.688 -315.821 183.699C-311.633 171.642 -303.825 159.92 -292.605 148.86C-276.015 132.505 -251.946 117.683 -223 105.995C-195.622 94.9401 -165.222 87.1432 -135.082 83.4444C-85.2731 77.439 -31.2214 78.06 25.571 85.295C76.7574 91.8154 128.277 103.395 178.701 119.713C269.324 149.161 348.719 192.972 408.304 246.407C411.572 249.337 414.826 252.343 417.973 255.34C442.258 278.462 464.664 304.994 486.479 336.457C491.089 343.084 495.669 349.9 500.102 356.492C515.755 379.771 531.939 403.845 553.179 425.616C554.443 426.912 555.74 428.211 557.026 429.473C609.393 480.502 690.32 508.092 784.899 507.145C861.642 506.381 942.866 486.751 1040.52 445.372C1048.04 442.178 1055.95 438.731 1064.02 435.123C1099.73 419.179 1134.55 401.738 1171.4 383.268C1218.04 359.9 1266.27 335.736 1316.93 314.619C1368.75 293.119 1418.3 276.845 1468.42 264.862C1519.18 252.723 1569.12 245.323 1621.08 242.242C1666.1 239.475 1724.85 238.723 1779.99 257.612C1828.13 274.181 1868.85 301.416 1908.23 327.751C1918.73 334.777 1928.65 341.411 1938.71 347.85C2040.43 412.962 2142.53 483.299 2250.85 562.884L2250.58 563.059Z" fill="#FF0000"/>
<path d="M2246.7 560.739C2139.39 480.294 2039.07 409.129 1939.98 343.181C1929.93 336.486 1919.99 329.529 1909.48 322.164C1871.24 295.37 1831.69 267.665 1784.07 251.489C1728.5 232.7 1669.91 235.792 1625.08 240.585C1529.32 250.627 1434.13 276.787 1325.5 322.913C1284.75 340.291 1244.93 359.354 1206.43 377.789C1159.66 400.179 1115.49 421.329 1069.75 439.75C1061.51 443.071 1053.35 446.26 1045.51 449.222C999.317 466.654 957.265 479.212 916.949 487.61C894.368 492.314 872.076 495.722 850.693 497.74C827.884 499.892 805.332 500.535 783.663 499.653C739.698 497.861 698.522 490.02 661.281 476.348C621.061 461.583 586.832 440.454 559.546 413.545C558.263 412.271 556.977 410.97 555.721 409.679C534.92 388.213 518.439 364.701 502.504 341.966C497.679 335.084 492.692 327.967 487.676 321.042C464.992 289.643 442.107 263.347 417.712 240.649C414.52 237.68 411.223 234.703 407.918 231.803C347.593 178.898 267.644 135.739 176.718 106.994C68.4825 72.9112 -43.1822 60.8857 -137.707 73.1305C-238.918 86.4447 -337.542 143.972 -320.395 213.698L-320.758 213.737C-325.048 196.295 -322.535 179.112 -313.29 162.661C-304.848 147.637 -290.995 133.497 -272.114 120.638C-254.56 108.682 -233.499 98.3593 -209.522 89.9563C-186.717 81.9648 -161.908 76.0604 -137.78 72.8865C-88.0299 66.4425 -33.9196 66.6273 23.045 73.4385C74.356 79.572 126.11 90.7867 176.872 106.772C267.849 135.537 347.846 178.721 408.207 231.655C411.516 234.558 414.813 237.534 418.008 240.506C442.414 263.214 465.311 289.525 488.006 320.936C493.022 327.861 498.009 334.978 502.834 341.863C518.765 364.59 535.239 388.092 556.028 409.545C557.281 410.837 558.564 412.138 559.846 413.409C612.289 465.124 691.784 495.663 783.685 499.409C861.487 502.575 947.071 486.092 1045.33 449.01C1053.17 446.048 1061.32 442.862 1069.56 439.54C1115.29 421.125 1159.46 399.977 1206.22 377.589C1244.73 359.152 1284.55 340.086 1325.3 322.706C1433.98 276.561 1529.21 250.39 1625.02 240.341C1655.14 237.12 1680.08 236.09 1703.52 237.103C1733.47 238.397 1759.87 243.03 1784.23 251.268C1831.9 267.46 1871.47 295.183 1909.74 321.991C1920.25 329.354 1930.18 336.311 1940.24 343.004C2039.33 408.957 2139.66 480.124 2246.96 560.574L2246.7 560.739Z" fill="#FF0000"/>
<path d="M2242.81 558.418C2136.53 477.096 2037.97 405.103 1941.51 338.323C1931.53 331.413 1921.67 324.176 1911.23 316.509C1874.02 289.203 1835.54 260.965 1788.31 245.138C1731.53 226.19 1670.22 232.373 1629.04 238.671C1517.27 255.556 1417.11 294.812 1333.87 330.989C1303.96 344.045 1274.12 357.874 1245.25 371.247C1187.36 398.076 1132.68 423.415 1075.28 444.164C1066.83 447.217 1058.44 450.142 1050.31 452.86C1003.22 468.58 959.904 479.491 917.899 486.214C870.282 493.836 824.705 495.753 782.426 491.909C738.992 487.959 698.307 478.141 661.506 462.727C622.905 446.562 589.552 424.608 562.365 397.474C561.097 396.2 559.818 394.897 558.569 393.6C538.285 372.529 521.599 349.663 505.459 327.549C500.171 320.302 494.701 312.81 489.205 305.519C465.297 273.725 442.591 248.4 417.753 225.813C414.518 222.871 411.18 219.923 407.827 217.048C346.722 164.646 266.172 122.113 174.887 94.0478C65.9335 60.6796 -46.0391 49.4993 -140.402 62.5696C-241.976 76.8252 -338.586 133.572 -324.435 203.864L-324.798 203.896C-328.308 186.457 -325.271 169.291 -315.773 152.877C-307.068 137.837 -293.133 123.683 -274.352 110.81C-256.838 98.8038 -235.887 88.4047 -212.078 79.8957C-189.409 71.7933 -164.647 65.7189 -140.476 62.3257C-90.7805 55.4431 -36.6152 55.1917 20.5179 61.5766C71.9535 67.3232 123.942 78.1732 175.041 93.8236C266.381 121.904 346.975 164.461 408.109 216.895C411.462 219.773 414.803 222.723 418.042 225.665C442.895 248.262 465.609 273.602 489.527 305.408C495.023 312.7 500.494 320.193 505.781 327.441C521.917 349.547 538.6 372.406 558.869 393.467C560.119 394.764 561.394 396.065 562.661 397.339C615.511 450.083 693.573 483.582 782.47 491.665C862.199 498.915 949.754 486.147 1050.14 452.639C1058.27 449.923 1066.67 447 1075.1 443.947C1132.49 423.203 1187.16 397.868 1245.05 371.043C1273.91 357.669 1303.75 343.838 1333.67 330.78C1389.64 306.455 1436.2 288.483 1480.19 274.223C1531.98 257.437 1580.64 245.729 1628.95 238.43C1658.41 233.925 1684.08 231.885 1707.43 232.195C1737.51 232.595 1764.02 236.754 1788.47 244.916C1835.77 260.763 1874.26 289.018 1911.49 316.342C1921.94 324.005 1931.8 331.243 1941.77 338.148C2038.24 404.931 2136.8 476.929 2243.09 558.253L2242.81 558.418Z" fill="#FF0000"/>
<path d="M2238.93 556.094C2133.67 473.892 2036.88 401.069 1943.04 333.46C1933.2 326.37 1923.46 318.881 1913.15 310.952C1876.92 283.096 1839.47 254.291 1792.56 238.784C1735.16 219.881 1674.01 228.572 1633 236.756C1531.74 256.793 1441.41 294.944 1342.25 339.061C1324.36 347.048 1306.27 355.291 1288.78 363.265C1221.49 393.93 1151.92 425.637 1080.8 448.574C1072.16 451.364 1063.51 454.028 1055.1 456.492C1007.69 470.37 961.846 479.897 918.841 484.808C870.124 490.373 823.811 490.153 781.176 484.16C738.351 478.14 698.161 466.344 661.718 449.099C624.84 431.647 592.354 408.87 565.167 381.402C563.911 380.125 562.643 378.819 561.401 377.523C541.729 356.944 524.937 334.823 508.698 313.431C502.846 305.722 496.797 297.753 490.718 289.998C465.876 258.237 442.698 233.129 417.775 210.98C414.503 208.072 411.117 205.15 407.717 202.296C345.85 150.387 264.707 108.48 173.055 81.0999C63.3869 48.4463 -48.8897 38.1138 -143.099 52.0071C-241.449 66.6693 -339.842 121.425 -328.48 194.026L-328.843 194.051C-331.573 176.611 -328.011 159.465 -318.261 143.088C-309.296 128.031 -295.277 113.864 -276.598 100.976C-242.134 77.2015 -193.505 59.2643 -143.18 51.7632C-93.5432 44.4444 -39.3193 43.7544 17.986 49.7129C69.5461 55.0751 121.766 65.558 173.201 80.8732C264.904 108.268 346.096 150.202 408.003 202.136C411.407 204.992 414.792 207.914 418.068 210.825C443.002 232.986 466.191 258.104 491.041 289.877C497.119 297.635 503.172 305.604 509.024 313.312C525.259 334.699 542.047 356.816 561.709 377.385C562.947 378.681 564.215 379.985 565.472 381.261C619.864 436.219 694.478 471.716 781.246 483.916C861.591 495.212 953.675 485.91 1054.95 456.265C1063.35 453.801 1071.99 451.14 1080.63 448.352C1151.73 425.423 1221.29 393.72 1288.56 363.06C1306.06 355.086 1324.15 346.843 1342.04 338.857C1385.44 319.544 1435.95 297.393 1486.08 278.899C1538.52 259.555 1586.54 245.694 1632.89 236.522C1662.07 230.699 1687.74 227.678 1711.35 227.288C1741.12 226.795 1768.49 230.59 1792.71 238.565C1813.72 245.511 1834.87 255.878 1857.37 270.26C1877.23 282.958 1895.63 297.107 1913.42 310.789C1923.72 318.716 1933.46 326.205 1943.3 333.292C2037.15 400.904 2133.94 473.729 2239.2 555.934L2238.93 556.094Z" fill="#FF0000"/>
<path d="M2235.04 553.77C2130.82 470.68 2035.8 397.027 1944.57 328.6C1934.9 321.355 1925.33 313.64 1915.2 305.473C1879.92 277.038 1843.44 247.635 1796.8 232.433C1753.22 218.271 1700.93 219.06 1636.96 234.843C1547.51 256.787 1467.56 293.492 1382.9 332.356C1372.36 337.195 1361.47 342.198 1350.62 347.138C1346.37 349.078 1342.12 351.022 1337.88 352.964C1257.22 389.851 1173.81 427.995 1086.32 452.987C1077.47 455.516 1068.59 457.918 1059.9 460.126C1011.45 472.43 964.307 480.261 919.797 483.401C869.955 486.915 822.898 484.564 779.941 476.412C737.783 468.411 698.087 454.636 661.956 435.469C626.935 416.891 595.322 393.294 567.992 365.327C566.746 364.048 565.49 362.74 564.255 361.441C545.33 341.508 528.593 320.278 512.401 299.749C505.847 291.434 499.064 282.837 492.253 274.468C466.451 242.729 442.803 217.838 417.822 196.137C414.502 193.254 411.077 190.361 407.632 187.535C344.981 136.128 263.237 94.8451 171.226 68.15C60.8473 36.2135 -51.7408 26.7262 -145.793 41.4426C-242.336 56.6741 -340.59 111.878 -332.519 184.188L-332.885 184.208C-334.831 166.766 -330.749 149.64 -320.746 133.304C-311.516 118.231 -297.417 104.047 -278.837 91.1487C-244.52 67.3245 -196.059 49.1212 -145.877 41.2036C-96.2953 33.4462 -42.0165 32.3176 15.4574 37.8522C67.1421 42.8251 119.6 52.9432 171.373 67.9233C263.435 94.6356 345.23 135.941 407.907 187.375C411.351 190.201 414.785 193.099 418.104 195.982C443.096 217.695 466.759 242.593 492.568 274.345C499.383 282.714 506.162 291.314 512.72 299.628C528.904 320.153 545.642 341.377 564.559 361.303C565.794 362.602 567.047 363.908 568.293 365.187C623.865 422.051 697.083 460.427 780.036 476.168C861.924 491.708 956.038 486.23 1059.77 459.89C1068.45 457.682 1077.33 455.281 1086.17 452.756C1173.64 427.773 1257.03 389.637 1337.67 352.754C1341.92 350.81 1346.16 348.868 1350.41 346.929C1361.26 341.988 1372.15 336.986 1382.69 332.149C1467.37 293.278 1547.35 256.563 1636.83 234.609C1665.73 227.478 1691.39 223.478 1715.27 222.377C1745.16 220.999 1772.64 224.309 1796.96 232.209C1817.85 239.018 1838.73 249.432 1860.81 264.047C1880.28 276.942 1898.18 291.365 1915.48 305.313C1925.62 313.477 1935.18 321.19 1944.84 328.432C2036.08 396.862 2131.1 470.518 2235.32 553.609L2235.04 553.77Z" fill="#FF0000"/>
<path d="M2231.16 551.45C2136.03 474.024 2040.12 397.411 1946.09 323.743C1936.52 316.286 1927.03 308.275 1916.99 299.795C1884.33 272.21 1847.3 240.947 1801.05 226.085C1756.95 211.948 1704.58 214.188 1640.92 232.93C1565.23 255.143 1498.24 287.804 1427.33 322.382C1405.12 333.21 1382.15 344.41 1358.99 355.213C1318.56 374.112 1274.82 394.109 1228.97 412.322C1179.87 431.829 1135.01 446.573 1091.83 457.4C1082.76 459.675 1073.63 461.816 1064.68 463.761C1015.2 474.512 966.785 480.631 920.768 481.947C869.827 483.401 822.026 478.935 778.688 468.664C698.659 449.463 628.713 409.289 570.795 349.255C569.561 347.973 568.315 346.662 567.087 345.364C549.123 326.31 532.678 306.21 516.777 286.769C509.291 277.619 501.553 268.157 493.767 258.948C466.983 227.216 442.859 202.544 417.848 181.305C414.481 178.446 411.011 175.58 407.526 172.783C344.113 121.872 261.768 81.2172 169.398 55.2048C58.3047 23.9829 -54.5875 15.3457 -148.485 30.8827C-245.615 47.0457 -341.407 101.518 -336.56 174.356L-336.926 174.365C-338.088 156.919 -333.478 139.812 -323.23 123.518C-313.733 108.425 -299.553 94.226 -281.079 81.3183C-263.675 69.1573 -243.047 58.5241 -219.769 49.712C-197.169 41.1586 -173.218 34.7417 -148.577 30.6412C-99.0504 22.4477 -44.713 20.8804 12.9295 25.9888C64.7387 30.5796 117.427 40.3306 169.537 54.9756C261.962 81.0029 344.355 121.682 407.805 172.618C411.289 175.418 414.766 178.286 418.134 181.145C443.155 202.396 467.29 227.078 494.085 258.82C501.871 268.031 509.61 277.494 517.095 286.646C532.997 306.084 549.438 326.182 567.395 345.228C568.619 346.529 569.868 347.838 571.099 349.119C628.973 409.106 698.857 449.249 778.809 468.43C861.165 487.947 959.98 486.252 1064.57 463.524C1073.51 461.58 1082.64 459.441 1091.7 457.169C1188.25 432.963 1276.58 393.429 1358.78 355.009C1381.94 344.206 1404.9 333.008 1427.11 322.18C1498.04 287.595 1565.04 254.926 1640.77 232.704C1704.52 213.931 1757 211.691 1801.2 225.861C1821.92 232.516 1842.49 242.95 1864.09 257.753C1883.13 270.806 1900.49 285.466 1917.28 299.64C1927.32 308.119 1936.8 316.128 1946.37 323.58C2040.4 397.251 2136.31 473.864 2231.44 551.293L2231.16 551.45Z" fill="#FF0000"/>
<path d="M2227.27 549.13C2133.6 471.275 2039.51 393.809 1947.62 318.884C1938.35 311.346 1929.15 303.194 1919.4 294.565C1887.54 266.337 1851.43 234.341 1805.29 219.731C1760.67 205.618 1708.2 209.309 1644.87 231.012C1578.53 253.717 1517.57 285.777 1458.63 316.785C1429.07 332.332 1398.5 348.408 1367.36 363.285C1318.2 386.789 1276.84 404.718 1237.2 419.713C1188.31 438.203 1142.56 451.973 1097.35 461.81C1088.07 463.831 1078.69 465.708 1069.48 467.391C1021.46 476.157 974.314 480.592 929.209 480.595C926.703 480.595 924.212 480.58 921.72 480.553C869.574 479.981 821.033 473.372 777.446 460.913C756.407 454.866 735.804 447.19 716.213 438.097C697.797 429.551 679.701 419.484 662.425 408.178C631.343 387.838 602.287 363.305 573.605 333.179C572.374 331.883 571.146 330.584 569.926 329.281C553.284 311.506 537.54 292.926 522.316 274.957C513.526 264.585 504.439 253.858 495.287 243.417C467.107 211.249 443.235 187.513 417.877 166.461C414.466 163.63 410.952 160.791 407.423 158.021C343.241 107.615 260.298 67.5864 167.569 42.2565C55.7651 11.7517 -57.4349 3.96226 -151.179 20.3199C-246.487 36.9978 -342.155 91.8837 -340.598 164.517L-340.964 164.52C-341.69 130.688 -321.754 98.5174 -283.315 71.4872C-265.94 59.2696 -245.421 48.56 -222.323 39.6493C-199.848 30.9801 -175.944 24.3957 -151.271 20.0784C-101.803 11.4461 -47.4065 9.44272 10.4045 14.1248C62.3383 18.3312 115.262 27.7175 167.705 42.0248C260.492 67.372 343.482 107.426 407.705 157.861C411.234 160.633 414.755 163.475 418.166 166.306C443.536 187.37 467.418 211.113 495.605 243.294C504.758 253.737 513.849 264.464 522.635 274.836C537.859 292.803 553.599 311.381 570.238 329.15C571.458 330.454 572.682 331.752 573.913 333.046C634.86 397.062 701.483 438.814 777.589 460.686C882.999 490.819 994.447 480.836 1069.38 467.155C1078.59 465.472 1087.96 463.596 1097.24 461.576C1201.22 438.949 1296.1 397.055 1367.15 363.085C1398.29 348.214 1428.85 332.137 1458.4 316.592C1517.37 285.58 1578.33 253.51 1644.71 230.795C1673.04 221.084 1698.69 215.12 1723.1 212.567C1753.22 209.418 1780.92 211.754 1805.44 219.511C1826.1 226.054 1846.48 236.571 1867.72 251.662C1886.44 264.959 1903.35 279.935 1919.7 294.419C1929.44 303.047 1938.63 311.196 1947.9 318.729C2039.79 393.654 2133.88 471.12 2227.56 548.975L2227.27 549.13Z" fill="#FF0000"/>
<path d="M2223.39 546.807L1949.15 314.026C1940.19 306.423 1931.3 298.151 1921.88 289.396C1890.81 260.5 1855.58 227.75 1809.53 213.381C1765 199.488 1710.94 204.776 1648.83 229.101C1589.13 252.484 1534.68 283.58 1482.02 313.654C1447.7 333.257 1412.2 353.525 1375.74 371.363C1266.13 424.98 1170.33 456.648 1074.28 471.027C1034.43 476.991 995.114 479.992 956.99 479.992C945.434 479.992 933.995 479.716 922.676 479.164C869.299 476.562 820.018 467.814 776.207 453.166C735.602 439.588 698.457 420.421 662.659 394.567C634.072 373.921 606.669 349.309 576.423 317.108C560.458 300.115 545 282.459 530.051 265.384C496.217 226.745 461.233 186.79 417.921 151.625C351.485 97.6903 264.281 55.3942 165.737 29.3078C53.2257 -0.477462 -60.282 -7.42168 -153.872 9.75651C-244.483 26.3876 -342.829 78.8315 -344.639 154.681L-345.006 154.676C-344.196 120.773 -323.637 88.6071 -285.553 61.6558C-251.119 37.287 -204.388 18.7707 -153.967 9.51748C-104.554 0.449093 -50.0997 -1.99297 7.87616 2.26277C59.9346 6.08234 113.092 15.1064 165.872 29.0786C214.633 41.9863 260.943 58.9772 303.519 79.5807C346.45 100.357 385.036 124.541 418.199 151.462C461.53 186.639 496.525 226.604 530.366 265.253C545.315 282.326 560.773 299.979 576.734 316.97C620.863 363.954 683.438 421.866 776.372 452.94C882.951 488.575 997.155 482.311 1074.19 470.781C1170.21 456.412 1265.95 424.756 1375.52 371.159C1411.97 353.328 1447.46 333.059 1481.78 313.461C1534.45 283.383 1588.92 252.279 1648.65 228.884C1710.86 204.517 1765.04 199.224 1809.69 213.155C1830.31 219.589 1850.49 230.197 1871.4 245.591C1889.8 259.142 1906.26 274.448 1922.18 289.248C1931.59 298.003 1940.49 306.271 1949.44 313.87L2223.68 546.652L2223.39 546.807Z" fill="#FF0000"/>
<path d="M2221.18 528.914C2151.35 464.099 2091.43 411.505 2032.62 363.401C2004.08 340.032 1974.92 317.031 1945.97 295.035C1937.21 288.382 1928.54 281.305 1919.35 273.811C1896.27 254.977 1872.4 235.502 1844.93 221.049C1830.18 213.275 1815.98 207.708 1801.52 204.031C1757.14 192.634 1705.07 200.17 1646.75 226.431C1616.57 240.002 1589.09 255.445 1566.19 268.762C1541.95 282.86 1518.03 298.406 1494.9 313.441C1461.66 335.052 1427.28 357.398 1390.33 376.589C1367.84 388.302 1345.05 398.767 1322.58 407.698C1277.62 425.564 1229.36 440.285 1179.15 451.453C1148.13 458.276 1116.95 463.434 1086.5 466.78C1060.26 469.654 1033.96 471.312 1008.35 471.709C970.012 472.305 932.661 470.031 897.333 464.942C859.769 459.531 824.221 450.893 791.677 439.267C762.658 428.9 735.247 415.847 707.881 399.359C656.885 368.659 616.21 333.162 586.473 305.666C571.865 292.096 557.601 278.256 543.806 264.873C504.084 226.33 466.564 189.926 419.614 157.499C381.321 131.225 337.631 108.552 289.746 90.1046C252.948 75.9279 212.926 64.3336 170.794 55.6423C160.758 53.5748 150.531 51.6477 140.408 49.9203C96.8206 42.4956 47.752 37.6607 -5.43134 35.5489C-59.0506 33.3705 -105.441 35.2556 -147.244 41.3177C-170.877 44.7183 -193.773 50.0534 -215.307 57.1726C-291.328 82.3078 -340.143 124.503 -345.889 170.047L-346.347 170.02C-344.815 157.878 -340.319 145.92 -332.988 134.471C-326.022 123.596 -316.456 113.108 -304.555 103.298C-282.069 84.7671 -251.276 68.72 -215.508 56.8941C-193.942 49.7626 -171.009 44.4201 -147.339 41.0146C-105.492 34.9476 -59.0653 33.06 -5.40204 35.2409C47.8106 37.3527 96.9048 42.1925 140.521 49.6221C150.656 51.352 160.886 53.2791 170.929 55.349C213.095 64.0453 253.15 75.6494 289.977 89.8385C337.895 108.298 381.621 130.991 419.932 157.282C466.913 189.729 504.439 226.143 544.176 264.696C557.967 278.079 572.231 291.916 586.836 305.484C616.558 332.967 657.214 368.447 708.181 399.127C735.518 415.598 762.9 428.639 791.886 438.994C855.577 461.746 928.4 472.65 1008.33 471.401C1033.93 471.004 1060.2 469.346 1086.43 466.475C1116.86 463.128 1148.01 457.976 1179 451.157C1229.19 439.997 1277.41 425.285 1322.34 407.429C1344.8 398.506 1367.58 388.046 1390.04 376.343C1426.98 357.161 1461.35 334.82 1494.58 313.216C1517.71 298.18 1541.63 282.628 1565.89 268.525C1588.8 255.201 1616.29 239.753 1646.5 226.172C1672.46 214.48 1697.6 206.402 1721.22 202.161C1750.24 196.951 1777.31 197.484 1801.68 203.743C1816.19 207.432 1830.42 213.013 1845.21 220.805C1872.72 235.28 1896.6 254.767 1919.7 273.614C1928.89 281.105 1937.56 288.182 1946.31 294.831C1975.27 316.829 2004.43 339.833 2032.98 363.206C2091.79 411.315 2151.71 463.914 2221.55 528.734L2221.18 528.914Z" fill="#FF0000"/>
<path d="M2218.97 511.013C2154.22 445.102 2093.46 389.947 2033.19 342.4C2003.81 319.174 1973.39 296.848 1942.79 276.043C1934.67 270.523 1926.66 264.786 1918.17 258.714C1892.76 240.531 1866.48 221.729 1837.05 208.72C1822.19 202.123 1807.95 197.53 1793.51 194.676C1738.22 183.745 1682.06 204.454 1644.67 223.752C1618.19 237.384 1594 252.798 1569.49 268.709C1548.05 282.637 1527.87 297.62 1506.51 313.479C1474.8 337.023 1442.02 361.367 1404.92 381.808C1382.9 394.003 1359.92 404.548 1336.62 413.148C1293.22 429.17 1245.7 441.612 1191.33 451.188C1160.9 456.546 1129.75 460.363 1098.72 462.529C1072.54 464.335 1046.41 464.981 1021.04 464.441C983.313 463.648 946.431 460.079 911.417 453.838C874.645 447.28 839.559 437.699 807.136 425.361C778.728 414.553 751.3 401.142 723.281 384.366C672.395 353.94 628.804 320.209 596.517 294.221C584.565 284.601 572.803 274.922 561.426 265.557C516.121 228.269 473.328 193.045 421.307 163.37C382.428 141.192 338.778 122.439 291.578 107.634C255.865 96.4319 218.012 88.0387 175.861 81.9742C166.133 80.577 156.237 79.3178 146.45 78.2311C103.464 73.4825 57.5864 71.6861 2.08014 69.828C-37.931 68.4209 -90.3082 67.4944 -140.626 72.8713C-164.457 75.3701 -187.493 79.7096 -209.1 85.7642C-285.172 107.087 -336.776 144.337 -347.145 185.411L-347.688 185.349C-344.939 174.457 -339.37 163.775 -331.144 153.595C-323.303 143.896 -313 134.596 -300.524 125.946C-276.814 109.515 -245.274 95.5004 -209.312 85.4217C-187.665 79.3547 -164.585 75.0078 -140.714 72.5042C-90.3485 67.1198 -37.931 68.0488 2.10574 69.4559C57.6303 71.3139 103.522 73.1104 146.538 77.8614C156.332 78.9506 166.236 80.2098 175.975 81.6071C218.166 87.6789 256.056 96.0795 291.809 107.294C339.057 122.114 382.743 140.882 421.662 163.082C473.721 192.779 516.531 228.012 561.851 265.316C573.224 274.678 584.986 284.357 596.938 293.975C629.218 319.953 672.791 353.671 723.647 384.082C751.633 400.842 779.032 414.237 807.407 425.033C871.161 449.293 943.049 462.425 1021.06 464.067C1046.4 464.604 1072.51 463.961 1098.66 462.154C1129.66 459.991 1160.79 456.179 1191.19 450.824C1245.51 441.258 1293 428.826 1336.36 412.818C1359.63 404.227 1382.58 393.698 1404.57 381.515C1441.64 361.091 1474.41 336.757 1506.11 313.226C1527.48 297.358 1547.66 282.373 1569.12 268.438C1593.63 252.517 1617.83 237.098 1644.34 223.451C1668.58 210.94 1692.48 201.941 1715.39 196.697C1743.17 190.339 1769.51 189.538 1793.67 194.314C1808.16 197.18 1822.45 201.788 1837.36 208.404C1866.84 221.438 1893.14 240.257 1918.58 258.456C1927.06 264.525 1935.08 270.259 1943.19 275.777C1973.8 296.59 2004.22 318.923 2033.62 342.156C2093.89 389.716 2154.68 444.88 2219.43 510.806L2218.97 511.013Z" fill="#FF0000"/>
<path d="M2216.76 493.112C2156.16 425.21 2096.31 369.042 2033.77 321.401C2003.53 298.319 1971.85 276.67 1939.62 257.053C1932.73 252.858 1925.63 248.408 1918.77 244.105C1890.45 226.328 1861.16 207.948 1829.18 196.393C1814.17 190.932 1799.88 187.31 1785.51 185.321C1730.33 177.684 1677.34 200.548 1642.59 221.07C1619.05 234.924 1597.52 250.626 1576.7 265.813L1572.8 268.657C1553.9 282.434 1536.17 297.545 1517.4 313.545C1487.5 339.023 1456.59 365.366 1419.51 387.026C1397.93 399.722 1374.77 410.345 1350.67 418.601C1308.65 432.994 1261.88 443.265 1203.5 450.924C1173.31 454.884 1142.17 457.358 1110.93 458.275C1084.81 459.012 1058.84 458.642 1033.73 457.171C957.701 452.738 886.663 437.356 822.587 411.454C794.887 400.257 767.44 386.494 738.681 369.372C690.011 340.46 646.725 310.741 606.563 282.779C601.177 279.031 595.85 275.308 590.563 271.614C535.709 233.297 483.899 197.105 423.011 169.249C383.26 151.063 339.654 136.234 293.41 125.169C259.46 117.047 222.665 111.532 180.932 108.309C171.527 107.587 161.96 106.993 152.496 106.544C128.687 105.436 103.434 105.256 76.6981 105.066C55.2233 104.913 33.0193 104.755 9.58786 104.112C-35.6665 102.764 -86.9554 101.239 -134.016 104.433C-158.298 106.081 -181.473 109.423 -202.9 114.366C-278.943 131.911 -333.339 164.22 -348.409 200.792L-349.028 200.676C-345.057 191.033 -338.417 181.627 -329.298 172.719C-320.577 164.2 -309.541 156.083 -296.497 148.594C-271.549 134.272 -239.254 122.296 -203.112 113.957C-181.637 109.001 -158.415 105.652 -134.086 104.001C-86.9774 100.805 -35.6628 102.333 9.60986 103.681C33.0266 104.322 55.2306 104.482 76.6981 104.635C103.445 104.824 128.705 105.004 152.536 106.116C162.008 106.567 171.585 107.161 180.998 107.883C222.783 111.108 259.621 116.631 293.619 124.765C339.918 135.842 383.571 150.689 423.366 168.895C484.31 196.775 536.145 232.984 591.021 271.318C596.308 275.012 601.639 278.733 607.021 282.484C647.175 310.44 690.448 340.152 739.102 369.055C767.832 386.156 795.25 399.907 822.917 411.09C886.909 436.959 957.855 452.319 1033.78 456.747C1058.87 458.216 1084.81 458.585 1110.9 457.848C1142.1 456.932 1173.22 454.46 1203.37 450.505C1261.69 442.854 1308.41 432.595 1350.37 418.221C1374.43 409.983 1397.54 399.379 1419.08 386.706C1456.12 365.072 1487.01 338.744 1516.89 313.282C1535.67 297.274 1553.41 282.156 1572.33 268.368L1576.22 265.525C1597.05 250.33 1618.59 234.618 1642.17 220.749C1677.02 200.161 1730.2 177.231 1785.63 184.902C1800.07 186.901 1814.41 190.535 1829.48 196.018C1861.53 207.598 1890.85 225.998 1919.21 243.795C1926.06 248.098 1933.16 252.548 1940.04 256.74C1972.29 276.367 2003.98 298.028 2034.24 321.123C2096.81 368.784 2156.68 424.971 2217.3 492.895L2216.76 493.112Z" fill="#FF0000"/>
<path d="M2214.55 475.212C2158.91 406.284 2098.28 347.47 2034.34 300.408C2003.26 277.471 1970.32 256.498 1936.45 238.071C1931.56 235.409 1926.55 232.647 1921.7 229.976C1889.69 212.329 1856.59 194.079 1821.33 184.074C1806.19 179.735 1791.86 177.086 1777.52 175.972C1722.5 171.704 1672.65 196.684 1640.53 218.391C1620.57 231.802 1602.57 246.715 1585.15 261.138C1582.14 263.635 1579.13 266.126 1576.11 268.608C1559.55 282.24 1544.06 297.469 1527.66 313.59C1499.79 340.997 1470.96 369.336 1434.1 392.253C1412.45 405.71 1389.76 416.114 1364.71 424.064C1312.32 440.69 1259.97 446.843 1215.67 450.673C1185.7 453.26 1154.57 454.394 1123.14 454.034C1097.1 453.701 1071.29 452.314 1046.42 449.914C972.673 442.814 902.565 425.2 838.045 397.559C811.199 386.06 783.737 371.94 754.084 354.393C724.131 336.709 696.219 319.694 669.222 303.237C650.876 292.052 633.545 281.488 616.621 271.353C552.647 233.039 494.049 199.353 424.729 175.139C384.124 160.957 340.563 150.046 295.253 142.71C262.779 137.451 228.066 134.891 186.014 134.647C176.942 134.602 167.701 134.674 158.552 134.861C144.655 135.164 130.277 135.797 115.06 136.47C85.8582 137.759 52.7538 139.22 17.0955 138.402C3.5166 138.089 -10.3371 137.648 -23.7364 137.219C-58.2002 136.118 -93.8365 134.979 -127.41 135.997C-152.065 136.746 -175.383 139.092 -196.708 142.971C-272.622 156.783 -329.807 184.153 -349.681 216.186L-350.358 215.996C-345.155 207.608 -337.446 199.481 -327.447 191.839C-317.844 184.501 -306.075 177.569 -292.474 171.238C-266.265 159.04 -233.22 149.102 -196.905 142.495C-175.53 138.607 -152.16 136.253 -127.45 135.504C-93.8401 134.484 -58.1892 135.625 -23.7071 136.726C-10.3114 137.155 3.54224 137.596 17.1175 137.909C52.7428 138.727 85.8215 137.269 115.009 135.98C130.233 135.307 144.614 134.674 158.527 134.371C167.687 134.183 176.935 134.112 186.018 134.156C228.129 134.398 262.893 136.966 295.422 142.232C340.786 149.577 384.406 160.501 425.062 174.703C456.375 185.639 488.106 199.496 522.068 217.061C552.472 232.785 582.047 249.99 617.105 270.986C634.029 281.123 651.36 291.688 669.709 302.873C696.702 319.326 724.615 336.342 754.561 354.023C784.184 371.553 811.617 385.659 838.43 397.145C902.862 424.749 972.87 442.339 1046.51 449.428C1071.36 451.826 1097.14 453.211 1123.14 453.544C1154.54 453.903 1185.64 452.772 1215.56 450.185C1259.81 446.363 1312.1 440.217 1364.39 423.62C1389.37 415.693 1412.01 405.316 1433.6 391.893C1470.39 369.015 1499.2 340.699 1527.05 313.314C1543.46 297.183 1558.95 281.946 1575.54 268.299C1578.55 265.818 1581.56 263.327 1584.57 260.833C1602 246.4 1620.02 231.476 1639.99 218.049C1660.9 203.926 1682.34 193.061 1703.73 185.757C1729.07 177.105 1753.92 173.651 1777.59 175.489C1792 176.608 1806.4 179.269 1821.6 183.626C1856.95 193.658 1890.1 211.93 1922.15 229.599C1927 232.27 1932.01 235.032 1936.89 237.691C1970.79 256.134 2003.75 277.126 2034.86 300.081C2068.81 325.071 2102.06 353.542 2133.68 384.705C2161.63 412.248 2189.05 442.622 2215.17 474.98L2214.55 475.212Z" fill="#FF0000"/>
<path d="M2212.33 457.301C2160.84 386.397 2101.15 326.546 2034.92 279.407C2002.98 256.616 1968.79 236.32 1933.29 219.08C1931.6 218.26 1929.91 217.439 1928.22 216.616C1891.3 198.667 1853.13 180.106 1813.49 171.75C1798.13 168.512 1783.75 166.834 1769.55 166.617C1714.75 165.784 1668.02 192.851 1638.47 215.702C1621.08 229.07 1605.64 243.723 1590.71 257.892C1587.02 261.396 1583.2 265.019 1579.44 268.548C1565.09 281.988 1551.75 297.268 1537.62 313.448C1511.94 342.879 1485.38 373.31 1448.71 397.469C1427.49 411.446 1404.61 421.929 1378.76 429.519C1327.84 444.469 1276.13 448.395 1227.84 450.411C1198.06 451.653 1166.94 451.441 1135.34 449.782C1109.4 448.378 1083.75 445.975 1059.11 442.643C987.871 433.033 918.694 413.186 853.507 383.652C827.401 371.826 800.705 357.765 769.499 339.402C710.189 304.597 666.148 280.083 626.701 259.918C548.243 219.812 488.362 196.217 426.48 181.023C385.051 170.85 341.534 163.859 297.129 160.242C266.322 157.733 233.628 157.958 191.125 160.976C182.416 161.602 173.505 162.339 164.638 163.169C156.262 163.965 147.754 164.877 138.745 165.841C105.479 169.401 67.7725 173.438 24.6176 172.684C1.8714 172.287 -21.3622 171.2 -43.83 170.151C-69.3645 168.958 -95.7675 167.723 -120.8 167.556C-145.899 167.388 -169.359 168.739 -190.512 171.572C-266.174 181.703 -326.154 204.14 -350.956 231.589L-351.659 231.301C-345.218 224.169 -336.439 217.321 -325.568 210.946C-315.074 204.79 -302.58 199.046 -288.429 193.869C-260.942 183.81 -227.137 175.909 -190.673 171.028C-169.462 168.189 -145.95 166.834 -120.793 167.001C-95.7382 167.169 -69.3206 168.403 -43.775 169.599C-21.3145 170.648 1.90802 171.735 24.636 172.132C67.7139 172.883 105.38 168.852 138.609 165.296C147.623 164.33 156.138 163.421 164.517 162.622C173.395 161.792 182.313 161.055 191.03 160.427C233.599 157.406 266.348 157.179 297.221 159.695C341.688 163.317 385.267 170.318 426.755 180.505C488.721 195.719 548.664 219.339 627.192 259.479C666.653 279.651 710.71 304.173 770.034 338.988C801.218 357.336 827.885 371.383 853.962 383.196C919.061 412.688 988.135 432.508 1059.26 442.104C1083.87 445.431 1109.49 447.828 1135.4 449.233C1166.96 450.889 1198.04 451.101 1227.78 449.861C1276 447.848 1327.62 443.932 1378.43 429.016C1404.18 421.456 1426.98 411.008 1448.12 397.08C1484.71 372.972 1511.25 342.573 1536.91 313.175C1551.04 296.985 1564.39 281.692 1578.76 268.232C1582.53 264.706 1586.35 261.083 1590.03 257.579C1604.97 243.398 1620.42 228.735 1637.84 215.345C1657.12 200.431 1677.34 188.635 1697.93 180.281C1722.05 170.496 1746.15 165.717 1769.56 166.07C1783.85 166.287 1798.29 167.975 1813.73 171.227C1853.5 179.613 1891.73 198.199 1928.7 216.175C1930.39 216.998 1932.08 217.821 1933.77 218.639C1969.31 235.899 2003.54 256.219 2035.51 279.035C2101.8 326.216 2161.54 386.114 2213.07 457.067L2212.33 457.301Z" fill="#FF0000"/>
<path d="M1246.07 450.154C1244.01 450.154 1241.99 450.152 1239.99 450.145C1210.37 450.061 1179.26 448.508 1147.54 445.527C1121.69 443.05 1096.2 439.632 1071.79 435.371C1036.91 429.295 1001.9 420.561 967.733 409.416C934.739 398.652 901.51 385.306 868.966 369.744C837.078 354.498 807.293 337.509 784.906 324.412C732.525 293.85 682.687 268.306 636.777 248.486C562.419 216.387 496.155 196.819 428.235 186.905C387.261 180.924 343.3 177.77 300.973 177.77C300.317 177.77 299.665 177.77 299.009 177.773C262.647 177.856 228.125 182.4 196.24 187.299C187.941 188.583 179.357 189.985 170.724 191.471C165.994 192.294 161.256 193.142 156.244 194.039C120.89 200.375 80.8164 207.553 32.1325 206.964C2.48325 206.604 -27.7999 204.539 -57.0865 202.541C-75.9965 201.249 -95.5477 199.916 -114.198 199.11C-139.835 198.004 -163.427 198.359 -184.327 200.17C-259.586 206.686 -322.362 224.191 -352.256 247L-352.945 246.594C-337.611 234.896 -314.546 224.768 -284.391 216.488C-255.592 208.583 -221.029 202.728 -184.444 199.561C-163.49 197.748 -139.835 197.388 -114.139 198.499C-95.4707 199.305 -75.9085 200.641 -56.9912 201.932C-27.723 203.93 2.54184 205.996 32.1508 206.353C80.7101 206.942 120.714 199.773 156.009 193.45C161.026 192.551 165.763 191.703 170.497 190.88C179.137 189.394 187.729 187.989 196.035 186.706C227.974 181.799 262.556 177.248 299.005 177.162C342.006 177.06 386.755 180.225 428.43 186.309C463.483 191.427 497.467 198.96 532.316 209.34C565.878 219.337 600.21 231.973 637.268 247.974C683.215 267.808 733.089 293.372 785.503 323.954C807.872 337.044 837.635 354.02 869.49 369.249C935.527 400.825 1003.67 422.873 1072.02 434.783C1096.4 439.038 1121.85 442.451 1147.67 444.925C1179.35 447.902 1210.41 449.455 1239.99 449.536C1286.28 449.664 1340.03 448.614 1392.46 434.408C1418.99 427.217 1441.95 416.702 1462.64 402.265C1498.98 376.908 1523.06 344.362 1546.36 312.887C1558.35 296.697 1569.67 281.404 1581.97 268.166C1585.92 263.925 1589.9 259.556 1593.74 255.33C1606.74 241.052 1620.18 226.291 1635.67 212.646C1653.36 196.949 1672.35 184.217 1692.11 174.803C1715.01 163.889 1738.36 157.783 1761.5 156.654C1775.79 155.957 1790.29 156.669 1805.83 158.833C1847.38 164.614 1888.57 181.41 1930.62 199.589C1967.28 215.438 2003.77 235.633 2036.14 257.991C2072.1 282.754 2105.89 311.805 2136.56 344.335C2163.88 373.317 2188.91 405.219 2210.95 439.157L2210.11 439.403C2162.78 366.521 2104.03 305.63 2035.49 258.422C2003.16 236.096 1966.73 215.931 1930.13 200.108C1888.15 181.962 1847.04 165.198 1805.64 159.436C1790.19 157.285 1775.77 156.578 1761.57 157.27C1719.04 159.348 1674.59 179.145 1636.4 213.021C1620.94 226.641 1607.51 241.389 1594.52 255.652C1590.68 259.881 1586.69 264.253 1582.75 268.493C1570.47 281.707 1559.15 296.987 1547.18 313.163C1535.75 328.606 1523.93 344.577 1510.37 359.929C1494.99 377.334 1479.6 391.321 1463.3 402.693C1442.52 417.195 1419.46 427.757 1392.8 434.982C1369.29 441.355 1344.02 445.566 1315.55 447.863C1291.43 449.797 1267.22 450.154 1246.07 450.154Z" fill="#FF0000"/>
<path d="M1304.82 451.388C1286.14 451.388 1268.19 450.639 1252.14 449.88C1222.62 448.485 1191.52 445.59 1159.73 441.272C1133.98 437.726 1108.66 433.295 1084.45 428.098C1018.18 413.897 952.74 390.258 884.41 355.835C854.61 340.825 826.518 324.674 800.306 309.421C748.555 279.394 696.929 255.047 646.853 237.053C573.206 210.59 504.301 196.522 430.002 192.781C387.667 190.649 343.025 191.519 300.896 195.295C265.633 198.454 232.39 206.078 201.356 213.614C193.591 215.509 185.333 217.579 176.814 219.764C174.685 220.314 172.538 220.873 170.362 221.438C134.619 230.733 94.1755 241.25 42.271 241.25C41.3953 241.25 40.5233 241.248 39.6403 241.24C4.52426 241.001 -31.3282 237.63 -66.0045 234.367C-79.7519 233.074 -93.9683 231.738 -107.609 230.656C-134.254 228.547 -157.33 227.923 -178.16 228.756C-253.921 231.787 -317.869 244.049 -353.601 262.406L-354.213 261.866C-336.549 252.793 -311.007 244.914 -280.357 239.084C-250.21 233.35 -214.892 229.545 -178.223 228.079C-157.334 227.243 -134.199 227.867 -107.496 229.981C-93.8401 231.063 -79.62 232.401 -65.869 233.692C-31.2256 236.95 4.59387 240.319 39.6439 240.558C92.6294 240.922 133.732 230.23 169.992 220.799C172.164 220.235 174.315 219.676 176.444 219.124C184.97 216.935 193.232 214.865 201.004 212.97C232.089 205.42 265.395 197.786 300.753 194.617C342.948 190.837 387.664 189.964 430.068 192.098C466.887 193.951 501.992 198.328 537.387 205.474C573.84 212.835 609.799 222.965 647.318 236.45C697.457 254.468 749.149 278.844 800.954 308.901C827.156 324.149 855.23 340.29 885.004 355.285C953.242 389.661 1018.58 413.266 1084.75 427.445C1108.92 432.633 1134.21 437.058 1159.92 440.599C1191.67 444.912 1222.72 447.805 1252.2 449.195C1301.8 451.536 1354.57 452.738 1406.48 439.784C1433.8 432.965 1456.91 422.384 1477.15 407.433C1513.19 380.802 1535.63 344.477 1555.42 312.427C1565.38 296.301 1574.79 281.07 1585.17 268.086C1588.92 263.401 1592.69 258.559 1596.33 253.877C1607.74 239.227 1619.53 224.079 1633.48 209.932C1649.63 193.451 1667.39 179.782 1686.28 169.304C1707.97 157.271 1730.56 149.839 1753.43 147.22C1767.73 145.581 1782.28 145.32 1797.92 146.414C1841.61 149.477 1886 164.612 1927.46 180.514C1965.75 195.196 2003.54 214.703 2036.77 236.925C2073.73 261.573 2107.78 290.914 2137.98 324.13C2164.98 353.834 2188.82 386.5 2208.83 421.226L2207.89 421.47C2165.36 347.656 2105.94 284.007 2036.06 237.403C2002.9 215.223 1965.18 195.753 1926.97 181.101C1885.6 165.236 1841.33 150.137 1797.82 147.087C1782.27 145.997 1767.81 146.259 1753.61 147.885C1711.38 152.722 1669.02 174.888 1634.33 210.302C1620.4 224.419 1608.62 239.552 1597.23 254.187C1593.59 258.872 1589.82 263.714 1586.07 268.403C1575.71 281.358 1566.31 296.575 1556.36 312.683C1536.53 344.783 1514.06 381.167 1477.89 407.887C1457.55 422.919 1434.3 433.559 1406.83 440.417C1383 446.366 1357.28 449.811 1328.21 450.942C1320.36 451.262 1312.53 451.388 1304.82 451.388Z" fill="#FF0000"/>
<path d="M1341.7 454.058C1341.43 454.058 1341.17 454.058 1340.9 454.058C1314.5 454.014 1288.58 451.84 1264.28 449.618C1234.81 446.922 1203.73 442.681 1171.92 437.018C1146.29 432.407 1121.13 426.959 1097.13 420.828C1033.5 404.596 970.818 379.527 899.865 341.93C874.312 328.394 849.166 313.818 824.844 299.725C821.803 297.961 818.758 296.199 815.713 294.437C763.695 264.418 710.277 241.266 656.947 225.628C583.92 204.217 510.269 195.395 431.786 198.66C388.752 200.451 344.15 205.348 302.801 212.819C270.177 218.716 241.106 228.176 206.489 239.931C199.472 242.324 191.979 244.906 182.914 248.06L182.409 248.238C164.92 254.364 145.098 261.306 122.865 266.584C97.33 272.646 72.5575 275.564 47.1548 275.529C7.54312 275.463 -32.8821 270.505 -71.9735 265.707C-81.5513 264.531 -91.4588 263.316 -101.022 262.217C-128.447 259.071 -151.662 257.481 -171.994 257.36C-246.857 256.917 -313.55 264.378 -354.968 277.828L-355.444 277.163C-335.157 270.574 -307.79 265.226 -276.305 261.697C-244.762 258.161 -208.686 256.407 -171.983 256.624C-151.593 256.744 -128.319 258.336 -100.835 261.49C-91.2646 262.589 -81.3571 263.804 -71.7757 264.98C-32.7318 269.77 7.64203 274.723 47.1585 274.79C47.3344 274.79 47.5139 274.79 47.6898 274.79C104.215 274.79 147.278 259.709 181.903 247.582L182.412 247.405C191.481 244.248 198.974 241.666 205.994 239.273C240.67 227.499 269.792 218.021 302.519 212.107C343.937 204.621 388.612 199.717 431.72 197.923C470.126 196.326 506.352 197.543 542.476 201.649C581.402 206.072 618.992 213.694 657.387 224.953C710.819 240.621 764.329 263.809 816.431 293.878C819.476 295.64 822.521 297.404 825.562 299.169C849.873 313.257 875.012 327.828 900.542 341.354C971.405 378.904 1033.99 403.938 1097.52 420.143C1121.48 426.267 1146.61 431.705 1172.2 436.311C1203.97 441.966 1235 446.2 1264.43 448.891C1317.15 453.716 1368.75 457.062 1420.53 445.194C1448.62 438.753 1471.9 428.105 1491.67 412.639C1527.39 384.702 1546.91 345.992 1564.13 311.835C1572.19 295.844 1579.8 280.739 1588.39 268.045C1591.7 263.161 1595.01 258.109 1598.22 253.223C1608.24 237.945 1618.61 222.149 1631.32 207.255C1645.95 189.983 1662.49 175.375 1680.46 163.838C1700.96 150.688 1722.79 141.935 1745.37 137.825C1759.37 135.277 1773.66 134.035 1789.01 134.035C1789.34 134.035 1789.68 134.035 1790.01 134.038C1837.74 134.205 1886.86 148.789 1924.32 161.474C1964.22 174.991 2003.33 193.808 2037.41 215.892C2075.37 240.426 2109.7 270.056 2139.42 303.962C2166.09 334.387 2188.74 367.82 2206.72 403.334L2205.68 403.573C2178.92 350.73 2127.86 275.369 2036.65 216.427C2002.65 194.392 1963.63 175.619 1923.82 162.135C1886.47 149.483 1837.51 134.942 1790.01 134.777C1774.37 134.715 1759.87 135.952 1745.66 138.54C1703.83 146.157 1663.56 170.691 1632.27 207.622C1619.59 222.482 1609.24 238.26 1599.22 253.521C1596.02 258.41 1592.7 263.464 1589.39 268.351C1580.83 281.012 1573.22 296.098 1565.17 312.071C1547.92 346.29 1528.37 385.074 1492.51 413.12C1472.6 428.689 1449.17 439.408 1420.88 445.892C1396.91 451.384 1371 454.058 1341.7 454.058Z" fill="#FF0000"/>
<path d="M1371.03 457.531C1365.34 457.531 1359.53 457.407 1353.58 457.161C1327.53 456.084 1302.22 452.854 1276.43 449.354C1246.53 445.298 1216.33 439.872 1184.11 432.765C1158.61 427.092 1133.61 420.631 1109.8 413.556C1049.39 395.636 989.41 369.257 915.32 328.025C896.919 317.786 878.526 307.047 860.737 296.66C851.053 291.007 841.043 285.16 831.124 279.45C778.487 249.229 723.285 227.277 667.049 214.202C592.746 196.925 516.381 193.761 433.581 204.53C389.837 210.22 345.275 219.143 304.718 230.333C272.137 239.323 243.756 251.947 213.707 265.313L211.63 266.237C206.936 268.332 202.191 270.456 197.388 272.605C194.621 273.844 191.836 275.091 189.026 276.348C171.505 284.226 152.58 292.444 130.878 298.77C105.681 306.113 80.7579 309.726 54.6774 309.814C11.2588 309.957 -33.0283 303.171 -75.8534 296.601C-81.9649 295.662 -88.2891 294.694 -94.4263 293.775C-123.2 289.462 -145.884 286.981 -165.823 285.961C-239.404 282.198 -308.845 284.849 -356.345 293.238L-356.649 292.464C-309.024 284.053 -239.441 281.392 -165.732 285.162C-145.737 286.185 -122.995 288.674 -94.1662 292.994C-88.0252 293.915 -81.7011 294.884 -75.5859 295.823C-33.2848 302.311 10.4417 309.016 53.2851 309.016C53.7468 309.016 54.2085 309.016 54.6738 309.014C110.089 308.826 149.535 293.139 188.37 275.682C191.181 274.426 193.965 273.179 196.732 271.939C201.535 269.788 206.276 267.666 210.974 265.569L213.051 264.645C243.151 251.257 271.58 238.61 304.267 229.591C344.897 218.379 389.536 209.441 433.358 203.741C516.366 192.946 592.937 196.12 667.441 213.443C723.816 226.553 779.146 248.554 831.901 278.841C841.819 284.554 851.833 290.399 861.517 296.054C879.299 306.438 897.688 317.175 916.078 327.407C990.08 368.591 1049.98 394.934 1110.28 412.824C1134.06 419.887 1159.02 426.341 1184.48 432.004C1216.65 439.101 1246.81 444.519 1276.67 448.568C1321.99 454.716 1378.4 462.37 1434.57 450.582C1463.45 444.522 1486.88 433.807 1506.19 417.824C1541.57 388.549 1557.97 347.374 1572.45 311.049C1578.74 295.268 1584.68 280.362 1591.61 267.991C1594.31 263.171 1597.02 258.186 1599.63 253.364C1608.41 237.191 1617.49 220.469 1629.15 204.564C1642.3 186.489 1657.61 170.942 1674.64 158.355C1693.94 144.092 1715.03 134.021 1737.3 128.42C1751.6 124.824 1766.25 122.609 1782.1 121.645C1803.32 120.354 1825.91 121.734 1851.16 125.854C1872.52 129.344 1895.42 134.76 1921.17 142.416C1962.7 154.765 2003.11 172.894 2038.04 194.843C2077.02 219.261 2111.61 249.184 2140.85 283.777C2167.18 314.928 2188.64 349.126 2204.61 385.427L2203.47 385.654C2169.74 309.016 2110.7 241.459 2037.23 195.43C2002.39 173.54 1962.09 155.462 1920.68 143.151C1865.2 126.655 1821.21 120.073 1782.21 122.444C1766.46 123.4 1751.92 125.6 1737.72 129.169C1684.72 142.493 1650 177.717 1630.22 204.917C1618.59 220.782 1609.52 237.484 1600.75 253.637C1598.13 258.462 1595.42 263.45 1592.72 268.272C1585.81 280.606 1579.88 295.495 1573.6 311.256C1559.1 347.66 1542.66 388.921 1507.11 418.33C1487.65 434.438 1464.03 445.239 1434.92 451.348C1415.19 455.488 1394.15 457.531 1371.03 457.531Z" fill="#FF0000"/>
<path d="M1396.43 461.506C1357.68 461.506 1320.43 454.811 1288.56 449.084C1258.58 443.697 1228.4 436.965 1196.28 428.505C1170.93 421.778 1146.09 414.301 1122.46 406.28C1051.62 382.264 988.461 347.792 930.767 314.115C918.987 307.24 907.086 300.153 895.581 293.3C879.606 283.783 863.085 273.943 846.531 264.461C793.106 233.941 736.119 213.185 677.158 202.769C600.884 189.297 521.796 191.788 435.376 210.388C390.88 219.964 346.363 232.914 306.634 247.837C275.991 259.345 250.065 273.874 222.618 289.256C220.672 290.345 218.723 291.439 216.762 292.534L215.7 293.13C209.028 296.873 202.128 300.742 195.134 304.626C178.375 313.972 159.919 323.64 138.572 331.025C113.792 339.598 88.8111 343.873 62.192 344.095C15.4684 344.487 -32.153 335.653 -78.2024 327.109C-81.4304 326.51 -84.6437 325.914 -87.8424 325.325C-118.21 319.721 -140.363 316.4 -159.665 314.551C-231.399 307.686 -303.595 305.527 -357.742 308.63L-357.852 307.77C-303.617 304.66 -231.315 306.821 -159.485 313.696C-140.128 315.55 -117.928 318.879 -87.5053 324.492C-84.3066 325.081 -81.0933 325.678 -77.8616 326.279C-31.9001 334.805 15.6296 343.617 62.1737 343.233C119.981 342.75 160.692 322.708 194.313 303.96C201.308 300.077 208.207 296.208 214.879 292.467L215.942 291.871C217.902 290.774 219.851 289.682 221.797 288.593C249.292 273.184 275.262 258.631 306.007 247.083C345.809 232.133 390.411 219.161 434.984 209.568C475.955 200.751 514.439 195.659 552.629 194.003C595.23 192.158 637.235 194.827 677.48 201.936C736.629 212.384 793.784 233.2 847.359 263.803C863.924 273.29 880.449 283.132 896.428 292.652C907.933 299.505 919.826 306.59 931.602 313.462C989.237 347.102 1052.32 381.537 1123.03 405.509C1146.63 413.518 1171.43 420.984 1196.75 427.702C1228.81 436.149 1258.95 442.872 1288.89 448.251C1334.86 456.511 1392.07 466.792 1448.6 455.974C1478.26 450.296 1501.84 439.515 1520.69 423.015C1555.71 392.362 1568.81 348.654 1580.37 310.089C1585.01 294.594 1589.4 279.959 1594.81 267.94C1596.81 263.495 1598.82 258.902 1600.76 254.459C1608.36 237.081 1616.22 219.109 1626.96 201.877C1638.66 182.983 1652.73 166.493 1668.79 152.868C1686.91 137.494 1707.24 126.104 1729.21 119.014C1743.48 114.411 1758.18 111.22 1774.16 109.256C1795.69 106.612 1819.58 106.701 1845.17 109.52C1867.57 111.989 1892.07 116.644 1917.99 123.359C1961.14 134.539 2002.86 151.978 2038.66 173.792C2078.65 198.097 2113.51 228.308 2142.27 263.591C2168.25 295.466 2188.52 330.434 2202.49 367.52L2201.24 367.732C2171.64 289.148 2113.6 220.499 2037.8 174.433C2002.12 152.691 1960.53 135.308 1917.53 124.165C1861.79 109.722 1814.97 105.121 1774.39 110.106C1758.53 112.055 1743.93 115.224 1729.77 119.793C1677.49 136.661 1645.65 173.92 1628.15 202.209C1617.43 219.397 1609.58 237.344 1601.99 254.7C1600.05 259.143 1598.04 263.739 1596.04 268.189C1590.65 280.168 1586.26 294.783 1581.63 310.259C1576.06 328.812 1569.76 349.839 1560.61 369.553C1550.13 392.14 1537.4 409.799 1521.71 423.54C1512.64 431.484 1502.21 438.246 1490.71 443.638C1478.35 449.436 1464.3 453.867 1448.95 456.804C1431.38 460.168 1413.75 461.506 1396.43 461.506Z" fill="#FF0000"/>
<path d="M1419.33 465.87C1406.52 465.87 1393.1 465.032 1378.92 463.359C1351 460.064 1324.28 454.086 1300.7 448.815C1270.98 442.169 1239.94 433.901 1208.46 424.244C1183.27 416.472 1158.6 407.98 1135.12 399C1067.75 373.256 1009.71 339.026 946.214 300.204C940.572 296.754 934.841 293.235 929.301 289.83C907.482 276.427 884.923 262.568 861.938 249.473C807.626 218.596 748.859 199.037 687.267 191.339C609.575 181.628 525.427 190.006 437.172 216.245C391.884 229.71 347.407 246.683 308.55 265.335C279.293 279.379 255.209 295.936 229.711 313.467C227.121 315.248 224.519 317.035 221.903 318.829C215.392 323.299 208.379 328.097 201.245 332.9C186.285 343.005 168.053 354.521 146.27 363.276C121.886 373.079 96.8427 378.02 69.7142 378.377C20.052 379.035 -30.5005 367.975 -79.3895 357.281L-81.2509 356.874C-105.188 351.64 -130.51 346.352 -153.498 343.141C-223.569 333.355 -296.596 326.562 -359.123 324.011L-359.039 323.089C-296.446 325.642 -223.353 332.441 -153.22 342.237C-130.166 345.457 -104.8 350.753 -80.8258 355.994L-78.9645 356.401C-30.1817 367.071 20.2682 378.103 69.6886 377.45C126.763 376.696 166.181 355.277 200.274 332.242C207.408 327.441 214.414 322.643 220.925 318.176C223.541 316.384 226.142 314.595 228.733 312.816C254.275 295.256 278.402 278.669 307.755 264.579C346.685 245.89 391.247 228.884 436.618 215.395C478.026 203.086 518.773 194.604 557.722 190.188C602.225 185.144 645.896 185.223 687.523 190.425C749.35 198.153 808.334 217.78 862.829 248.763C885.831 261.87 908.402 275.734 930.232 289.145C935.772 292.548 941.503 296.067 947.145 299.517C1010.58 338.301 1068.56 372.495 1135.81 398.194C1159.25 407.159 1183.89 415.639 1209.04 423.401C1240.48 433.044 1271.46 441.299 1301.14 447.935C1347.66 458.339 1405.56 471.284 1462.65 461.365C1493.1 456.074 1516.84 445.229 1535.22 428.206C1569.85 396.134 1579.87 347.793 1587.92 308.95C1591.06 293.819 1594.02 279.529 1598.03 267.898C1599.3 264.231 1600.58 260.454 1601.81 256.799C1608.22 237.815 1614.86 218.182 1624.81 199.198C1640.17 169.654 1669.35 130.132 1721.14 109.623C1735.45 103.96 1750.2 99.7903 1766.25 96.8776C1808.24 89.1473 1858.23 91.6485 1914.84 104.307C1959.61 114.319 2002.64 131.069 2039.3 152.747C2080.3 176.936 2115.43 207.438 2143.71 243.413C2156.69 259.914 2168.15 277.538 2177.8 295.796C2187.01 313.235 2194.61 331.345 2200.38 349.622L2199.04 349.814C2173.59 269.278 2116.53 199.538 2038.39 153.439C2001.87 131.843 1959 115.157 1914.4 105.182C1858.06 92.5799 1808.33 90.0861 1766.61 97.7672C1750.68 100.658 1736.03 104.795 1721.84 110.416C1670.41 130.783 1641.39 170.102 1626.1 199.501C1616.18 218.436 1609.56 238.041 1603.15 257.001C1601.91 260.656 1600.64 264.436 1599.37 268.105C1595.37 279.697 1592.41 293.967 1589.28 309.075C1585.23 328.622 1580.64 350.775 1572.79 371.684C1563.77 395.71 1551.84 414.377 1536.33 428.748C1527.48 436.947 1517.12 443.862 1505.56 449.298C1493.1 455.155 1478.78 459.517 1462.99 462.257C1449.14 464.667 1434.67 465.87 1419.33 465.87Z" fill="#FF0000"/>
<path d="M1440.44 470.477C1425.08 470.477 1408.89 469.139 1391.6 466.455C1363.58 462.111 1336.62 454.9 1312.83 448.538C1282.88 440.529 1251.87 430.921 1220.64 419.977C1195.62 411.168 1171.1 401.661 1147.79 391.717C1083.62 364.377 1028.59 329.138 970.323 291.835C967.44 289.989 964.556 288.141 961.665 286.293C934.57 268.964 906.555 251.044 877.349 234.484C822.092 203.216 761.544 184.852 697.387 179.904C616.8 173.687 529.857 187.883 438.967 222.094C393.504 239.206 347.868 260.775 310.466 282.828C282.224 299.479 259.573 318.214 235.592 338.051C232.752 340.4 229.905 342.756 227.036 345.116C221.305 349.84 214.487 355.441 207.349 361.171C194.129 371.809 176.117 385.328 153.964 395.498C129.969 406.515 104.87 412.131 77.2325 412.661C54.5155 413.043 29.4463 410.685 0.58844 405.448C-24.1877 400.953 -48.1541 395.079 -74.6743 388.425C-98.8824 382.277 -124.432 375.927 -147.354 371.733C-215.252 359.308 -286.971 348.428 -360.516 339.389L-360.252 338.421C-286.664 347.462 -214.904 358.352 -146.969 370.781C-123.985 374.988 -98.3988 381.348 -74.1613 387.501C-29.7094 398.657 25.6137 412.545 77.1922 411.675C136.161 410.542 174.058 386.427 206.224 360.535C213.358 354.811 220.173 349.212 225.9 344.49C228.769 342.13 231.616 339.774 234.452 337.428C258.473 317.559 281.165 298.791 309.499 282.086C346.978 259.989 392.701 238.378 438.252 221.234C529.417 186.92 616.661 172.686 697.555 178.926C728.571 181.319 759.037 186.875 788.101 195.441C819.285 204.63 849.63 217.516 878.294 233.733C907.533 250.31 935.567 268.24 962.677 285.58C965.568 287.431 968.455 289.277 971.338 291.122C1029.55 328.394 1084.53 363.598 1148.57 390.887C1171.86 400.815 1196.33 410.31 1221.32 419.105C1252.5 430.031 1283.47 439.627 1313.37 447.624C1360.37 460.191 1418.86 475.832 1476.69 466.761C1508.02 461.847 1531.91 450.936 1549.73 433.405C1584.05 399.921 1590.16 348.771 1595.07 307.672C1596.83 292.973 1598.49 279.09 1601.24 267.863C1601.81 265.546 1602.38 263.217 1602.95 260.876C1608.08 239.731 1613.4 217.863 1622.63 196.523C1635.82 165.828 1662.2 124.207 1713.06 100.235C1727.25 93.5475 1742.05 88.4021 1758.32 84.5037C1780.93 79.0356 1806.13 76.4654 1833.21 76.8597C1857.93 77.2194 1884.33 80.0459 1911.67 85.2578C1958.05 94.097 2002.4 110.156 2039.92 131.699C2081.93 155.769 2117.33 186.567 2145.14 223.233C2157.9 240.056 2168.94 258.043 2177.97 276.692C2186.62 294.553 2193.45 313.069 2198.26 331.726L2196.82 331.893C2175.84 250.596 2118.3 177.901 2038.97 132.448C2001.61 110.999 1957.45 95.0063 1911.27 86.2016C1854.32 75.3442 1801.61 75.078 1758.81 85.4278C1742.66 89.2967 1727.97 94.4026 1713.9 101.039C1663.39 124.846 1637.15 166.252 1624.04 196.794C1614.83 218.078 1609.52 239.913 1604.39 261.032C1603.82 263.373 1603.25 265.704 1602.69 268.02C1599.94 279.205 1598.29 293.072 1596.53 307.749C1591.6 348.965 1585.47 400.263 1550.93 433.962C1542.34 442.412 1532.07 449.484 1520.41 454.977C1507.86 460.886 1493.26 465.174 1477.02 467.722C1465.3 469.555 1453.16 470.477 1440.44 470.477Z" fill="#FF0000"/>
<path d="M1460.27 475.275C1442.77 475.275 1424.24 473.373 1404.27 469.553C1376.01 464.149 1348.88 455.709 1324.95 448.265C1294.71 438.856 1263.71 427.903 1232.81 415.715C1207.97 405.882 1183.62 395.357 1160.44 384.438C1103.36 357.559 1054.59 324.629 1002.94 289.765C994.499 284.065 985.768 278.173 977.106 272.38C946.658 252.025 920.658 235.241 892.749 219.497C836.507 187.814 774.182 170.646 707.5 168.468C623.711 165.73 533.961 185.74 440.748 227.94C394.442 248.905 348.847 274.607 312.365 300.314C284.881 319.681 263.395 340.762 240.649 363.081C237.831 365.846 235.002 368.621 232.155 371.398C227.084 376.353 220.372 382.884 213.443 389.431C184.285 417.05 146.19 445.485 84.7408 446.939C82.8245 446.981 80.9009 447.001 78.981 447.001C30.9969 447.001 -17.9911 434.228 -68.1075 419.968L-71.2366 419.071C-96.0604 411.944 -119.51 405.214 -141.216 400.316C-223.015 381.853 -302.125 366.27 -361.907 354.757L-361.479 353.749C-301.682 365.267 -222.55 380.853 -140.721 399.322C-118.957 404.234 -95.4815 410.973 -70.6248 418.107L-67.4993 419.004C-15.5471 433.787 35.1886 446.973 84.6859 445.894C145.454 444.455 183.23 416.239 212.172 388.827C219.097 382.285 225.802 375.759 230.873 370.806C233.72 368.027 236.545 365.254 239.363 362.489C262.145 340.136 283.664 319.02 311.236 299.592C347.792 273.831 393.479 248.077 439.876 227.07C482.939 207.573 526.017 192.602 567.912 182.571C615.98 171.06 662.971 165.964 707.573 167.42C774.599 169.609 837.24 186.861 893.746 218.691C921.695 234.46 947.721 251.261 978.198 271.633C986.864 277.426 995.595 283.321 1004.04 289.021C1055.63 323.85 1104.37 356.748 1161.33 383.573C1184.48 394.48 1208.79 404.988 1233.59 414.805C1264.45 426.979 1295.4 437.915 1325.6 447.309C1373.01 462.057 1432.01 480.411 1490.73 472.148C1522.82 467.631 1546.87 456.655 1564.23 438.595C1598.11 403.586 1600.15 349.557 1601.79 306.145C1602.32 291.98 1602.83 278.599 1604.45 267.818L1604.48 267.572C1608.11 243.43 1611.85 218.467 1620.45 193.837C1627.89 172.354 1638.25 153.039 1651.25 136.425C1665.91 117.695 1683.98 102.357 1704.96 90.8369C1719 83.1287 1733.86 77.0051 1750.37 72.1185C1794.99 58.8387 1849.66 56.7885 1908.49 66.1945C1932.16 69.9796 1955.51 75.7138 1977.9 83.2347C2000.41 90.7999 2021.49 100.024 2040.54 110.644C2083.57 134.599 2119.24 165.688 2146.56 203.048C2171.12 236.629 2188.26 274.935 2196.14 313.823L2194.6 313.964C2177.74 230.732 2121.23 156.918 2039.54 111.45C2001.35 90.1543 1955.9 74.8563 1908.13 67.2196C1849.64 57.8678 1795.31 59.8959 1751.01 73.0845C1734.62 77.9341 1719.89 84.0085 1705.95 91.655C1666.77 113.165 1637.73 148.584 1621.97 194.081C1613.4 218.647 1609.66 243.575 1606.04 267.683L1606 267.929C1604.39 278.671 1603.88 292.032 1603.35 306.177C1601.7 349.722 1599.66 403.913 1565.53 439.169C1557.16 447.878 1546.96 455.103 1535.23 460.643C1522.58 466.616 1507.72 470.832 1491.04 473.181C1481.11 474.575 1470.88 475.275 1460.27 475.275Z" fill="#FF0000"/>
<path d="M85.8798 481.309C64.4233 481.309 41.0578 478.497 14.6879 472.756C-11.5135 467.051 -37.4256 459.175 -61.5275 451.516C-65.8914 450.121 -70.2222 448.729 -74.5238 447.347C-95.9363 440.464 -116.162 433.964 -135.064 428.9C-210.437 408.715 -282.281 390.573 -351.762 373.033L-363.274 370.125L-362.696 369.088L-351.183 371.995C-281.699 389.541 -209.843 407.682 -134.456 427.872C-115.502 432.948 -95.2512 439.456 -73.813 446.349C-69.515 447.731 -65.1842 449.124 -60.824 450.516C-11.3487 466.238 41.2154 481.474 92.1966 480.116C154.866 478.362 192.422 445.528 218.136 417.123C224.724 409.858 231.07 402.618 235.863 397.123C238.508 394.095 241.135 391.069 243.755 388.05C265.483 363.026 286.005 339.389 312.994 317.102C348.62 287.689 394.262 257.788 441.521 232.911C485.365 209.831 529.608 191.596 573.026 178.713C622.828 163.935 671.471 156.266 717.605 155.919C787.024 155.224 851.499 171.286 909.215 203.653C941.209 221.618 969.895 241.051 993.74 257.692C1006.71 266.748 1019.69 276.031 1032.24 285.008C1076.66 316.789 1122.59 349.65 1174.1 376.266C1197.11 388.158 1221.27 399.681 1245.88 410.511C1276.35 423.885 1307.29 436.162 1337.85 446.999C1385.61 463.939 1445.05 485.02 1504.77 477.539C1537.64 473.421 1561.84 462.381 1578.74 443.788C1612.18 407.192 1609.92 350.204 1608.1 304.414C1607.57 290.873 1607.06 278.081 1607.67 267.783C1609.04 244.567 1611.11 217.586 1618.28 191.16C1624.33 168.767 1633.45 148.509 1645.4 130.949C1658.92 111.084 1676.25 94.431 1696.89 81.4494C1710.57 72.8467 1725.9 65.5452 1742.45 59.7444C1766.06 51.4399 1792.57 46.2182 1821.22 44.2271C1848.06 42.3617 1876.35 43.3424 1905.32 47.1398C1929.74 50.3433 1953.82 55.6119 1976.88 62.8025C2000.08 70.0375 2021.71 79.0517 2041.17 89.5937C2063.6 101.733 2084.22 116.067 2102.47 132.2C2119.75 147.486 2135.07 164.534 2148 182.868C2172.19 217.167 2188.11 256.265 2194.03 295.927L2192.39 296.038C2179.67 210.866 2124.18 135.936 2040.13 90.4586C2001.64 69.6063 1953.66 54.6089 1905 48.229C1844.84 40.341 1788.9 44.6633 1743.21 60.7276C1726.79 66.4816 1711.58 73.7265 1698.01 82.2601C1659.12 106.72 1632.83 143.425 1619.9 191.359C1612.75 217.714 1610.68 244.648 1609.31 267.827C1608.71 278.088 1609.21 290.86 1609.75 304.384C1610.64 326.974 1611.66 352.58 1608.26 377.333C1604.31 406.056 1595.12 427.983 1580.15 444.367C1572 453.332 1561.88 460.713 1550.07 466.302C1537.32 472.339 1522.18 476.486 1505.08 478.628C1496.45 479.71 1487.83 480.2 1479.26 480.2C1427.93 480.2 1378.2 462.561 1337.08 447.978C1306.48 437.123 1275.49 424.829 1244.99 411.435C1220.33 400.59 1196.14 389.05 1173.1 377.141C1121.48 350.47 1075.5 317.575 1031.04 285.764C1018.49 276.79 1005.52 267.509 992.557 258.458C968.744 241.837 940.099 222.431 908.163 204.501C850.759 172.306 786.661 156.338 717.631 157.023C609.223 157.841 508.199 199.213 442.539 233.779C395.376 258.606 349.825 288.443 314.277 317.797C287.368 340.017 266.875 363.617 245.181 388.602C242.561 391.621 239.93 394.647 237.285 397.678C232.488 403.175 226.139 410.42 219.547 417.692C208.753 429.617 191.807 446.975 169.361 459.986C158.46 466.304 146.86 471.27 134.882 474.747C121.527 478.623 107.186 480.801 92.2662 481.218C90.1521 481.279 88.0233 481.309 85.8798 481.309Z" fill="#FF0000"/>
<path d="M92.7689 515.619C71.2867 515.619 47.9689 512.591 21.7381 506.41C-5.41959 500.013 -32.2696 491.019 -54.9499 483.062C-61.9189 480.612 -68.8731 478.128 -75.6003 475.726C-94.4041 469.011 -112.167 462.665 -128.915 457.485C-189.06 438.88 -248.813 420.717 -306.602 403.149C-325.717 397.338 -345.481 391.331 -364.637 385.495L-363.919 384.428C-344.763 390.264 -324.999 396.271 -305.884 402.082C-248.095 419.65 -188.335 437.816 -128.186 456.423C-111.394 461.618 -93.609 467.968 -74.7832 474.693C-68.0598 477.096 -61.1054 479.577 -54.1438 482.027C-7.10507 498.522 47.4559 515.984 99.7012 514.34C163.847 512.275 199.876 476.423 224.102 445.421C230.313 437.478 236.318 429.504 240.854 423.444C243.184 420.335 245.5 417.227 247.812 414.127C268.594 386.244 288.222 359.909 314.757 334.619C349.269 301.726 394.875 267.683 443.167 238.76C510.42 198.654 614.364 149.734 727.634 144.429C799.669 140.964 865.969 155.833 924.685 188.627C951.066 203.369 977.154 220.372 1009.28 243.765C1025.52 255.586 1041.63 267.838 1057.21 279.683C1097.74 310.504 1139.65 342.374 1186.88 368.975C1209.75 381.865 1233.74 394.401 1258.17 406.234C1287.76 420.549 1318.68 434.166 1350.09 446.709C1398.34 465.859 1458.38 489.695 1518.82 482.948C1551.95 479.326 1576.99 467.904 1593.25 449.004C1626.22 410.751 1619.15 348.169 1613.98 302.475C1612.53 289.651 1611.16 277.54 1610.89 267.769C1610.29 246.054 1610.34 217.422 1616.12 188.504C1626.09 138.394 1650.55 99.2225 1688.81 72.0839C1702.22 62.5226 1717.61 54.2157 1734.52 47.3922C1758.59 37.6733 1785.74 31.1357 1815.23 27.9642C1843.02 24.9776 1872.26 25.0244 1902.14 28.1047C1927.36 30.7611 1952.16 35.5762 1975.85 42.412C1999.78 49.3168 2021.96 58.1141 2041.8 68.56C2064.73 80.6299 2085.68 95.0136 2104.06 111.315C2121.49 126.763 2136.75 144.052 2149.44 162.706C2173.26 197.728 2187.95 237.614 2191.92 278.052L2190.18 278.129C2181.62 191.013 2127.15 114.964 2040.73 69.4841C2001.55 48.8511 1952.23 34.5659 1901.88 29.2629C1839.81 22.8682 1782.25 29.4846 1735.42 48.3977C1718.64 55.1644 1703.39 63.4048 1690.08 72.8897C1652.07 99.8484 1627.77 138.798 1617.85 188.662C1612.09 217.501 1612.04 246.076 1612.63 267.749C1612.91 277.485 1614.27 289.582 1615.72 302.389C1618.39 326.009 1621.42 352.783 1619.69 378.921C1617.67 409.356 1609.52 432.473 1594.76 449.593C1586.82 458.826 1576.78 466.367 1564.91 472.005C1552.05 478.118 1536.64 482.189 1519.11 484.107C1491.92 487.14 1462.66 484.415 1429.65 475.773C1400.96 468.259 1373.47 457.347 1349.21 447.722C1317.76 435.162 1286.79 421.525 1257.16 407.19C1232.69 395.34 1208.67 382.787 1185.76 369.879C1138.44 343.224 1096.48 311.319 1055.9 280.467C1040.33 268.624 1024.23 256.379 1008.01 244.568C975.934 221.217 949.894 204.246 923.575 189.539C865.207 156.932 799.328 142.152 727.751 145.594C614.969 150.88 511.369 199.65 444.317 239.635C396.121 268.498 350.61 302.47 316.172 335.294C289.71 360.513 270.111 386.811 249.362 414.652C247.05 417.755 244.734 420.862 242.404 423.972C237.864 430.036 231.855 438.018 225.637 445.968C201.198 477.246 164.807 513.419 99.7782 515.511C97.4662 515.582 95.1248 515.619 92.7689 515.619Z" fill="#FF0000"/>
<path d="M99.7962 549.924C41.0986 549.924 -20.49 525.678 -75.0876 504.182C-91.8651 497.578 -107.712 491.339 -122.771 486.063L-366 400.857L-365.154 399.765L-121.925 484.971C-106.825 490.259 -90.9601 496.506 -74.1606 503.12C-17.4525 525.446 46.8254 550.752 107.205 548.558C172.765 546.18 207.302 507.309 230.067 473.715C237.512 462.726 244.701 451.546 251.655 440.733C270.675 411.162 290.34 380.584 316.512 352.124C337.294 329.527 363.111 305.829 391.17 283.594C421.952 259.2 454.91 236.82 489.121 217.077C526.842 195.31 565.197 177.304 603.116 163.561C645.058 148.361 686.377 138.438 725.934 134.064C805.176 125.303 877.247 138.598 940.14 173.583C992.407 202.653 1036.83 238.602 1079.79 273.367C1117.19 303.628 1155.85 334.916 1199.64 361.663C1250.21 392.555 1304.95 421.064 1362.33 446.393C1410.68 467.736 1470.85 494.301 1532.86 488.33C1585.24 483.288 1615.52 459.72 1625.43 416.276C1633.87 379.322 1625.84 335.486 1619.4 300.264C1617.2 288.261 1615.13 276.923 1614.11 267.729C1608.49 217.045 1612.07 175.204 1625.06 139.82C1633.16 117.743 1645.12 98.0638 1660.6 81.3291C1677.89 62.6354 1700.09 47.0516 1726.59 35.0113C1749.5 24.595 1775.33 17.0298 1803.36 12.5252C1830.04 8.23741 1858.12 6.80076 1886.84 8.25466C1943.32 11.1132 1998.57 25.0509 2042.41 47.4976C2065.84 59.496 2087.12 73.9315 2105.65 90.4C2123.21 106.008 2138.42 123.542 2150.86 142.516C2174.3 178.26 2187.76 218.937 2189.79 260.146L2187.96 260.188C2183.64 172.432 2128.81 93.2881 2041.3 48.4809C1948.36 0.896446 1816.43 -4.34005 1727.6 36.034C1639.61 76.0286 1603.08 151.787 1615.93 267.638C1616.94 276.802 1619.02 288.125 1621.21 300.114C1627.67 335.412 1635.71 379.342 1627.24 416.463C1622.62 436.682 1613.35 452.931 1599.67 464.762C1591.97 471.413 1582.7 476.849 1572.1 480.915C1560.82 485.242 1547.7 488.148 1533.12 489.552C1527.16 490.126 1521.09 490.415 1514.93 490.415C1492.45 490.415 1468.52 486.593 1442.29 478.85C1412.74 470.127 1384.23 457.539 1361.32 447.426C1303.86 422.059 1249.05 393.513 1198.4 362.577C1154.51 335.774 1115.81 304.449 1078.37 274.156C1035.47 239.435 991.099 203.531 938.964 174.534C876.492 139.788 804.915 126.58 726.22 135.281C567.032 152.881 403.053 260.361 318.058 352.775C291.956 381.155 272.317 411.692 253.322 441.224C246.364 452.042 239.172 463.229 231.719 474.227C216.605 496.531 201.678 512.502 184.743 524.483C174.172 531.959 162.704 537.854 150.657 542.001C137.261 546.612 122.671 549.234 107.289 549.793C104.805 549.879 102.302 549.924 99.7962 549.924Z" fill="#FF0000"/>
</g>
</svg>
