<svg xmlns="http://www.w3.org/2000/svg" width="9" height="18" fill="none"><path fill="#F7F7EE" d="M2.506 10.075H.439C.104 10.075 0 9.95 0 9.637V7.11c0-.334.125-.438.439-.438h2.067V4.834c0-.835.146-1.629.564-2.36A3.465 3.465 0 0 1 4.928.93 4.646 4.646 0 0 1 6.536.658h2.046c.293 0 .418.125.418.417v2.38c0 .293-.125.419-.418.419-.563 0-1.127 0-1.691.02-.564 0-.856.272-.856.857-.021.626 0 1.232 0 1.879h2.422c.334 0 .46.125.46.46v2.526c0 .334-.105.439-.46.439H6.035v6.807c0 .355-.105.48-.48.48h-2.61c-.314 0-.44-.125-.44-.438v-6.829Z"/></svg>