<svg width="22" height="20" viewBox="0 0 22 20" fill="none" xmlns="http://www.w3.org/2000/svg">
<path fill-rule="evenodd" clip-rule="evenodd" d="M21.0669 10.2273C21.0669 9.51825 21.0004 8.83643 20.8769 8.18188H11.0349V12.0501H16.6589C16.4167 13.3001 15.6804 14.3592 14.5737 15.0682V17.5773H17.9509C19.9269 15.8364 21.0669 13.2728 21.0669 10.2273Z" fill="#4285F4"/>
<path fill-rule="evenodd" clip-rule="evenodd" d="M11.0349 19.9999C13.8564 19.9999 16.2219 19.1044 17.9509 17.5772L14.5737 15.0681C13.6379 15.6681 12.4409 16.0226 11.0349 16.0226C8.31316 16.0226 6.00941 14.2635 5.18766 11.8999H1.69641V14.4908C3.41591 17.759 6.94991 19.9999 11.0349 19.9999Z" fill="#34A853"/>
<path fill-rule="evenodd" clip-rule="evenodd" d="M5.18771 11.8999C4.97871 11.2999 4.85996 10.659 4.85996 9.99994C4.85996 9.34085 4.97871 8.69994 5.18771 8.09994V5.50903H1.69646C0.988711 6.85903 0.584961 8.38631 0.584961 9.99994C0.584961 11.6136 0.988711 13.1409 1.69646 14.4909L5.18771 11.8999Z" fill="#FBBC05"/>
<path fill-rule="evenodd" clip-rule="evenodd" d="M11.0349 3.97727C12.5692 3.97727 13.9467 4.48182 15.0297 5.47273L18.0269 2.60455C16.2172 0.990909 13.8517 0 11.0349 0C6.94991 0 3.41591 2.24091 1.69641 5.50909L5.18766 8.1C6.00941 5.73636 8.31316 3.97727 11.0349 3.97727Z" fill="#EA4335"/>
</svg>
