<svg xmlns="http://www.w3.org/2000/svg" width="1920" height="613" fill="none"><g fill="red" opacity=".3"><path d="M648.673 612.559c-9.471 0-18.69-.5-27.549-1.498-18.581-2.095-35.746-6.395-51.022-12.782-16.418-6.863-30.818-16.215-42.803-27.795-24.087-23.274-36.138-51.147-47.793-78.104-2.29-5.293-4.657-10.766-7.061-16.076-16.4-36.195-37.19-67.9-63.553-96.926-52.589-57.902-126.548-107.318-213.883-142.904-101.003-41.152-209.597-61.652-305.781-57.722-56.532 2.312-131.227 24.29-164.61 61.825-19.811 22.277-21.409 46.998-4.617 71.488l-.333.103c-8.805-12.843-12.641-25.719-11.399-38.269 1.14-11.513 6.533-22.767 16.034-33.45 15.11-16.991 40.029-32.05 72.064-43.55 29.601-10.626 62.57-17.159 92.839-18.396 50.336-2.055 103.871 2.506 159.117 13.561 50.08 10.022 99.497 24.891 146.876 44.196 87.387 35.606 161.39 85.048 214.009 142.985 26.377 29.046 47.178 60.768 63.589 96.982 2.407 5.311 4.774 10.786 7.06 16.079 11.645 26.937 23.688 54.79 47.743 78.031 23.262 22.478 54.751 36.096 93.586 40.472 53.78 6.062 119.088-6.616 174.693-33.918 80.132-39.341 135.745-96.605 189.529-151.981 9.428-9.707 19.172-19.744 28.822-29.436 25.06-25.167 58.99-57.779 99.32-86.832 41.22-29.697 83.1-51.515 128.05-66.704 27.52-9.298 56.68-15.562 86.67-18.618 27.7-2.824 57.03-2.999 87.16-.525 51.68 4.246 107.35 16.24 170.21 36.663 123.78 40.219 247.41 89.036 367.48 145.097 114.13 53.284 226.06 113.579 332.68 179.204l-.25.183c-221.02-136.039-456.56-245.135-700.07-324.262-137.57-44.704-246.79-50.273-343.71-17.523-98.6 33.316-167.48 93.441-227.23 153.453-9.65 9.689-19.397 19.726-28.824 29.433-53.799 55.396-109.43 112.677-189.617 152.046-25.912 12.722-55.063 22.646-84.298 28.696-15.444 3.196-30.796 5.285-45.635 6.212-5.914.377-11.751.562-17.493.562Z"/><path d="M657.934 598.757c-24.153 0-46.526-3.093-66.52-9.197-22.296-6.806-41.536-17.353-57.188-31.345a133.002 133.002 0 0 1-4.086-3.812c-23.831-23.174-36.417-50.684-48.585-77.291-2.462-5.377-5.005-10.938-7.584-16.335-15.364-32.134-33.863-60.455-56.562-86.579a386.601 386.601 0 0 0-8.61-9.578c-53.363-57.404-127.922-106.194-215.617-141.095-101.732-40.45-210.634-60.102-306.646-55.334-56.122 2.816-130.472 25.155-163.998 62.402-20.075 22.303-22.347 47.074-6.577 71.635l-.337.099c-8.266-12.874-11.662-25.774-10.09-38.339 1.443-11.54 7.056-22.819 16.689-33.523 15.264-16.962 40.11-32.038 71.844-43.598 29.331-10.685 62.157-17.405 92.436-18.923 50.274-2.496 103.868 1.629 159.29 12.26 50.2 9.63 99.852 24.135 147.572 43.109 87.746 34.921 162.346 83.74 215.742 141.176a387.106 387.106 0 0 1 8.614 9.586c22.713 26.141 41.224 54.477 56.594 86.628 2.583 5.397 5.126 10.958 7.588 16.338 12.165 26.589 24.74 54.08 48.538 77.222a135.073 135.073 0 0 0 4.078 3.804c32.346 28.923 76.79 40.69 123.528 40.69h.766c-.293-.003-.586 0-.879 0Zm9.97-.173c43.451-1.5 88.288-12.73 126.753-29.435 82.972-36.182 142.604-92.066 200.275-146.109a4978.81 4978.81 0 0 1 7.128-6.674 3320.17 3320.17 0 0 1 17.7-16.478c28.3-26.113 62.56-56.497 102.01-83.845 41.97-29.101 83.91-50.695 128.2-66.02 27.21-9.406 55.97-16.032 85.47-19.694 27.34-3.393 56.23-4.352 85.86-2.851 51.19 2.595 106.23 12.432 168.27 30.076 60.49 17.176 110.21 33.343 156.48 50.881 65.54 24.869 127.97 53.524 180.4 78.272 121.89 57.702 241.48 123.224 355.46 194.746l-.25.18c-113.97-71.512-233.55-137.029-355.42-194.724-52.42-24.746-114.84-53.395-180.37-78.257-46.25-17.533-95.96-33.696-156.44-50.867-135.14-38.437-242.96-40.834-339.29-7.54-99.99 34.593-171.19 95.457-230.08 149.791-6.32 5.823-12.49 11.597-17.71 16.478-2.372 2.221-4.746 4.446-7.121 6.673-57.69 54.061-117.344 109.964-200.374 146.174-20.588 8.94-42.496 16.042-65.117 21.106-21.057 4.709-41.814 7.432-61.834 8.117Z"/><path d="M668.145 585.267c-2.905 0-5.793-.042-8.658-.128-24.131-.717-46.463-4.44-66.374-11.072-21.775-7.252-40.641-17.993-56.07-31.929a144.996 144.996 0 0 1-4.056-3.817c-23.564-23.06-36.673-50.204-49.347-76.45-2.642-5.471-5.375-11.129-8.145-16.619-16.122-32.025-35.109-60.12-58.053-85.891a396.624 396.624 0 0 0-8.743-9.497C354.563 292.96 279.403 244.796 191.35 210.58c-102.457-39.748-211.667-58.555-307.511-52.949-53.963 3.206-128.098 24.271-163.346 62.939-20.364 22.341-23.328 47.178-8.573 71.825l-.341.092c-7.731-12.913-10.681-25.843-8.775-38.43 1.751-11.577 7.599-22.885 17.378-33.615 15.426-16.922 40.191-32.003 71.621-43.617 29.055-10.736 61.731-17.639 92.003-19.438 50.216-2.934 103.868.752 159.462 10.959 50.326 9.241 100.208 23.378 148.265 42.022 88.105 34.239 163.305 82.429 217.474 139.365a393.285 393.285 0 0 1 8.746 9.505c22.955 25.786 41.953 53.898 58.082 85.94 2.77 5.493 5.504 11.151 8.145 16.621 12.671 26.232 25.77 53.356 49.304 76.389a138.696 138.696 0 0 0 4.048 3.81c62.695 56.623 173.803 50.544 256.101 19.403 86.434-32.993 150.668-87.83 212.787-140.86l.64-.545c6.01-5.14 12.24-10.453 18.43-15.7 65.34-55.346 137.16-112.226 233.04-146.195 26.92-9.517 55.29-16.506 84.3-20.771 26.98-3.968 55.44-5.71 84.56-5.178 50.78.927 105.18 8.61 166.32 23.489 64.25 15.582 112.61 29.904 156.78 46.441 62.94 23.61 123.9 53.445 177.69 79.768 119.76 58.922 237.53 125.299 350.05 197.281l-.26.178c-112.5-71.976-230.26-138.345-350.01-197.262-53.78-26.318-114.73-56.148-177.65-79.75-44.16-16.533-92.49-30.85-156.72-46.426-132.53-32.252-238.94-31.476-334.89 2.444-95.82 33.947-167.61 90.802-232.93 146.129-6.19 5.247-12.41 10.562-18.43 15.7l-.63.545c-30.961 26.426-62.969 53.752-97.536 78.16-38.846 27.43-76.582 47.959-115.365 62.762-40.576 15.352-84.775 23.656-125.464 23.656Z"/><path d="M2273.89 576.986c-111.04-72.439-226.98-139.661-344.6-199.798-4.98-2.528-9.97-5.069-14.98-7.617-50.94-25.929-103.62-52.739-159.95-73.626-54.65-20.207-110.04-32.563-157.01-41.984-129.66-26.165-234.66-22.215-330.47 12.428-98.34 35.667-174.55 94.885-235.78 142.469-3.67 2.857-7.34 5.718-11.01 8.581-2.72 2.114-5.43 4.229-8.15 6.34-34.859 27.122-66.572 51.37-101.611 73.496-40.029 25.276-78.611 43.787-117.959 56.594-36.875 12.003-76.267 18.354-112.907 18.356-6.676 0-13.253-.209-19.716-.636-23.596-1.555-45.441-5.924-64.927-12.986-21.262-7.706-39.754-18.652-54.971-32.536a149.82 149.82 0 0 1-4.027-3.824c-23.285-22.94-36.904-49.701-50.072-75.581-2.836-5.574-5.771-11.34-8.739-16.936-16.891-31.925-36.369-59.795-59.54-85.206a402.083 402.083 0 0 0-8.875-9.416c-54.912-56.404-130.67-103.942-219.079-137.475-103.182-39.046-212.696-57.003-308.371-50.566-65.407 4.487-132.29 30.574-162.65 63.434-20.683 22.388-24.351 47.304-10.614 72.055l-.345.086c-7.192-12.96-9.699-25.929-7.449-38.548 2.07-11.619 8.16-22.965 18.097-33.723 15.586-16.873 40.271-31.954 71.386-43.61 28.777-10.781 61.284-17.863 91.538-19.938 50.157-3.376 103.864-.126 159.63 9.657 50.447 8.852 100.567 22.624 148.961 40.936 88.465 33.553 164.262 81.118 219.208 137.556a400.09 400.09 0 0 1 8.878 9.421c23.186 25.426 42.671 53.311 59.573 85.25 2.968 5.599 5.903 11.363 8.739 16.94 13.161 25.864 26.773 52.609 50.028 75.521a155.614 155.614 0 0 0 4.02 3.817c65.45 59.718 176.694 52.259 252.066 27.728 89.926-29.27 158.741-82.799 219.458-130.028 2.71-2.115 5.43-4.229 8.14-6.341 3.67-2.863 7.34-5.724 11.02-8.58 34.95-27.161 69.46-53.555 107.41-77.877 43.63-27.972 85.66-49.118 128.47-64.647 26.64-9.633 54.6-16.984 83.11-21.846 26.65-4.546 54.66-7.07 83.27-7.503 50.45-.764 104.22 4.766 164.37 16.902 46.99 9.426 102.4 21.786 157.08 42.005 56.35 20.895 109.04 47.713 160 73.646 5 2.548 10 5.089 14.98 7.617 117.62 60.143 233.58 127.372 344.63 199.818l-.26.175Z"/><path d="M2270.01 574.667c-111.68-74.287-225.79-142.364-339.19-202.336-6.78-3.588-13.72-7.287-20.44-10.863-48.07-25.608-97.78-52.089-151.77-71.874-53.92-19.687-109.77-30.027-157.3-37.543-126.5-20.199-230.11-13.077-326.05 22.412-91.51 33.975-163.21 85.063-232.54 134.469l-7.62 5.424c-6.01 4.285-12.23 8.713-18.36 13.058-69.4 49.122-138.877 95.161-225.608 118.709a390.175 390.175 0 0 1-64.238 11.777c-23.175 2.255-45.686 2.287-66.912.094-23.054-2.383-44.404-7.388-63.457-14.877-20.735-8.149-38.857-19.295-53.858-33.124a161.093 161.093 0 0 1-3.997-3.832c-22.999-22.804-37.109-49.172-50.754-74.672-3.045-5.689-6.196-11.574-9.376-17.289-17.676-31.825-37.637-59.471-61.028-84.518a402.48 402.48 0 0 0-9.007-9.334c-55.685-55.904-132.04-102.816-220.812-135.667-103.912-38.338-213.733-55.45-309.243-48.178-64.81 5.04-131.389 31.308-161.903 63.883-21.027 22.444-25.421 47.456-12.706 72.333l-.349.081c-6.653-13.016-8.709-26.035-6.111-38.691 2.396-11.668 8.739-23.058 18.851-33.851 15.756-16.816 40.352-31.882 71.137-43.573 28.492-10.82 60.823-18.072 91.037-20.423 50.098-3.815 103.86-1.003 159.802 8.356 50.571 8.462 100.922 21.868 149.657 39.849 88.824 32.868 165.222 79.809 220.941 135.745a411.086 411.086 0 0 1 9.01 9.339c23.405 25.059 43.378 52.72 61.061 84.563 3.18 5.715 6.331 11.602 9.376 17.292 13.637 25.485 27.74 51.84 50.714 74.617a168.217 168.217 0 0 0 3.99 3.824c63.875 58.888 170.007 57.235 248.032 36.05 86.662-23.529 156.109-69.551 225.481-118.651 6.13-4.344 12.35-8.773 18.36-13.058l7.62-5.424c34.03-24.25 69.22-49.329 107.44-72.658 43.29-26.421 84.24-46.655 125.19-61.859 26.36-9.754 53.93-17.467 81.92-22.923 26.32-5.13 53.9-8.437 81.97-9.83 50.24-2.491 103.36.885 162.42 10.316 47.55 7.521 103.43 17.863 157.38 37.567 54.03 19.793 103.75 46.281 151.84 71.897a7350.85 7350.85 0 0 0 20.44 10.862c113.4 59.977 227.53 128.059 339.21 202.353l-.25.178Z"/><path d="M2266.12 572.345c-110.71-75.112-223.01-144.042-333.77-204.872-8.32-4.571-16.86-9.324-25.11-13.92-45.48-25.333-92.51-51.527-144.39-70.307-53.66-19.35-109.77-27.592-157.58-33.102-122.99-14.394-225.2-4.098-321.64 32.397-84.16 31.983-153.26 77.31-220.09 121.144-7.03 4.613-14.3 9.382-21.39 14.002-8.32 5.426-14.68 9.549-20.61 13.364-31.771 20.418-69.598 43.929-109.294 63.486-42.067 20.721-82.089 35.063-122.356 43.846-21.175 4.618-42.694 7.531-63.963 8.654-22.838 1.208-44.95.321-65.718-2.639-22.501-3.206-43.353-8.847-61.984-16.764-20.204-8.586-37.949-19.931-52.744-33.716a168.64 168.64 0 0 1-3.968-3.837c-22.695-22.651-37.278-48.612-51.384-73.717-3.272-5.823-6.654-11.843-10.066-17.691-18.47-31.737-38.919-59.156-62.519-83.831a414.399 414.399 0 0 0-9.138-9.253C351.947 250.185 274.992 203.9 185.861 171.732c-104.634-37.634-214.763-53.896-310.105-45.793-54.249 4.711-125.104 26.416-161.107 64.282-21.405 22.513-26.542 47.638-14.85 72.658l-.348.074c-6.116-13.083-7.713-26.158-4.753-38.864 2.734-11.727 9.34-23.166 19.643-34.001 15.924-16.747 40.429-31.789 70.873-43.504 28.206-10.852 60.343-18.27 90.498-20.889 50.04-4.254 103.86-1.881 159.971 7.055 50.692 8.073 101.278 21.113 150.35 38.765 89.182 32.185 166.182 78.498 222.674 133.933a410.62 410.62 0 0 1 9.141 9.261c23.611 24.687 44.071 52.121 62.553 83.873 3.414 5.85 6.796 11.87 10.068 17.693 14.096 25.093 28.675 51.039 51.344 73.666a170.189 170.189 0 0 0 3.965 3.829c53.139 49.517 144.355 66.106 243.998 44.374 90.238-19.68 163.848-63.787 231.514-107.276 5.93-3.814 12.28-7.937 20.6-13.363 7.09-4.621 14.36-9.389 21.39-14.002 32.9-21.579 66.92-43.893 103.21-64.787 41.03-23.63 79.29-42.077 116.97-56.394 26.11-9.882 53.27-17.957 80.73-24 26.01-5.724 53.16-9.812 80.68-12.156 50.11-4.263 102.6-3.043 160.47 3.729 47.83 5.515 103.97 13.76 157.68 33.126 51.91 18.793 98.96 44.995 144.45 70.335a5002.04 5002.04 0 0 0 25.11 13.92c110.77 60.837 223.08 129.772 333.8 204.889l-.26.18Z"/><path d="M2262.24 570.021c-109.76-75.943-220.23-145.727-328.37-207.41-9.2-5.246-18.64-10.754-27.78-16.079-43.53-25.367-88.53-51.596-139-69.642-53.7-19.117-109.93-25.216-157.86-28.661-117.42-8.667-221.19 5.197-317.23 42.382-76.47 29.744-142.02 69.534-205.42 108.015-12.8 7.772-26.04 15.811-38.91 23.472-7.88 4.689-14.85 8.807-21.34 12.587-30.157 17.56-70.275 40.076-113.144 58.477-43.074 18.486-83.814 30.746-124.547 37.476-44.426 7.341-88.765 7.395-128.219.16-21.936-4.024-42.294-10.298-60.508-18.649-19.664-9.017-37.032-20.56-51.626-34.303a182.562 182.562 0 0 1-3.938-3.841c-22.373-22.479-37.41-48.014-51.949-72.705-3.517-5.974-7.152-12.149-10.82-18.149-19.28-31.653-40.216-58.851-64.007-83.144a418.325 418.325 0 0 0-9.27-9.172C351.07 235.932 273.518 190.27 184.028 158.789c-105.356-36.926-215.793-52.34-310.97-43.407-64.501 6.185-128.904 32.158-160.253 64.627-21.816 22.594-27.711 47.85-17.049 73.037l-.351.067c-5.573-13.162-6.709-26.306-3.379-39.066 3.078-11.793 9.967-23.292 20.471-34.174 16.093-16.668 40.502-31.675 70.591-43.4 27.909-10.875 59.845-18.455 89.919-21.338 49.981-4.692 103.86-2.755 160.143 5.754 50.817 7.684 101.637 20.36 151.046 37.679 89.541 31.5 167.138 77.187 224.407 132.125a418.543 418.543 0 0 1 9.273 9.176c23.802 24.308 44.749 51.518 64.04 83.186 3.668 6 7.303 12.178 10.82 18.151 14.532 24.679 29.561 50.202 51.912 72.658a184.622 184.622 0 0 0 3.935 3.837c52.227 49.196 141.933 68.895 239.968 52.698 89.373-14.768 166.984-54.82 237.539-95.899 6.48-3.78 13.46-7.895 21.33-12.584 12.87-7.662 26.11-15.698 38.91-23.47 63.41-38.489 128.98-78.289 205.49-108.044a652.946 652.946 0 0 1 79.55-25.076c25.73-6.329 52.44-11.2 79.38-14.48 50.09-6.099 101.95-7.033 158.52-2.859 47.95 3.448 104.23 9.549 157.99 28.689 50.5 18.058 95.52 44.297 139.07 69.674 9.14 5.325 18.58 10.83 27.78 16.076 108.14 61.688 218.63 131.477 328.39 207.425l-.26.17Z"/><path d="M2258.35 567.7c-108.77-76.781-217.43-147.416-322.95-209.946-9.69-5.746-19.67-11.83-29.31-17.715-41.94-25.581-85.31-52.035-134.76-69.499-53.92-18.955-110.2-22.88-158.14-24.221-112.98-3.391-215.31 13.738-312.81 52.368-68.39 27.22-129.34 61.67-188.3 94.984-20.27 11.456-39.42 22.276-58.89 32.84-7.92 4.301-15.14 8.164-22.06 11.809-44.684 23.497-81.859 40.485-116.997 53.462-44.082 16.281-85.537 26.458-126.735 31.111-15.983 1.804-31.907 2.703-47.541 2.703-27.715 0-54.532-2.819-79.22-8.403-44.679-10.106-81.532-28.753-109.536-55.423a200.202 200.202 0 0 1-3.909-3.849c-22.032-22.284-37.491-47.365-52.44-71.623-3.788-6.146-7.702-12.499-11.648-18.677-20.104-31.579-41.532-58.55-65.494-82.456a422.365 422.365 0 0 0-9.402-9.09c-58.005-54.403-136.159-99.439-226.008-130.237-106.077-36.217-216.819-50.786-311.83-41.023-64.769 6.794-127.314 32.274-159.334 64.916-22.259 22.688-28.935 48.094-19.313 73.473l-.356.062c-5.023-13.253-5.69-26.476-1.978-39.302 3.437-11.873 10.614-23.435 21.343-34.369 16.261-16.577 40.564-31.535 70.287-43.259 27.608-10.892 59.32-18.62 89.296-21.765 49.922-5.13 103.86-3.632 160.312 4.453 50.94 7.297 101.991 19.608 151.741 36.592 89.901 30.817 168.098 75.878 226.14 130.313a431.695 431.695 0 0 1 9.406 9.096c23.977 23.918 45.415 50.904 65.527 82.495 3.946 6.178 7.863 12.533 11.648 18.679 14.942 24.246 30.393 49.317 52.407 71.581a196.944 196.944 0 0 0 3.905 3.844c52.293 49.807 138.288 72.05 235.934 61.022 92.953-10.497 175.284-48.617 243.565-84.523 6.92-3.645 14.14-7.506 22.06-11.806 19.47-10.564 38.62-21.382 58.89-32.839 58.96-33.321 119.93-67.776 188.34-95.006 25.69-10.177 52.05-18.974 78.37-26.15a743.706 743.706 0 0 1 78.08-16.806c50.2-8.011 101.42-11.102 156.57-9.446 47.98 1.341 104.3 5.271 158.29 24.248 49.49 17.477 92.87 43.943 134.83 69.534 9.65 5.884 19.62 11.969 29.31 17.713 105.52 62.535 214.19 133.177 322.97 209.962l-.26.173Z"/><path d="M2254.47 565.382c-109.32-78.718-213.19-148.221-317.54-212.484-9.96-6.131-19.76-12.392-30.14-19.021-40.57-25.914-82.53-52.708-131.21-69.684-54.6-18.947-113.35-20.525-158.43-19.78-107.84 1.547-208.72 21.944-308.4 62.355-59.81 24.364-115.03 53.621-168.43 81.918-28.07 14.872-54.58 28.916-81.61 42.245-8.03 3.96-15.48 7.567-22.79 11.03-45.29 21.429-83.689 36.82-120.849 48.442-45.104 14.105-87.274 22.2-128.919 24.748-21.398 1.308-42.649 1.062-63.164-.732-21.72-1.9-42.627-5.545-62.138-10.83-43.247-11.718-79.224-31.193-106.935-57.888a217.08 217.08 0 0 1-3.88-3.854c-21.662-22.055-37.509-46.658-52.835-70.45-4.089-6.348-8.317-12.912-12.571-19.295-20.948-31.51-42.858-58.257-66.986-81.768a454.296 454.296 0 0 0-9.53-9.009c-58.778-53.903-137.529-98.314-227.738-128.429-83.26-27.681-169.124-42.124-247.86-42.124-22.259 0-43.931 1.154-64.835 3.487-63.988 7.285-126.141 32.856-158.348 65.147-22.731 22.795-30.217 48.373-21.647 73.969l-.359.055c-4.474-13.357-4.66-26.671-.557-39.571 3.804-11.959 11.293-23.598 22.256-34.591 16.429-16.473 40.619-31.369 69.96-43.082 27.697-11.057 58.346-18.723 88.63-22.168 49.863-5.57 103.86-4.507 160.484 3.151 51.061 6.905 102.35 18.849 152.438 35.503 90.259 30.132 169.058 74.568 227.873 128.502a435.561 435.561 0 0 1 9.537 9.015c24.139 23.523 46.061 50.282 67.019 81.807 4.254 6.383 8.486 12.947 12.575 19.298 15.319 23.782 31.158 48.375 52.802 70.413a230.742 230.742 0 0 0 3.876 3.849c51.821 49.918 136.342 75.191 231.904 69.346 96.697-5.917 184.179-42.2 249.597-73.148 7.3-3.463 14.75-7.07 22.78-11.028 27.03-13.324 53.53-27.37 81.6-42.239 53.41-28.3 108.63-57.565 168.46-81.936 51.33-20.806 101.69-35.968 153.97-46.357 50.43-10.02 101.01-15.264 154.62-16.033 30.59-.505 55.55.372 78.54 2.758 29.69 3.08 55.88 8.657 80.06 17.05 48.73 16.991 90.71 43.799 131.3 69.725 10.38 6.629 20.18 12.888 30.13 19.019 104.36 64.265 208.24 133.774 317.56 212.496l-.27.173Z"/><path d="M2250.58 563.059c-108.31-79.58-210.41-149.912-312.13-215.022-10.06-6.442-19.98-13.078-30.48-20.103-39.36-26.323-80.06-53.546-128.15-70.096-55.05-18.858-113.73-18.104-158.71-15.342-101.76 6.035-201.2 29.699-303.99 72.34-50.64 21.111-98.86 45.271-145.49 68.637-36.87 18.469-71.68 35.916-107.4 51.862-8.07 3.608-15.99 7.058-23.52 10.251-45.375 19.231-86.166 33.433-124.701 43.418-46.141 11.956-89.025 17.974-131.102 18.393-21.409.212-42.576-1.089-62.901-3.872-21.306-2.917-41.81-7.479-60.943-13.56-41.763-13.275-76.868-33.578-104.337-60.347a233.688 233.688 0 0 1-3.851-3.861c-21.255-21.787-37.446-45.87-53.106-69.159-4.43-6.59-9.014-13.406-13.619-20.032-21.805-31.451-44.203-57.971-68.474-81.081a453.946 453.946 0 0 0-9.662-8.928c-59.551-53.402-138.903-97.187-229.47-126.62C71.027 85.142-40.334 72.269-135.016 83.688c-63.16 7.75-124.899 33.388-157.285 65.312-23.245 22.915-31.562 48.686-24.058 74.531l-.359.047c-3.914-13.472-3.613-26.89.897-39.879 4.188-12.057 11.996-23.779 23.216-34.839 16.59-16.355 40.659-31.177 69.605-42.865 27.378-11.055 57.778-18.852 87.918-22.55 49.809-6.006 103.86-5.385 160.653 1.85 51.186 6.52 102.706 18.1 153.13 34.418 90.623 29.448 170.018 73.259 229.603 126.694a439.875 439.875 0 0 1 9.669 8.933c24.285 23.122 46.691 49.654 68.506 81.117 4.61 6.627 9.19 13.443 13.623 20.035 15.653 23.279 31.837 47.353 53.077 69.124a249.886 249.886 0 0 0 3.847 3.857c52.367 51.029 133.294 78.619 227.873 77.672 76.743-.764 157.967-20.394 255.621-61.773 7.52-3.194 15.43-6.641 23.5-10.249 35.71-15.944 70.53-33.385 107.38-51.855 46.64-23.368 94.87-47.532 145.53-68.649 51.82-21.5 101.37-37.774 151.49-49.757 50.76-12.139 100.7-19.539 152.66-22.62 45.02-2.767 103.77-3.519 158.91 15.37 48.14 16.569 88.86 43.804 128.24 70.139 10.5 7.026 20.42 13.66 30.48 20.099 101.72 65.112 203.82 135.449 312.14 215.034l-.27.175Z"/><path d="M2246.7 560.739c-107.31-80.445-207.63-151.61-306.72-217.558-10.05-6.695-19.99-13.652-30.5-21.017-38.24-26.794-77.79-54.499-125.41-70.675-55.57-18.789-114.16-15.697-158.99-10.904-95.76 10.042-190.95 36.202-299.58 82.328-40.75 17.378-80.57 36.441-119.07 54.876-46.77 22.39-90.94 43.54-136.68 61.961-8.24 3.321-16.4 6.51-24.24 9.472-46.193 17.432-88.245 29.99-128.561 38.388-22.581 4.704-44.873 8.112-66.256 10.13-22.809 2.152-45.361 2.795-67.03 1.913-43.965-1.792-85.141-9.633-122.382-23.305-40.22-14.765-74.449-35.894-101.735-62.803a316.502 316.502 0 0 1-3.825-3.866c-20.801-21.466-37.282-44.978-53.217-67.713-4.825-6.882-9.812-13.999-14.828-20.924-22.684-31.399-45.569-57.695-69.964-80.393a457.363 457.363 0 0 0-9.794-8.846c-60.325-52.905-140.274-96.064-231.2-124.809C68.483 72.911-43.182 60.886-137.707 73.13c-101.211 13.315-199.835 70.842-182.688 140.568l-.363.039c-4.29-17.442-1.777-34.625 7.468-51.076 8.442-15.024 22.295-29.164 41.176-42.023 17.554-11.956 38.615-22.279 62.592-30.682 22.805-7.991 47.614-13.896 71.742-17.07 49.75-6.444 103.86-6.259 160.825.553 51.311 6.133 103.065 17.348 153.827 33.333 90.977 28.765 170.974 71.949 231.335 124.883a455.56 455.56 0 0 1 9.801 8.851c24.406 22.708 47.303 49.019 69.998 80.43 5.016 6.925 10.003 14.042 14.828 20.927 15.931 22.727 32.405 46.229 53.194 67.682a277.946 277.946 0 0 0 3.818 3.864c52.443 51.715 131.938 82.254 223.839 86 77.802 3.166 163.386-13.317 261.645-50.399 7.84-2.962 15.99-6.148 24.23-9.47 45.73-18.415 89.9-39.563 136.66-61.951 38.51-18.437 78.33-37.503 119.08-54.883 108.68-46.145 203.91-72.316 299.72-82.365 30.12-3.221 55.06-4.251 78.5-3.238 29.95 1.294 56.35 5.927 80.71 14.165 47.67 16.192 87.24 43.915 125.51 70.723 10.51 7.363 20.44 14.32 30.5 21.013 99.09 65.953 199.42 137.12 306.72 217.57l-.26.165Z"/><path d="M2242.81 558.418c-106.28-81.322-204.84-153.315-301.3-220.095-9.98-6.91-19.84-14.147-30.28-21.814-37.21-27.306-75.69-55.544-122.92-71.371-56.78-18.948-118.09-12.765-159.27-6.467-111.77 16.885-211.93 56.141-295.17 92.318-29.91 13.056-59.75 26.885-88.62 40.258-57.89 26.829-112.57 52.168-169.97 72.917-8.45 3.053-16.84 5.978-24.97 8.696-47.09 15.72-90.406 26.631-132.411 33.354-47.617 7.622-93.194 9.539-135.473 5.695-43.434-3.95-84.119-13.768-120.92-29.182-38.601-16.165-71.954-38.119-99.141-65.253a330.522 330.522 0 0 1-3.796-3.874c-20.284-21.071-36.97-43.937-53.11-66.051-5.288-7.247-10.758-14.739-16.254-22.03-23.908-31.794-46.614-57.119-71.452-79.706a455.499 455.499 0 0 0-9.926-8.765c-61.105-52.402-141.655-94.935-232.94-123C65.933 60.68-46.039 49.499-140.402 62.57c-101.574 14.255-198.184 71.002-184.033 141.294l-.363.032c-3.51-17.439-.473-34.605 9.025-51.019 8.705-15.04 22.64-29.194 41.421-42.067 17.514-12.006 38.465-22.405 62.274-30.914 22.669-8.103 47.431-14.177 71.602-17.57 49.695-6.883 103.86-7.134 160.994-.75 51.436 5.747 103.424 16.597 154.523 32.248 91.34 28.08 171.934 70.637 233.068 123.071a474.19 474.19 0 0 1 9.933 8.77c24.853 22.597 47.567 47.937 71.485 79.743 5.496 7.292 10.967 14.785 16.254 22.033 16.136 22.106 32.819 44.965 53.088 66.026a346.715 346.715 0 0 0 3.792 3.872c52.85 52.744 130.912 86.243 219.809 94.326 79.729 7.25 167.284-5.518 267.67-39.026 8.13-2.716 16.53-5.639 24.96-8.692 57.39-20.744 112.06-46.079 169.95-72.904 28.86-13.374 58.7-27.205 88.62-40.263 55.97-24.325 102.53-42.297 146.52-56.557 51.79-16.786 100.45-28.494 148.76-35.793 29.46-4.505 55.13-6.545 78.48-6.235 30.08.4 56.59 4.559 81.04 12.721 47.3 15.847 85.79 44.102 123.02 71.426 10.45 7.663 20.31 14.901 30.28 21.806 96.47 66.783 195.03 138.781 301.32 220.105l-.28.165Z"/><path d="M2238.93 556.094c-105.26-82.202-202.05-155.025-295.89-222.634-9.84-7.09-19.58-14.579-29.89-22.508-36.23-27.856-73.68-56.661-120.59-72.168-57.4-18.903-118.55-10.212-159.56-2.028-101.26 20.037-191.59 58.188-290.75 102.305-17.89 7.987-35.98 16.23-53.47 24.204-67.29 30.665-136.86 62.372-207.98 85.309a988.621 988.621 0 0 1-25.7 7.918c-47.41 13.878-93.254 23.405-136.259 28.316-48.717 5.565-95.03 5.345-137.665-.648-42.825-6.02-83.015-17.816-119.458-35.061-36.878-17.452-69.364-40.229-96.551-67.697a418.529 418.529 0 0 1-3.766-3.879c-19.672-20.579-36.464-42.7-52.703-64.092-5.852-7.709-11.901-15.678-17.98-23.433-24.842-31.761-48.02-56.869-72.943-79.018a472.688 472.688 0 0 0-10.058-8.684C345.85 150.387 264.707 108.48 173.055 81.1 63.387 48.446-48.89 38.114-143.099 52.007c-98.35 14.662-196.743 69.418-185.381 142.019l-.363.025c-2.73-17.44.832-34.586 10.582-50.963 8.965-15.057 22.984-29.224 41.663-42.112 34.464-23.775 83.093-41.712 133.418-49.213 49.637-7.319 103.86-8.009 161.166-2.05 51.56 5.362 103.78 15.845 155.215 31.16 91.703 27.395 172.895 69.329 234.802 121.263a470.452 470.452 0 0 1 10.065 8.689c24.934 22.161 48.123 47.279 72.973 79.052 6.078 7.758 12.131 15.727 17.983 23.435 16.235 21.387 33.023 43.504 52.685 64.073 1.238 1.296 2.506 2.6 3.763 3.876 54.392 54.958 129.006 90.455 215.774 102.655 80.345 11.296 172.429 1.994 273.704-27.651 8.4-2.464 17.04-5.125 25.68-7.913 71.1-22.929 140.66-54.632 207.93-85.292 17.5-7.974 35.59-16.217 53.48-24.203 43.4-19.313 93.91-41.464 144.04-59.958 52.44-19.344 100.46-33.205 146.81-42.377 29.18-5.823 54.85-8.844 78.46-9.234 29.77-.493 57.14 3.302 81.36 11.277 21.01 6.946 42.16 17.313 64.66 31.695 19.86 12.698 38.26 26.847 56.05 40.529 10.3 7.927 20.04 15.416 29.88 22.503 93.85 67.612 190.64 140.437 295.9 222.642l-.27.16Z"/><path d="M2235.04 553.77c-104.22-83.09-199.24-156.743-290.47-225.17-9.67-7.245-19.24-14.96-29.37-23.127-35.28-28.435-71.76-57.838-118.4-73.04-43.58-14.162-95.87-13.373-159.84 2.41-89.45 21.944-169.4 58.649-254.06 97.513-10.54 4.839-21.43 9.842-32.28 14.782-4.25 1.94-8.5 3.884-12.74 5.826-80.66 36.887-164.07 75.031-251.56 100.023a931.062 931.062 0 0 1-26.42 7.139c-48.45 12.304-95.593 20.135-140.103 23.275-49.842 3.514-96.899 1.163-139.856-6.989-42.158-8.001-81.854-21.776-117.985-40.943-35.021-18.578-66.634-42.175-93.964-70.142a444.609 444.609 0 0 1-3.737-3.886c-18.925-19.933-35.662-41.163-51.854-61.692-6.554-8.315-13.337-16.912-20.148-25.281-25.802-31.739-49.45-56.63-74.431-78.331a477.335 477.335 0 0 0-10.19-8.602c-62.651-51.407-144.395-92.69-236.406-119.385C60.847 36.213-51.741 26.726-145.793 41.443c-96.543 15.231-194.797 70.435-186.726 142.745l-.366.02c-1.946-17.442 2.136-34.568 12.139-50.904 9.23-15.073 23.329-29.257 41.909-42.155 34.317-23.825 82.778-42.028 132.96-49.945 49.582-7.758 103.86-8.886 161.334-3.352C67.142 42.825 119.6 52.943 171.373 67.923c92.062 26.713 173.857 68.018 236.534 119.452a477.96 477.96 0 0 1 10.197 8.607c24.992 21.713 48.655 46.611 74.464 78.363 6.815 8.369 13.594 16.969 20.152 25.283 16.184 20.525 32.922 41.749 51.839 61.675a444.048 444.048 0 0 0 3.734 3.884c55.572 56.864 128.79 95.24 211.743 110.981 81.888 15.54 176.002 10.062 279.734-16.278a943.254 943.254 0 0 0 26.4-7.134c87.47-24.983 170.86-63.119 251.5-100.002 4.25-1.944 8.49-3.886 12.74-5.825 10.85-4.941 21.74-9.943 32.28-14.78 84.68-38.871 164.66-75.586 254.14-97.54 28.9-7.131 54.56-11.131 78.44-12.232 29.89-1.378 57.37 1.932 81.69 9.832 20.89 6.809 41.77 17.223 63.85 31.838 19.47 12.895 37.37 27.318 54.67 41.266 10.14 8.164 19.7 15.877 29.36 23.119 91.24 68.43 186.26 142.086 290.48 225.177l-.28.161Z"/><path d="M2231.16 551.45c-95.13-77.426-191.04-154.039-285.07-227.707-9.57-7.457-19.06-15.468-29.1-23.948-32.66-27.585-69.69-58.848-115.94-73.71-44.1-14.137-96.47-11.897-160.13 6.845-75.69 22.213-142.68 54.874-213.59 89.452-22.21 10.828-45.18 22.028-68.34 32.831-40.43 18.899-84.17 38.896-130.02 57.109-49.1 19.507-93.96 34.251-137.14 45.078a881.87 881.87 0 0 1-27.15 6.361c-49.48 10.751-97.895 16.87-143.912 18.186-50.941 1.454-98.742-3.012-142.08-13.283-80.029-19.201-149.975-59.375-207.893-119.409a626.056 626.056 0 0 1-3.708-3.891c-17.964-19.054-34.409-39.154-50.31-58.595-7.486-9.15-15.224-18.612-23.01-27.821-26.784-31.732-50.908-56.404-75.919-77.643a485.818 485.818 0 0 0-10.322-8.522c-63.413-50.911-145.758-91.566-238.128-117.578C58.305 23.983-54.588 15.345-148.485 30.883c-97.13 16.163-192.922 70.635-188.075 143.473l-.366.009c-1.162-17.446 3.448-34.553 13.696-50.847 9.497-15.093 23.677-29.292 42.151-42.2 17.404-12.16 38.032-22.794 61.31-31.606 22.6-8.553 46.551-14.97 71.192-19.07 49.527-8.194 103.864-9.762 161.506-4.653 51.81 4.59 104.498 14.342 156.608 28.987 92.425 26.027 174.818 66.706 238.268 117.642 3.484 2.8 6.961 5.668 10.329 8.527 25.021 21.251 49.156 45.933 75.951 77.675 7.786 9.211 15.525 18.674 23.01 27.826 15.902 19.438 32.343 39.536 50.3 58.582a510.072 510.072 0 0 0 3.704 3.891c57.874 59.987 127.758 100.13 207.71 119.311 82.356 19.517 181.171 17.822 285.761-4.906a886.397 886.397 0 0 0 27.13-6.355c96.55-24.206 184.88-63.74 267.08-102.16 23.16-10.803 46.12-22.001 68.33-32.829 70.93-34.585 137.93-67.254 213.66-89.476 63.75-18.773 116.23-21.013 160.43-6.843 20.72 6.655 41.29 17.089 62.89 31.892 19.04 13.053 36.4 27.713 53.19 41.887 10.04 8.479 19.52 16.488 29.09 23.94 94.03 73.671 189.94 150.284 285.07 227.713l-.28.157Z"/><path d="M2227.27 549.13a38686.17 38686.17 0 0 0-279.65-230.246c-9.27-7.538-18.47-15.69-28.22-24.319-31.86-28.228-67.97-60.224-114.11-74.834-44.62-14.113-97.09-10.422-160.42 11.281-66.34 22.705-127.3 54.765-186.24 85.773-29.56 15.547-60.13 31.623-91.27 46.5-49.16 23.504-90.52 41.433-130.16 56.428-48.89 18.49-94.64 32.26-139.85 42.097a847.753 847.753 0 0 1-27.87 5.581c-48.02 8.766-95.166 13.201-140.271 13.204-2.506 0-4.997-.015-7.489-.042-52.146-.572-100.687-7.181-144.274-19.64-21.039-6.047-41.642-13.723-61.233-22.816-18.416-8.546-36.512-18.613-53.788-29.919-31.082-20.34-60.138-44.873-88.82-74.999a747.912 747.912 0 0 1-3.679-3.898c-16.642-17.775-32.386-36.355-47.61-54.324-8.79-10.372-17.877-21.099-27.029-31.54-28.18-32.168-52.052-55.904-77.41-76.956a494.917 494.917 0 0 0-10.454-8.44c-64.182-50.406-147.125-90.435-239.854-115.764C55.765 11.752-57.435 3.962-151.179 20.32c-95.308 16.678-190.976 71.564-189.419 144.197l-.366.003c-.726-33.832 19.21-66.003 57.649-93.033 17.375-12.217 37.894-22.927 60.992-31.838 22.475-8.669 46.379-15.253 71.052-19.57 49.468-8.633 103.864-10.636 161.675-5.954 51.934 4.206 104.858 13.593 157.301 27.9 92.787 25.347 175.777 65.401 240 115.836a501.982 501.982 0 0 1 10.461 8.445c25.37 21.064 49.252 44.807 77.439 76.988 9.153 10.443 18.244 21.17 27.03 31.542 15.224 17.967 30.964 36.545 47.603 54.314a643.286 643.286 0 0 0 3.675 3.896c60.947 64.016 127.57 105.768 203.676 127.64 105.41 30.133 216.858 20.15 291.791 6.469a849.767 849.767 0 0 0 27.86-5.579c103.98-22.627 198.86-64.521 269.91-98.491 31.14-14.871 61.7-30.948 91.25-46.493 58.97-31.012 119.93-63.082 186.31-85.797 28.33-9.711 53.98-15.675 78.39-18.228 30.12-3.149 57.82-.813 82.34 6.944 20.66 6.543 41.04 17.06 62.28 32.151 18.72 13.297 35.63 28.273 51.98 42.757 9.74 8.628 18.93 16.777 28.2 24.31 91.89 74.925 185.98 152.391 279.66 230.246l-.29.155Z"/><path d="m2223.39 546.807-274.24-232.781c-8.96-7.603-17.85-15.875-27.27-24.63-31.07-28.896-66.3-61.646-112.35-76.015-44.53-13.893-98.59-8.605-160.7 15.72-59.7 23.383-114.15 54.479-166.81 84.553-34.32 19.603-69.82 39.871-106.28 57.709-109.61 53.617-205.41 85.285-301.46 99.664-39.85 5.964-79.166 8.965-117.29 8.965-11.556 0-22.995-.276-34.314-.828-53.377-2.602-102.658-11.35-146.469-25.998-40.605-13.578-77.75-32.745-113.548-58.599-28.587-20.646-55.99-45.258-86.236-77.459-15.965-16.993-31.423-34.649-46.372-51.724-33.834-38.639-68.818-78.594-112.13-113.759-66.436-53.935-153.64-96.23-252.184-122.317C53.226-.477-60.282-7.422-153.872 9.757c-90.611 16.63-188.957 69.075-190.767 144.924l-.367-.005c.81-33.903 21.369-66.069 59.453-93.02 34.434-24.369 81.165-42.885 131.586-52.139C-104.554.45-50.1-1.993 7.876 2.263c52.059 3.82 105.216 12.843 157.996 26.816 48.761 12.907 95.071 29.898 137.647 50.502 42.931 20.776 81.517 44.96 114.68 71.881 43.331 35.177 78.326 75.142 112.167 113.791 14.949 17.073 30.407 34.726 46.368 51.717 44.129 46.984 106.704 104.896 199.638 135.97 106.579 35.635 220.783 29.371 297.818 17.841 96.02-14.369 191.76-46.025 301.33-99.622 36.45-17.831 71.94-38.1 106.26-57.698 52.67-30.078 107.14-61.182 166.87-84.577 62.21-24.367 116.39-29.66 161.04-15.729 20.62 6.434 40.8 17.042 61.71 32.436 18.4 13.551 34.86 28.857 50.78 43.657 9.41 8.755 18.31 17.023 27.26 24.622l274.24 232.782-.29.155Z"/><path d="M2221.18 528.914c-69.83-64.815-129.75-117.409-188.56-165.513a3049.122 3049.122 0 0 0-86.65-68.366c-8.76-6.653-17.43-13.73-26.62-21.224-23.08-18.834-46.95-38.309-74.42-52.762-14.75-7.774-28.95-13.341-43.41-17.018-44.38-11.397-96.45-3.861-154.77 22.4-30.18 13.571-57.66 29.014-80.56 42.331-24.24 14.098-48.16 29.644-71.29 44.679-33.24 21.611-67.62 43.957-104.57 63.148-22.49 11.713-45.28 22.178-67.75 31.109-44.96 17.866-93.22 32.587-143.43 43.755-31.02 6.823-62.2 11.981-92.65 15.327-26.24 2.874-52.54 4.532-78.15 4.929-38.338.596-75.689-1.678-111.017-6.767-37.564-5.411-73.112-14.049-105.656-25.675-29.019-10.367-56.43-23.42-83.796-39.908-50.996-30.7-91.671-66.197-121.408-93.693-14.608-13.57-28.872-27.41-42.667-40.793-39.722-38.543-77.242-74.947-124.192-107.374-38.293-26.274-81.983-48.947-129.868-67.394-36.798-14.177-76.82-25.771-118.952-34.463a909.743 909.743 0 0 0-30.386-5.722C96.821 42.496 47.752 37.66-5.432 35.55c-53.619-2.178-100.009-.293-141.812 5.769-23.633 3.4-46.529 8.735-68.063 15.855-76.021 25.135-124.836 67.33-130.582 112.874l-.458-.027c1.532-12.142 6.028-24.1 13.359-35.549 6.966-10.875 16.532-21.363 28.433-31.173 22.486-18.53 53.279-34.578 89.047-46.404 21.566-7.131 44.499-12.474 68.169-15.88 41.847-6.066 88.274-7.954 141.937-5.773 53.213 2.112 102.307 6.952 145.923 14.381a908.922 908.922 0 0 1 30.408 5.727c42.166 8.696 82.221 20.3 119.048 34.49 47.918 18.459 91.644 41.152 129.955 67.443 46.981 32.447 84.507 68.861 124.244 107.414 13.791 13.383 28.055 27.22 42.66 40.788 29.722 27.483 70.378 62.963 121.345 93.643 27.337 16.471 54.719 29.512 83.705 39.867 63.691 22.752 136.514 33.656 216.444 32.407 25.6-.397 51.87-2.055 78.1-4.926 30.43-3.347 61.58-8.499 92.57-15.318 50.19-11.16 98.41-25.872 143.34-43.728 22.46-8.923 45.24-19.383 67.7-31.086 36.94-19.182 71.31-41.523 104.54-63.127 23.13-15.036 47.05-30.588 71.31-44.691 22.91-13.324 50.4-28.772 80.61-42.353 25.96-11.692 51.1-19.77 74.72-24.011 29.02-5.21 56.09-4.677 80.46 1.582 14.51 3.689 28.74 9.27 43.53 17.062 27.51 14.475 51.39 33.962 74.49 52.809 9.19 7.491 17.86 14.568 26.61 21.217a3046.648 3046.648 0 0 1 86.67 68.375c58.81 48.109 118.73 100.708 188.57 165.528l-.37.18Z"/><path d="M2218.97 511.013c-64.75-65.911-125.51-121.066-185.78-168.613-29.38-23.226-59.8-45.552-90.4-66.357-8.12-5.52-16.13-11.257-24.62-17.329-25.41-18.183-51.69-36.985-81.12-49.994-14.86-6.597-29.1-11.19-43.54-14.044-55.29-10.931-111.45 9.778-148.84 29.076-26.48 13.632-50.67 29.046-75.18 44.957-21.44 13.928-41.62 28.911-62.98 44.77-31.71 23.544-64.49 47.888-101.59 68.329-22.02 12.195-45 22.74-68.3 31.34-43.4 16.022-90.92 28.464-145.29 38.04a895.856 895.856 0 0 1-92.61 11.341c-26.18 1.806-52.31 2.452-77.68 1.912-37.727-.793-74.609-4.362-109.623-10.603-36.772-6.558-71.858-16.139-104.281-28.477-28.408-10.808-55.836-24.219-83.855-40.995-50.886-30.426-94.477-64.157-126.764-90.145-11.952-9.62-23.714-19.299-35.091-28.664-45.305-37.288-88.098-72.512-140.119-102.187-38.879-22.178-82.529-40.931-129.729-55.736-35.713-11.202-73.566-19.595-115.717-25.66a928.867 928.867 0 0 0-29.411-3.743c-42.986-4.748-88.864-6.545-144.37-8.403-40.011-1.407-92.388-2.334-142.706 3.043-23.831 2.5-46.867 6.839-68.474 12.893-76.072 21.323-127.676 58.573-138.045 99.647l-.543-.062c2.749-10.892 8.318-21.574 16.544-31.754 7.841-9.699 18.144-18.999 30.62-27.649 23.71-16.431 55.25-30.446 91.212-40.524 21.647-6.067 44.727-10.414 68.598-12.918 50.365-5.384 102.783-4.455 142.82-3.048 55.524 1.858 101.416 3.654 144.432 8.405a939.095 939.095 0 0 1 29.437 3.746c42.191 6.072 80.081 14.472 115.834 25.687 47.248 14.82 90.934 33.588 129.853 55.788 52.059 29.697 94.869 64.93 140.189 102.234 11.373 9.362 23.135 19.041 35.087 28.659 32.28 25.978 75.853 59.696 126.709 90.107 27.986 16.76 55.385 30.155 83.76 40.951 63.754 24.26 135.642 37.392 213.653 39.034 25.34.537 51.45-.106 77.6-1.913 31-2.163 62.13-5.975 92.53-11.33 54.32-9.566 101.81-21.998 145.17-38.006 23.27-8.591 46.22-19.12 68.21-31.303 37.07-20.424 69.84-44.758 101.54-68.289 21.37-15.868 41.55-30.853 63.01-44.788 24.51-15.921 48.71-31.34 75.22-44.987 24.24-12.511 48.14-21.51 71.05-26.754 27.78-6.358 54.12-7.159 78.28-2.383 14.49 2.866 28.78 7.474 43.69 14.09 29.48 13.034 55.78 31.853 81.22 50.052 8.48 6.069 16.5 11.803 24.61 17.321 30.61 20.813 61.03 43.146 90.43 66.379 60.27 47.56 121.06 102.724 185.81 168.65l-.46.207Z"/><path d="M2216.76 493.112c-60.6-67.902-120.45-124.07-182.99-171.711-30.24-23.082-61.92-44.731-94.15-64.348-6.89-4.195-13.99-8.645-20.85-12.948-28.32-17.777-57.61-36.157-89.59-47.712-15.01-5.461-29.3-9.083-43.67-11.072-55.18-7.637-108.17 15.227-142.92 35.749-23.54 13.854-45.07 29.556-65.89 44.743l-3.9 2.844c-18.9 13.777-36.63 28.888-55.4 44.888-29.9 25.478-60.81 51.821-97.89 73.481-21.58 12.696-44.74 23.319-68.84 31.575-42.02 14.393-88.79 24.664-147.17 32.323-30.19 3.96-61.33 6.434-92.57 7.351-26.12.737-52.09.367-77.2-1.104-76.029-4.433-147.067-19.815-211.143-45.717-27.7-11.197-55.147-24.96-83.906-42.082-48.67-28.912-91.956-58.631-132.118-86.593-5.386-3.748-10.713-7.471-16-11.165-54.854-38.317-106.664-74.509-167.552-102.365-39.751-18.186-83.357-33.015-129.601-44.08-33.95-8.122-70.745-13.637-112.478-16.86a979.926 979.926 0 0 0-28.436-1.765c-23.809-1.108-49.062-1.288-75.798-1.478-21.475-.153-43.679-.311-67.11-.954-45.255-1.348-96.543-2.873-143.604.321-24.282 1.648-47.457 4.99-68.884 9.933-76.043 17.545-130.439 49.854-145.509 86.426l-.619-.116c3.971-9.643 10.611-19.049 19.73-27.957 8.721-8.519 19.757-16.636 32.801-24.125 24.948-14.322 57.243-26.298 93.385-34.637 21.475-4.956 44.697-8.305 69.026-9.956 47.109-3.196 98.423-1.668 143.696-.32 23.417.641 45.62.801 67.088.954 26.747.189 52.007.369 75.838 1.481a988.866 988.866 0 0 1 28.462 1.767c41.785 3.225 78.623 8.748 112.621 16.882 46.299 11.077 89.952 25.924 129.747 44.13 60.944 27.88 112.779 64.089 167.655 102.423 5.287 3.694 10.618 7.415 16 11.166 40.154 27.956 83.427 57.668 132.081 86.571 28.73 17.101 56.148 30.852 83.815 42.035 63.992 25.869 134.938 41.229 210.863 45.657 25.09 1.469 51.03 1.838 77.12 1.101 31.2-.916 62.32-3.388 92.47-7.343 58.32-7.651 105.04-17.91 147-32.284 24.06-8.238 47.17-18.842 68.71-31.515 37.04-21.634 67.93-47.962 97.81-73.424 18.78-16.008 36.52-31.126 55.44-44.914l3.89-2.843c20.83-15.195 42.37-30.907 65.95-44.776 34.85-20.588 88.03-43.518 143.46-35.847 14.44 1.999 28.78 5.633 43.85 11.116 32.05 11.58 61.37 29.98 89.73 47.777 6.85 4.303 13.95 8.753 20.83 12.945 32.25 19.627 63.94 41.288 94.2 64.383 62.57 47.661 122.44 103.848 183.06 171.772l-.54.217Z"/><path d="M2214.55 475.212c-55.64-68.928-116.27-127.742-180.21-174.804a847.617 847.617 0 0 0-97.89-62.337c-4.89-2.662-9.9-5.424-14.75-8.095-32.01-17.647-65.11-35.897-100.37-45.902-15.14-4.339-29.47-6.988-43.81-8.102-55.02-4.268-104.87 20.712-136.99 42.419-19.96 13.411-37.96 28.324-55.38 42.747-3.01 2.497-6.02 4.988-9.04 7.47-16.56 13.632-32.05 28.861-48.45 44.982-27.87 27.407-56.7 55.746-93.56 78.663-21.65 13.457-44.34 23.861-69.39 31.811-52.39 16.626-104.74 22.779-149.04 26.609-29.97 2.587-61.1 3.721-92.53 3.361-26.04-.333-51.85-1.72-76.72-4.12-73.747-7.1-143.855-24.714-208.375-52.355-26.846-11.499-54.308-25.619-83.961-43.166-29.953-17.684-57.865-34.699-84.862-51.156-18.346-11.185-35.677-21.749-52.601-31.884-63.974-38.314-122.572-72-191.892-96.214-40.605-14.182-84.166-25.093-129.476-32.429-32.474-5.259-67.187-7.819-109.239-8.063-9.072-.045-18.313.027-27.462.214-13.897.303-28.275.936-43.492 1.609-29.202 1.289-62.306 2.75-97.965 1.932-13.578-.313-27.432-.754-40.831-1.183-34.464-1.101-70.1-2.24-103.674-1.222-24.655.749-47.973 3.095-69.298 6.974-75.914 13.812-133.099 41.182-152.973 73.215l-.677-.19c5.203-8.388 12.912-16.515 22.911-24.157 9.603-7.338 21.372-14.27 34.973-20.601 26.209-12.198 59.254-22.136 95.569-28.743 21.375-3.888 44.745-6.242 69.455-6.991 33.61-1.02 69.26.121 103.743 1.222 13.396.429 27.25.87 40.825 1.183 35.625.818 68.704-.64 97.891-1.929 15.224-.673 29.605-1.306 43.518-1.609 9.16-.188 18.408-.259 27.491-.215 42.111.242 76.875 2.81 109.404 8.076 45.364 7.345 88.984 18.269 129.64 32.471 31.313 10.936 63.044 24.793 97.006 42.358 30.404 15.724 59.979 32.929 95.037 53.925 16.924 10.137 34.255 20.702 52.604 31.887 26.993 16.453 54.906 33.469 84.852 51.15 29.623 17.53 57.056 31.636 83.869 43.122 64.432 27.604 134.44 45.194 208.08 52.283 24.85 2.398 50.63 3.783 76.63 4.116 31.4.359 62.5-.772 92.42-3.359 44.25-3.822 96.54-9.968 148.83-26.565 24.98-7.927 47.62-18.304 69.21-31.727 36.79-22.878 65.6-51.194 93.45-78.579 16.41-16.131 31.9-31.368 48.49-45.015 3.01-2.481 6.02-4.972 9.03-7.466 17.43-14.433 35.45-29.357 55.42-42.784 20.91-14.123 42.35-24.988 63.74-32.292 25.34-8.652 50.19-12.106 73.86-10.268 14.41 1.119 28.81 3.78 44.01 8.137 35.35 10.032 68.5 28.304 100.55 45.973 4.85 2.671 9.86 5.433 14.74 8.092a848.748 848.748 0 0 1 97.97 62.39c33.95 24.99 67.2 53.461 98.82 84.624 27.95 27.543 55.37 57.917 81.49 90.275l-.62.232Z"/><path d="M2212.33 457.301c-51.49-70.904-111.18-130.755-177.41-177.894-31.94-22.791-66.13-43.087-101.63-60.327-1.69-.82-3.38-1.641-5.07-2.464-36.92-17.949-75.09-36.51-114.73-44.866-15.36-3.238-29.74-4.916-43.94-5.133-54.8-.833-101.53 26.234-131.08 49.085-17.39 13.368-32.83 28.021-47.76 42.19-3.69 3.504-7.51 7.127-11.27 10.656-14.35 13.44-27.69 28.72-41.82 44.9-25.68 29.431-52.24 59.862-88.91 84.021-21.22 13.977-44.1 24.46-69.95 32.05-50.92 14.95-102.63 18.876-150.92 20.892-29.78 1.242-60.9 1.03-92.5-.629-25.94-1.404-51.59-3.807-76.23-7.139-71.239-9.61-140.416-29.457-205.603-58.991-26.106-11.826-52.802-25.887-84.008-44.25-59.31-34.805-103.351-59.319-142.798-79.484-78.458-40.106-138.339-63.701-200.221-78.895-41.429-10.173-84.946-17.164-129.351-20.781-30.807-2.509-63.501-2.284-106.004.734-8.709.626-17.62 1.363-26.487 2.193-8.376.796-16.884 1.708-25.893 2.672-33.266 3.56-70.973 7.597-114.127 6.843-22.747-.397-45.98-1.484-68.448-2.533-25.535-1.193-51.938-2.428-76.97-2.595-25.099-.168-48.559 1.183-69.712 4.016-75.662 10.131-135.642 32.568-160.444 60.017l-.703-.288c6.441-7.132 15.22-13.98 26.091-20.355 10.494-6.156 22.988-11.9 37.139-17.077 27.487-10.059 61.292-17.96 97.756-22.841 21.211-2.839 44.723-4.194 69.88-4.027 25.055.168 51.472 1.402 77.018 2.598 22.46 1.049 45.683 2.136 68.411 2.533 43.078.751 80.744-3.28 113.973-6.836 9.014-.966 17.529-1.875 25.908-2.674 8.878-.83 17.796-1.567 26.513-2.195 42.569-3.021 75.318-3.248 106.191-.732 44.467 3.622 88.046 10.623 129.534 20.81 61.966 15.214 121.909 38.834 200.437 78.974 39.461 20.172 83.518 44.694 142.842 79.509 31.184 18.348 57.851 32.395 83.928 44.208 65.099 29.492 134.173 49.312 205.298 58.908 24.61 3.327 50.23 5.724 76.14 7.129 31.56 1.656 62.64 1.868 92.38.628 48.22-2.013 99.84-5.929 150.65-20.845 25.75-7.56 48.55-18.008 69.69-31.936 36.59-24.108 63.13-54.507 88.79-83.905 14.13-16.19 27.48-31.483 41.85-44.943 3.77-3.526 7.59-7.149 11.27-10.653 14.94-14.181 30.39-28.844 47.81-42.234 19.28-14.914 39.5-26.71 60.09-35.064 24.12-9.785 48.22-14.564 71.63-14.211 14.29.217 28.73 1.905 44.17 5.157 39.77 8.386 78 26.972 114.97 44.948 1.69.823 3.38 1.646 5.07 2.464 35.54 17.26 69.77 37.58 101.74 60.396 66.29 47.181 126.03 107.079 177.56 178.032l-.74.234Z"/><path d="M1246.07 450.154c-2.06 0-4.08-.002-6.08-.009-29.62-.084-60.73-1.637-92.45-4.618-25.85-2.477-51.34-5.895-75.75-10.156-34.88-6.076-69.89-14.81-104.057-25.955-32.994-10.764-66.223-24.11-98.767-39.672-31.888-15.246-61.673-32.235-84.06-45.332-52.381-30.562-102.219-56.106-148.129-75.926-74.358-32.099-140.622-51.667-208.542-61.581-40.974-5.981-84.935-9.135-127.262-9.135-.656 0-1.308 0-1.964.003-36.362.083-70.884 4.627-102.769 9.526a1531.74 1531.74 0 0 0-25.516 4.172c-4.73.823-9.468 1.671-14.48 2.568-35.354 6.336-75.428 13.514-124.112 12.925-29.649-.36-59.932-2.425-89.219-4.423-18.91-1.292-38.46-2.625-57.111-3.431-25.637-1.106-49.229-.751-70.129 1.06-75.259 6.516-138.035 24.021-167.929 46.83l-.689-.406c15.334-11.698 38.399-21.826 68.554-30.106 28.799-7.905 63.362-13.76 99.947-16.927 20.954-1.813 44.609-2.173 70.305-1.062 18.668.806 38.23 2.142 57.148 3.433 29.268 1.998 59.533 4.064 89.142 4.421 48.56.589 88.563-6.58 123.858-12.903 5.017-.899 9.754-1.747 14.488-2.57 8.64-1.486 17.232-2.891 25.538-4.174 31.939-4.907 66.521-9.458 102.97-9.544 43.001-.102 87.75 3.063 129.425 9.147 35.053 5.118 69.037 12.651 103.886 23.031 33.562 9.997 67.894 22.633 104.952 38.634 45.947 19.834 95.821 45.398 148.235 75.98 22.369 13.09 52.132 30.066 83.987 45.295 66.037 31.576 134.18 53.624 202.53 65.534 24.38 4.255 49.83 7.668 75.65 10.142 31.68 2.977 62.74 4.53 92.32 4.611 46.29.128 100.04-.922 152.47-15.128 26.53-7.191 49.49-17.706 70.18-32.143 36.34-25.357 60.42-57.903 83.72-89.378 11.99-16.19 23.31-31.483 35.61-44.721 3.95-4.241 7.93-8.61 11.77-12.836 13-14.278 26.44-29.039 41.93-42.684 17.69-15.697 36.68-28.429 56.44-37.843 22.9-10.914 46.25-17.02 69.39-18.149 14.29-.697 28.79.015 44.33 2.179 41.55 5.781 82.74 22.577 124.79 40.756 36.66 15.849 73.15 36.044 105.52 58.402 35.96 24.763 69.75 53.814 100.42 86.344 27.32 28.982 52.35 60.884 74.39 94.822l-.84.246c-47.33-72.882-106.08-133.773-174.62-180.981-32.33-22.326-68.76-42.491-105.36-58.314-41.98-18.146-83.09-34.91-124.49-40.672-15.45-2.151-29.87-2.858-44.07-2.166-42.53 2.078-86.98 21.875-125.17 55.751-15.46 13.62-28.89 28.368-41.88 42.631-3.84 4.229-7.83 8.601-11.77 12.841-12.28 13.214-23.6 28.494-35.57 44.67-11.43 15.443-23.25 31.414-36.81 46.766-15.38 17.405-30.77 31.392-47.07 42.764-20.78 14.502-43.84 25.064-70.5 32.289-23.51 6.373-48.78 10.584-77.25 12.881-24.12 1.934-48.33 2.291-69.48 2.291Z"/><path d="M1304.82 451.388c-18.68 0-36.63-.749-52.68-1.508-29.52-1.395-60.62-4.29-92.41-8.608-25.75-3.546-51.07-7.977-75.28-13.174-66.27-14.201-131.71-37.84-200.04-72.263-29.8-15.01-57.892-31.161-84.104-46.414-51.751-30.027-103.377-54.374-153.453-72.368-73.647-26.463-142.552-40.531-216.851-44.272-42.335-2.132-86.977-1.262-129.106 2.514-35.263 3.159-68.506 10.783-99.54 18.319a2175.584 2175.584 0 0 0-24.542 6.15c-2.129.55-4.276 1.109-6.452 1.674-35.743 9.295-76.186 19.812-128.091 19.812-.876 0-1.748-.002-2.63-.01-35.117-.239-70.97-3.61-105.645-6.873-13.748-1.293-27.964-2.629-41.605-3.711-26.645-2.109-49.721-2.733-70.551-1.9-75.761 3.031-139.709 15.293-175.441 33.65l-.612-.54c17.664-9.073 43.206-16.952 73.856-22.782 30.147-5.734 65.465-9.539 102.134-11.005 20.889-.836 44.024-.212 70.727 1.902 13.656 1.082 27.876 2.42 41.627 3.711 34.643 3.258 70.463 6.627 105.513 6.866 52.985.364 94.088-10.328 130.348-19.759l6.452-1.675a2095.475 2095.475 0 0 1 24.56-6.154c31.085-7.55 64.391-15.184 99.749-18.353 42.195-3.78 86.911-4.653 129.315-2.519 36.819 1.853 71.924 6.23 107.319 13.376 36.453 7.361 72.412 17.491 109.931 30.976 50.139 18.018 101.831 42.394 153.636 72.451 26.202 15.248 54.276 31.389 84.05 46.384 68.238 34.376 133.576 57.981 199.746 72.16 24.17 5.188 49.46 9.613 75.17 13.154 31.75 4.313 62.8 7.206 92.28 8.596 49.6 2.341 102.37 3.543 154.28-9.411 27.32-6.819 50.43-17.4 70.67-32.351 36.04-26.631 58.48-62.956 78.27-95.006 9.96-16.126 19.37-31.357 29.75-44.341 3.75-4.685 7.52-9.527 11.16-14.209 11.41-14.65 23.2-29.798 37.15-43.945 16.15-16.481 33.91-30.15 52.8-40.628 21.69-12.033 44.28-19.465 67.15-22.084 14.3-1.639 28.85-1.9 44.49-.806 43.69 3.063 88.08 18.198 129.54 34.1 38.29 14.682 76.08 34.189 109.31 56.411 36.96 24.648 71.01 53.989 101.21 87.205 27 29.704 50.84 62.37 70.85 97.096l-.94.244c-42.53-73.814-101.95-137.463-171.83-184.067-33.16-22.18-70.88-41.65-109.09-56.302-41.37-15.865-85.64-30.964-129.15-34.014-15.55-1.09-30.01-.828-44.21.798-42.23 4.837-84.59 27.003-119.28 62.417-13.93 14.117-25.71 29.25-37.1 43.885-3.64 4.685-7.41 9.527-11.16 14.216-10.36 12.955-19.76 28.172-29.71 44.28-19.83 32.1-42.3 68.484-78.47 95.204-20.34 15.032-43.59 25.672-71.06 32.53-23.83 5.949-49.55 9.394-78.62 10.525-7.85.32-15.68.446-23.39.446Z"/><path d="M1341.7 454.058h-.8c-26.4-.044-52.32-2.218-76.62-4.44-29.47-2.696-60.55-6.937-92.36-12.6-25.63-4.611-50.79-10.059-74.79-16.19-63.63-16.232-126.312-41.301-197.265-78.898-25.553-13.536-50.699-28.112-75.021-42.205a9935.597 9935.597 0 0 0-9.131-5.288c-52.018-30.019-105.436-53.171-158.766-68.809-73.027-21.411-146.678-30.233-225.161-26.968-43.034 1.791-87.636 6.688-128.985 14.159-32.624 5.897-61.695 15.357-96.312 27.112a3982.453 3982.453 0 0 0-23.575 8.129l-.505.178c-17.489 6.126-37.311 13.068-59.544 18.346-25.535 6.062-50.307 8.98-75.71 8.945-39.612-.066-80.037-5.024-119.129-9.822-9.577-1.176-19.485-2.391-29.048-3.49-27.425-3.146-50.64-4.736-70.972-4.857-74.863-.443-141.556 7.018-182.974 20.468l-.476-.665c20.287-6.589 47.654-11.937 79.139-15.466 31.543-3.536 67.619-5.29 104.322-5.073 20.39.12 43.664 1.712 71.148 4.866 9.57 1.099 19.478 2.314 29.06 3.49 39.043 4.79 79.417 9.743 118.934 9.81h.53c56.526 0 99.589-15.081 134.214-27.208l.509-.177a3804.173 3804.173 0 0 1 23.582-8.132c34.676-11.774 63.798-21.252 96.525-27.166 41.418-7.486 86.093-12.39 129.201-14.184 38.406-1.597 74.632-.38 110.756 3.726 38.926 4.423 76.516 12.045 114.911 23.304 53.432 15.668 106.942 38.856 159.044 68.925 3.045 1.762 6.09 3.526 9.131 5.291 24.311 14.088 49.45 28.659 74.98 42.185 70.863 37.55 133.448 62.584 196.978 78.789 23.96 6.124 49.09 11.562 74.68 16.168 31.77 5.655 62.8 9.889 92.23 12.58 52.72 4.825 104.32 8.171 156.1-3.697 28.09-6.441 51.37-17.089 71.14-32.555 35.72-27.937 55.24-66.647 72.46-100.804 8.06-15.991 15.67-31.096 24.26-43.79 3.31-4.884 6.62-9.936 9.83-14.822 10.02-15.278 20.39-31.074 33.1-45.968 14.63-17.272 31.17-31.88 49.14-43.417 20.5-13.15 42.33-21.903 64.91-26.013 14-2.548 28.29-3.79 43.64-3.79.33 0 .67 0 1 .003 47.73.167 96.85 14.751 134.31 27.436 39.9 13.517 79.01 32.334 113.09 54.418 37.96 24.534 72.29 54.164 102.01 88.07 26.67 30.425 49.32 63.858 67.3 99.372l-1.04.239c-26.76-52.843-77.82-128.204-169.03-187.146-34-22.035-73.02-40.808-112.83-54.292-37.35-12.652-86.31-27.193-133.81-27.358-15.64-.062-30.14 1.175-44.35 3.763-41.83 7.617-82.1 32.151-113.39 69.082-12.68 14.86-23.03 30.638-33.05 45.899-3.2 4.889-6.52 9.943-9.83 14.83-8.56 12.661-16.17 27.747-24.22 43.72-17.25 34.219-36.8 73.003-72.66 101.049-19.91 15.569-43.34 26.288-71.63 32.772-23.97 5.492-49.88 8.166-79.18 8.166Z"/><path d="M1371.03 457.531c-5.69 0-11.5-.124-17.45-.37-26.05-1.077-51.36-4.307-77.15-7.807-29.9-4.056-60.1-9.482-92.32-16.589-25.5-5.673-50.5-12.134-74.31-19.209-60.41-17.92-120.39-44.299-194.48-85.531-18.401-10.239-36.794-20.978-54.583-31.365-9.684-5.653-19.694-11.5-29.613-17.21-52.637-30.221-107.839-52.173-164.075-65.248-74.303-17.277-150.668-20.441-233.468-9.672-43.744 5.69-88.306 14.613-128.863 25.803-32.581 8.99-60.962 21.614-91.011 34.98l-2.077.924c-4.694 2.095-9.439 4.219-14.242 6.368l-8.362 3.743c-17.521 7.878-36.446 16.096-58.148 22.422-25.197 7.343-50.12 10.956-76.2 11.044-43.42.143-87.706-6.643-130.531-13.213a4976.921 4976.921 0 0 0-18.573-2.826c-28.774-4.313-51.458-6.794-71.397-7.814-73.581-3.763-143.022-1.112-190.522 7.277l-.304-.774c47.625-8.411 117.208-11.072 190.917-7.302 19.995 1.023 42.737 3.512 71.566 7.832 6.14.921 12.465 1.89 18.58 2.829 42.301 6.488 86.028 13.193 128.871 13.193.462 0 .924 0 1.389-.002 55.415-.188 94.861-15.875 133.696-33.332a8294.95 8294.95 0 0 0 8.362-3.743c4.803-2.151 9.544-4.273 14.242-6.37l2.077-.924c30.1-13.388 58.529-26.035 91.216-35.054 40.63-11.212 85.269-20.15 129.091-25.85 83.008-10.795 159.579-7.621 234.083 9.702 56.375 13.11 111.705 35.111 164.46 65.398 9.918 5.713 19.932 11.558 29.616 17.213 17.782 10.384 36.171 21.121 54.561 31.353 74.002 41.184 133.902 67.527 194.202 85.417 23.78 7.063 48.74 13.517 74.2 19.18 32.17 7.097 62.33 12.515 92.19 16.564 45.32 6.148 101.73 13.802 157.9 2.014 28.88-6.06 52.31-16.775 71.62-32.758 35.38-29.275 51.78-70.45 66.26-106.775 6.29-15.781 12.23-30.687 19.16-43.058 2.7-4.82 5.41-9.805 8.02-14.627 8.78-16.173 17.86-32.895 29.52-48.8 13.15-18.075 28.46-33.622 45.49-46.209 19.3-14.263 40.39-24.334 62.66-29.935 14.3-3.596 28.95-5.811 44.8-6.775 21.22-1.291 43.81.089 69.06 4.209 21.36 3.49 44.26 8.906 70.01 16.562 41.53 12.349 81.94 30.478 116.87 52.427 38.98 24.418 73.57 54.341 102.81 88.934 26.33 31.151 47.79 65.349 63.76 101.65l-1.14.227c-33.73-76.638-92.77-144.195-166.24-190.224-34.84-21.89-75.14-39.968-116.55-52.279-55.48-16.496-99.47-23.078-138.47-20.707-15.75.956-30.29 3.156-44.49 6.725-53 13.324-87.72 48.548-107.5 75.748-11.63 15.865-20.7 32.567-29.47 48.72-2.62 4.825-5.33 9.813-8.03 14.635-6.91 12.334-12.84 27.223-19.12 42.984-14.5 36.404-30.94 77.665-66.49 107.074-19.46 16.108-43.08 26.909-72.19 33.018-19.73 4.14-40.77 6.183-63.89 6.183Z"/><path d="M1396.43 461.506c-38.75 0-76-6.695-107.87-12.422-29.98-5.387-60.16-12.119-92.28-20.579-25.35-6.727-50.19-14.204-73.82-22.225-70.84-24.016-133.999-58.488-191.693-92.165-11.78-6.875-23.681-13.962-35.186-20.815-15.975-9.517-32.496-19.357-49.05-28.839-53.425-30.52-110.412-51.276-169.373-61.692-76.274-13.472-155.362-10.981-241.782 7.619-44.496 9.576-89.013 22.526-128.742 37.449-30.643 11.508-56.569 26.037-84.016 41.419-1.946 1.089-3.895 2.183-5.856 3.278l-1.062.596a5436.01 5436.01 0 0 1-20.566 11.496c-16.759 9.346-35.215 19.014-56.562 26.399-24.78 8.573-49.76 12.848-76.38 13.07-46.724.392-94.345-8.442-140.394-16.986-3.228-.599-6.442-1.195-9.64-1.784-30.368-5.604-52.521-8.925-71.823-10.774-71.734-6.865-143.93-9.024-198.077-5.921l-.11-.86c54.235-3.11 126.537-.949 198.367 5.926 19.357 1.854 41.557 5.183 71.98 10.796 3.198.589 6.412 1.186 9.643 1.787 45.962 8.526 93.492 17.338 140.036 16.954 57.807-.483 98.518-20.525 132.139-39.273 6.995-3.883 13.894-7.752 20.566-11.493l1.063-.596 5.855-3.278c27.495-15.409 53.465-29.962 84.21-41.51 39.802-14.95 84.404-27.922 128.977-37.515 40.971-8.817 79.455-13.909 117.645-15.565 42.601-1.845 84.606.824 124.851 7.933 59.149 10.448 116.304 31.264 169.879 61.867 16.565 9.487 33.09 19.329 49.069 28.849 11.505 6.853 23.398 13.938 35.174 20.81 57.635 33.64 120.718 68.075 191.428 92.047 23.6 8.009 48.4 15.475 73.72 22.193 32.06 8.447 62.2 15.17 92.14 20.549 45.97 8.26 103.18 18.541 159.71 7.723 29.66-5.678 53.24-16.459 72.09-32.959 35.02-30.653 48.12-74.361 59.68-112.926 4.64-15.495 9.03-30.13 14.44-42.149 2-4.445 4.01-9.038 5.95-13.481 7.6-17.378 15.46-35.35 26.2-52.582 11.7-18.894 25.77-35.384 41.83-49.009 18.12-15.374 38.45-26.764 60.42-33.854 14.27-4.603 28.97-7.794 44.95-9.758 21.53-2.644 45.42-2.555 71.01.264 22.4 2.469 46.9 7.124 72.82 13.839 43.15 11.18 84.87 28.619 120.67 50.433 39.99 24.305 74.85 54.516 103.61 89.799 25.98 31.875 46.25 66.843 60.22 103.929l-1.25.212c-29.6-78.584-87.64-147.233-163.44-193.299-35.68-21.742-77.27-39.125-120.27-50.268-55.74-14.443-102.56-19.044-143.14-14.059-15.86 1.949-30.46 5.118-44.62 9.687-52.28 16.868-84.12 54.127-101.62 82.416-10.72 17.188-18.57 35.135-26.16 52.491-1.94 4.443-3.95 9.039-5.95 13.489-5.39 11.979-9.78 26.594-14.41 42.07-5.57 18.553-11.87 39.58-21.02 59.294-10.48 22.587-23.21 40.246-38.9 53.987-9.07 7.944-19.5 14.706-31 20.098-12.36 5.798-26.41 10.229-41.76 13.166-17.57 3.364-35.2 4.702-52.52 4.702Z"/><path d="M1419.33 465.87c-12.81 0-26.23-.838-40.41-2.511-27.92-3.295-54.64-9.273-78.22-14.544-29.72-6.646-60.76-14.914-92.24-24.571-25.19-7.772-49.86-16.264-73.34-25.244-67.37-25.744-125.41-59.974-188.906-98.796a8764.362 8764.362 0 0 1-16.913-10.374c-21.819-13.403-44.378-27.262-67.363-40.357-54.312-30.877-113.079-50.436-174.671-58.134-77.692-9.711-161.84-1.333-250.095 24.906-45.288 13.465-89.765 30.438-128.622 49.09-29.257 14.044-53.341 30.601-78.839 48.132-2.59 1.781-5.192 3.568-7.808 5.362a2757.046 2757.046 0 0 1-20.658 14.071c-14.96 10.105-33.192 21.621-54.975 30.376-24.384 9.803-49.427 14.744-76.556 15.101-49.662.658-100.215-10.402-149.103-21.096l-1.862-.407c-23.937-5.234-49.259-10.522-72.247-13.733-70.071-9.786-143.098-16.579-205.625-19.13l.084-.922c62.593 2.553 135.686 9.352 205.819 19.148 23.054 3.22 48.42 8.516 72.394 13.757l1.861.407c48.783 10.67 99.233 21.702 148.654 21.049 57.074-.754 96.492-22.173 130.585-45.208 7.134-4.801 14.14-9.599 20.651-14.066 2.616-1.792 5.217-3.581 7.808-5.36 25.542-17.56 49.669-34.147 79.022-48.237 38.93-18.689 83.492-35.695 128.863-49.184 41.408-12.309 82.155-20.791 121.104-25.207 44.503-5.044 88.174-4.965 129.801.237 61.827 7.728 120.811 27.355 175.306 58.338 23.002 13.107 45.573 26.971 67.403 40.382 5.54 3.403 11.271 6.922 16.913 10.372 63.435 38.784 121.415 72.978 188.665 98.677 23.44 8.965 48.08 17.445 73.23 25.207 31.44 9.643 62.42 17.898 92.1 24.534 46.52 10.404 104.42 23.349 161.51 13.43 30.45-5.291 54.19-16.136 72.57-33.159 34.63-32.072 44.65-80.413 52.7-119.256 3.14-15.131 6.1-29.421 10.11-41.052 1.27-3.667 2.55-7.444 3.78-11.099 6.41-18.984 13.05-38.617 23-57.601 15.36-29.544 44.54-69.066 96.33-89.575 14.31-5.663 29.06-9.833 45.11-12.745 41.99-7.73 91.98-5.23 148.59 7.429 44.77 10.012 87.8 26.762 124.46 48.44 41 24.189 76.13 54.691 104.41 90.666 12.98 16.501 24.44 34.125 34.09 52.383 9.21 17.439 16.81 35.549 22.58 53.826l-1.34.192c-25.45-80.536-82.51-150.276-160.65-196.375-36.52-21.596-79.39-38.282-123.99-48.257-56.34-12.602-106.07-15.096-147.79-7.415-15.93 2.891-30.58 7.028-44.77 12.649-51.43 20.367-80.45 59.686-95.74 89.085-9.92 18.935-16.54 38.54-22.95 57.5-1.24 3.655-2.51 7.435-3.78 11.104-4 11.592-6.96 25.862-10.09 40.97-4.05 19.547-8.64 41.7-16.49 62.609-9.02 24.026-20.95 42.693-36.46 57.064-8.85 8.199-19.21 15.114-30.77 20.55-12.46 5.857-26.78 10.219-42.57 12.959-13.85 2.41-28.32 3.613-43.66 3.613Z"/><path d="M1440.44 470.477c-15.36 0-31.55-1.338-48.84-4.022-28.02-4.344-54.98-11.555-78.77-17.917-29.95-8.009-60.96-17.617-92.19-28.561-25.02-8.809-49.54-18.316-72.85-28.26-64.17-27.34-119.2-62.579-177.467-99.882-2.883-1.846-5.767-3.694-8.658-5.542-27.095-17.329-55.11-35.249-84.316-51.809-55.257-31.268-115.805-49.632-179.962-54.58-80.587-6.217-167.53 7.979-258.42 42.19-45.463 17.112-91.099 38.681-128.501 60.734-28.242 16.651-50.893 35.386-74.874 55.223-2.84 2.349-5.687 4.705-8.556 7.065-5.731 4.724-12.549 10.325-19.687 16.055-13.22 10.638-31.232 24.157-53.385 34.327-23.995 11.017-49.094 16.633-76.731 17.163-22.718.382-47.787-1.976-76.645-7.213-24.776-4.495-48.742-10.369-75.262-17.023-24.208-6.148-49.758-12.498-72.68-16.692-67.898-12.425-139.617-23.305-213.162-32.344l.264-.968c73.588 9.041 145.348 19.931 213.283 32.36 22.984 4.207 48.57 10.567 72.808 16.72 44.452 11.156 99.775 25.044 151.353 24.174 58.969-1.133 96.866-25.248 129.032-51.14 7.134-5.724 13.949-11.323 19.676-16.045 2.869-2.36 5.716-4.716 8.552-7.062 24.021-19.869 46.713-38.637 75.047-55.342 37.479-22.097 83.202-43.708 128.753-60.852 91.165-34.314 178.409-48.548 259.303-42.308 31.016 2.393 61.482 7.949 90.546 16.515 31.184 9.189 61.529 22.075 90.193 38.292 29.239 16.577 57.273 34.507 84.383 51.847l8.661 5.542c58.212 37.272 113.192 72.476 177.232 99.765 23.29 9.928 47.76 19.423 72.75 28.218 31.18 10.926 62.15 20.522 92.05 28.519 47 12.567 105.49 28.208 163.32 19.137 31.33-4.914 55.22-15.825 73.04-33.356 34.32-33.484 40.43-84.634 45.34-125.733 1.76-14.699 3.42-28.582 6.17-39.809.57-2.317 1.14-4.646 1.71-6.987 5.13-21.145 10.45-43.013 19.68-64.353 13.19-30.695 39.57-72.316 90.43-96.288 14.19-6.688 28.99-11.833 45.26-15.731 22.61-5.468 47.81-8.039 74.89-7.644 24.72.36 51.12 3.186 78.46 8.398 46.38 8.839 90.73 24.898 128.25 46.441 42.01 24.07 77.41 54.868 105.22 91.534 12.76 16.823 23.8 34.81 32.83 53.459 8.65 17.861 15.48 36.377 20.29 55.034l-1.44.167c-20.98-81.297-78.52-153.992-157.85-199.445-37.36-21.449-81.52-37.442-127.7-46.246-56.95-10.858-109.66-11.124-152.46-.774-16.15 3.869-30.84 8.975-44.91 15.611-50.51 23.807-76.75 65.213-89.86 95.755-9.21 21.284-14.52 43.119-19.65 64.238-.57 2.341-1.14 4.672-1.7 6.988-2.75 11.185-4.4 25.052-6.16 39.729-4.93 41.216-11.06 92.514-45.6 126.213-8.59 8.45-18.86 15.522-30.52 21.015-12.55 5.909-27.15 10.197-43.39 12.745-11.72 1.833-23.86 2.755-36.58 2.755Z"/><path d="M1460.27 475.275c-17.5 0-36.03-1.902-56-5.722-28.26-5.404-55.39-13.844-79.32-21.288-30.24-9.409-61.24-20.362-92.14-32.55-24.84-9.833-49.19-20.358-72.37-31.277-57.08-26.879-105.85-59.809-157.5-94.673a6991.306 6991.306 0 0 0-25.834-17.385c-30.448-20.355-56.448-37.139-84.357-52.883-56.242-31.683-118.567-48.851-185.249-51.029-83.789-2.738-173.539 17.272-266.752 59.472-46.306 20.965-91.901 46.667-128.383 72.374-27.484 19.367-48.97 40.448-71.716 62.767-2.818 2.765-5.647 5.54-8.494 8.317-5.071 4.955-11.783 11.486-18.712 18.033-29.158 27.619-67.253 56.054-128.702 57.508-1.916.042-3.84.062-5.76.062-47.984 0-96.972-12.773-147.089-27.033l-3.129-.897c-24.823-7.127-48.273-13.857-69.979-18.755-81.799-18.463-160.909-34.046-220.691-45.559l.428-1.008c59.797 11.518 138.929 27.104 220.758 45.573 21.764 4.912 45.24 11.651 70.096 18.785l3.126.897c51.952 14.783 102.688 27.969 152.185 26.89 60.768-1.439 98.544-29.655 127.486-57.067 6.925-6.542 13.63-13.068 18.701-18.021 2.847-2.779 5.672-5.552 8.49-8.317 22.782-22.353 44.301-43.469 71.873-62.897 36.556-25.761 82.243-51.515 128.64-72.522 43.063-19.497 86.141-34.468 128.036-44.499 48.068-11.511 95.059-16.607 139.661-15.151 67.026 2.189 129.667 19.441 186.173 51.271 27.949 15.769 53.975 32.57 84.452 52.942 8.666 5.793 17.397 11.688 25.842 17.388 51.59 34.829 100.33 67.727 157.29 94.552 23.15 10.907 47.46 21.415 72.26 31.232 30.86 12.174 61.81 23.11 92.01 32.504 47.41 14.748 106.41 33.102 165.13 24.839 32.09-4.517 56.14-15.493 73.5-33.553 33.88-35.009 35.92-89.038 37.56-132.45.53-14.165 1.04-27.546 2.66-38.327l.03-.246c3.63-24.142 7.37-49.105 15.97-73.735 7.44-21.483 17.8-40.798 30.8-57.412 14.66-18.73 32.73-34.068 53.71-45.588 14.04-7.708 28.9-13.832 45.41-18.719 44.62-13.28 99.29-15.33 158.12-5.923 23.67 3.785 47.02 9.519 69.41 17.04 22.51 7.565 43.59 16.789 62.64 27.409 43.03 23.955 78.7 55.044 106.02 92.404 24.56 33.581 41.7 71.887 49.58 110.775l-1.54.141c-16.86-83.232-73.37-157.046-155.06-202.514-38.19-21.296-83.64-36.594-131.41-44.23-58.49-9.352-112.82-7.324-157.12 5.865-16.39 4.85-31.12 10.924-45.06 18.57-39.18 21.51-68.22 56.929-83.98 102.426-8.57 24.566-12.31 49.494-15.93 73.602l-.04.246c-1.61 10.742-2.12 24.103-2.65 38.248-1.65 43.545-3.69 97.736-37.82 132.992-8.37 8.709-18.57 15.934-30.3 21.474-12.65 5.973-27.51 10.189-44.19 12.538-9.93 1.394-20.16 2.094-30.77 2.094Z"/><path d="M85.88 481.309c-21.457 0-44.822-2.812-71.192-8.553-26.202-5.705-52.114-13.581-76.216-21.24-4.363-1.395-8.694-2.787-12.996-4.169-21.412-6.883-41.638-13.383-60.54-18.447-75.373-20.185-147.217-38.327-216.698-55.867l-11.512-2.908.578-1.037 11.513 2.907c69.484 17.546 141.34 35.687 216.727 55.877 18.954 5.076 39.205 11.584 60.643 18.477 4.298 1.382 8.629 2.775 12.989 4.167 49.475 15.722 102.04 30.958 153.02 29.6 62.67-1.754 100.226-34.588 125.94-62.993 6.588-7.265 12.934-14.505 17.727-20a3720.36 3720.36 0 0 0 7.892-9.073c21.728-25.024 42.25-48.661 69.239-70.948 35.626-29.413 81.268-59.314 128.527-84.191 43.844-23.08 88.087-41.315 131.505-54.198 49.802-14.778 98.445-22.447 144.579-22.794 69.419-.695 133.894 15.367 191.61 47.734 31.994 17.965 60.68 37.398 84.525 54.039 12.97 9.056 25.95 18.339 38.5 27.316 44.42 31.781 90.35 64.642 141.86 91.258 23.01 11.892 47.17 23.415 71.78 34.245 30.47 13.374 61.41 25.651 91.97 36.488 47.76 16.94 107.2 38.021 166.92 30.54 32.87-4.118 57.07-15.158 73.97-33.751 33.44-36.596 31.18-93.584 29.36-139.374-.53-13.541-1.04-26.333-.43-36.631 1.37-23.216 3.44-50.197 10.61-76.623 6.05-22.393 15.17-42.651 27.12-60.211 13.52-19.865 30.85-36.518 51.49-49.5 13.68-8.602 29.01-15.904 45.56-21.705 23.61-8.304 50.12-13.526 78.77-15.517 26.84-1.865 55.13-.885 84.1 2.913 24.42 3.203 48.5 8.472 71.56 15.663 23.2 7.234 44.83 16.249 64.29 26.79 22.43 12.14 43.05 26.474 61.3 42.607 17.28 15.286 32.6 32.334 45.53 50.668 24.19 34.299 40.11 73.397 46.03 113.059l-1.64.111c-12.72-85.172-68.21-160.102-152.26-205.58-38.49-20.852-86.47-35.85-135.13-42.229-60.16-7.888-116.1-3.566-161.79 12.499-16.42 5.754-31.63 12.998-45.2 21.532-38.89 24.46-65.18 61.165-78.11 109.099-7.15 26.355-9.22 53.289-10.59 76.468-.6 10.261-.1 23.033.44 36.557.89 22.59 1.91 48.196-1.49 72.949-3.95 28.723-13.14 50.65-28.11 67.034-8.15 8.965-18.27 16.346-30.08 21.935-12.75 6.037-27.89 10.184-44.99 12.326-8.63 1.082-17.25 1.572-25.82 1.572-51.33 0-101.06-17.639-142.18-32.222-30.6-10.855-61.59-23.149-92.09-36.543-24.66-10.845-48.85-22.385-71.89-34.294-51.62-26.671-97.6-59.566-142.06-91.377-12.55-8.974-25.52-18.255-38.483-27.306-23.813-16.621-52.458-36.027-84.394-53.957-57.404-32.195-121.502-48.163-190.532-47.478-108.408.818-209.432 42.19-275.092 76.756-47.163 24.827-92.714 54.664-128.262 84.018-26.909 22.22-47.402 45.82-69.096 70.805-2.62 3.019-5.251 6.045-7.896 9.076-4.797 5.497-11.146 12.742-17.738 20.014-10.794 11.925-27.74 29.283-50.186 42.294a155.034 155.034 0 0 1-34.479 14.761c-13.355 3.876-27.696 6.054-42.616 6.471-2.114.061-4.243.091-6.386.091Z"/><path d="M92.769 515.619c-21.482 0-44.8-3.028-71.03-9.209-27.159-6.397-54.009-15.391-76.689-23.348-6.969-2.45-13.923-4.934-20.65-7.336-18.804-6.715-36.567-13.061-53.315-18.241-60.145-18.605-119.898-36.768-177.687-54.336-19.115-5.811-38.879-11.818-58.035-17.654l.718-1.067c19.156 5.836 38.92 11.843 58.035 17.654 57.789 17.568 117.549 35.734 177.698 54.341 16.792 5.195 34.577 11.545 53.403 18.27a4508.518 4508.518 0 0 0 20.64 7.334C-7.106 498.522 47.455 515.984 99.7 514.34c64.146-2.065 100.175-37.917 124.401-68.919 6.211-7.943 12.216-15.917 16.752-21.977 2.33-3.109 4.646-6.217 6.958-9.317 20.782-27.883 40.41-54.218 66.945-79.508 34.512-32.893 80.118-66.936 128.41-95.859 67.253-40.106 171.197-89.026 284.467-94.331 72.035-3.465 138.335 11.404 197.051 44.198 26.381 14.742 52.469 31.745 84.595 55.138 16.24 11.821 32.35 24.073 47.93 35.918 40.53 30.821 82.44 62.691 129.67 89.292 22.87 12.89 46.86 25.426 71.29 37.259 29.59 14.315 60.51 27.932 91.92 40.475 48.25 19.15 108.29 42.986 168.73 36.239 33.13-3.622 58.17-15.044 74.43-33.944 32.97-38.253 25.9-100.835 20.73-146.529-1.45-12.824-2.82-24.935-3.09-34.706-.6-21.715-.55-50.347 5.23-79.265 9.97-50.11 34.43-89.281 72.69-116.42 13.41-9.561 28.8-17.868 45.71-24.692 24.07-9.719 51.22-16.256 80.71-19.428 27.79-2.986 57.03-2.94 86.91.14 25.22 2.657 50.02 7.472 73.71 14.308 23.93 6.905 46.11 15.702 65.95 26.148 22.93 12.07 43.88 26.454 62.26 42.755 17.43 15.448 32.69 32.737 45.38 51.391 23.82 35.022 38.51 74.908 42.48 115.346l-1.74.077c-8.56-87.116-63.03-163.165-149.45-208.645-39.18-20.633-88.5-34.918-138.85-40.221-62.07-6.395-119.63.222-166.46 19.135-16.78 6.766-32.03 15.007-45.34 24.492-38.01 26.958-62.31 65.908-72.23 115.772-5.76 28.839-5.81 57.414-5.22 79.087.28 9.736 1.64 21.833 3.09 34.64 2.67 23.62 5.7 50.394 3.97 76.532-2.02 30.435-10.17 53.552-24.93 70.672-7.94 9.233-17.98 16.774-29.85 22.412-12.86 6.113-28.27 10.184-45.8 12.102-27.19 3.033-56.45.308-89.46-8.334-28.69-7.514-56.18-18.426-80.44-28.051-31.45-12.56-62.42-26.197-92.05-40.532-24.47-11.85-48.49-24.403-71.4-37.311-47.32-26.655-89.28-58.56-129.86-89.412-15.57-11.843-31.67-24.088-47.89-35.899-32.076-23.351-58.116-40.322-84.435-55.029-58.368-32.607-124.247-47.387-195.824-43.945-112.782 5.286-216.382 54.056-283.434 94.041-48.196 28.863-93.707 62.835-128.145 95.659-26.462 25.219-46.061 51.517-66.81 79.358-2.312 3.103-4.628 6.21-6.958 9.32-4.54 6.064-10.549 14.046-16.767 21.996-24.439 31.278-60.83 67.451-125.859 69.543-2.312.071-4.653.108-7.01.108Z"/><path d="M99.796 549.924c-58.697 0-120.286-24.246-174.884-45.742-16.777-6.604-32.624-12.843-47.683-18.119L-366 400.857l.846-1.092 243.229 85.206c15.1 5.288 30.965 11.535 47.764 18.149 56.709 22.326 120.986 47.632 181.366 45.438 65.56-2.378 100.097-41.249 122.862-74.843 7.445-10.989 14.634-22.169 21.588-32.982 19.02-29.571 38.685-60.149 64.857-88.609 20.782-22.597 46.599-46.295 74.658-68.53 30.782-24.394 63.74-46.774 97.951-66.517 37.721-21.767 76.076-39.773 113.995-53.516 41.942-15.2 83.261-25.123 122.818-29.497 79.242-8.761 151.313 4.534 214.206 39.519 52.267 29.07 96.69 65.019 139.65 99.784 37.4 30.261 76.06 61.549 119.85 88.296 50.57 30.892 105.31 59.401 162.69 84.73 48.35 21.343 108.52 47.908 170.53 41.937 52.38-5.042 82.66-28.61 92.57-72.054 8.44-36.954.41-80.79-6.03-116.012-2.2-12.003-4.27-23.341-5.29-32.535-5.62-50.684-2.04-92.525 10.95-127.909 8.1-22.077 20.06-41.756 35.54-58.49 17.29-18.695 39.49-34.278 65.99-46.319 22.91-10.416 48.74-17.981 76.77-22.486 26.68-4.288 54.76-5.724 83.48-4.27 56.48 2.858 111.73 16.796 155.57 39.243 23.43 11.998 44.71 26.434 63.24 42.902 17.56 15.608 32.77 33.142 45.21 52.116 23.44 35.744 36.9 76.421 38.93 117.63l-1.83.042c-4.32-87.756-59.15-166.9-146.66-211.707C1948.36.896 1816.43-4.34 1727.6 36.034c-87.99 39.995-124.52 115.753-111.67 231.604 1.01 9.164 3.09 20.487 5.28 32.476 6.46 35.298 14.5 79.228 6.03 116.349-4.62 20.219-13.89 36.468-27.57 48.299-7.7 6.651-16.97 12.087-27.57 16.153-11.28 4.327-24.4 7.233-38.98 8.637-5.96.574-12.03.863-18.19.863-22.48 0-46.41-3.822-72.64-11.565-29.55-8.723-58.06-21.311-80.97-31.424-57.46-25.367-112.27-53.913-162.92-84.849-43.89-26.803-82.59-58.128-120.03-88.421-42.9-34.721-87.271-70.625-139.406-99.622-62.472-34.746-134.049-47.954-212.744-39.253-159.188 17.6-323.167 125.08-408.162 217.494-26.102 28.38-45.741 58.917-64.736 88.449-6.958 10.818-14.15 22.005-21.603 33.003-15.114 22.304-30.041 38.275-46.976 50.256-10.571 7.476-22.039 13.371-34.086 17.518-13.396 4.611-27.986 7.233-43.368 7.792a216.76 216.76 0 0 1-7.493.131Z"/></g></svg>