<svg xmlns="http://www.w3.org/2000/svg" width="1165" height="338" fill="none"><path fill="#01DCA2" d="M204.578 4.603v41.002c.324 4.202-.714 5.444-4.864 5.56h-39.612c-5.151.195-6.529 1.624-6.602 6.254V97.03c.727 4.49 2.309 5.537 6.602 5.56h39.612c4.277.035 5.006 1.459 4.864 5.212v38.221c-.103 4.58 1.044 6.107 4.865 7.297h41.349c3.918-1.147 5.2-2.632 5.212-7.297v-38.221c-.128-4.163 1.114-5.119 4.864-5.212h38.917c5.201-.197 6.976-1.213 6.949-5.56V57.42c-.591-4.253-1.772-5.995-7.644-6.255h-38.222c-3.93.193-5.148-.846-4.864-5.56v-41c-.77-3.336-2.025-4.287-5.212-4.518 0 0-37.492-.194-41.349 0-3.858.194-4.751 2.242-4.865 4.517Z"/><path fill="#04BBFD" d="m233.5 307.562-10.424 30.23c-2.421-73.83-121.962-99.377-178.6-134.819C26.29 180.875 15.701 167.71 0 144.946c7.602-8.311 15.289-6.95 23.975 3.822 10.996 3.172 11.814 14.246 28.493 24.67l-7.992-12.161c8.276-10.955 15.288 2.21 16.679 3.475 6.943 8.799 11.33 14.821 13.984 18.822.414-.288 1.06-.443 2-.407 54.453 2.127 69.418 25.138 87.214 10.425-13.898-22.586-52.12-54.206-21.89-66.367 2.893-.209 3.545.246 5.212 1.042 20.501 21.891 27.797 39.612 56.985 67.062 11.814 13.899 16.661 27.955 28.84 39.264v72.969Z"/><path fill="#04BBFD" d="m226.735 307.562 10.424 30.23c2.42-73.83 121.962-99.377 178.599-134.819 18.188-22.098 28.776-35.263 44.477-58.027-7.602-8.311-15.289-6.95-23.976 3.822-10.996 3.172-11.814 14.246-28.492 24.67l7.991-12.161c-8.276-10.955-15.287 2.21-16.678 3.475-6.944 8.799-11.329 14.821-13.984 18.822-.414-.288-1.06-.443-2-.407-54.453 2.127-69.418 25.138-87.215 10.425 13.899-22.586 52.121-54.206 21.891-66.367-2.893-.209-3.545.246-5.212 1.042-20.501 21.891-27.798 39.612-56.985 67.062-11.814 13.899-16.662 27.955-28.84 39.264v72.969Z"/><path fill="#fff" d="M548.068 132V62.182h14.762v28.807h29.965V62.182h14.728V132h-14.728v-28.841H562.83V132h-14.762Zm95.216 1.023c-5.386 0-10.023-1.091-13.909-3.273-3.864-2.205-6.841-5.318-8.932-9.341-2.091-4.045-3.136-8.829-3.136-14.352 0-5.387 1.045-10.114 3.136-14.182s5.034-7.239 8.83-9.511c3.818-2.273 8.295-3.41 13.432-3.41 3.454 0 6.67.557 9.647 1.671 3 1.09 5.614 2.739 7.841 4.943 2.25 2.205 4 4.978 5.25 8.318 1.25 3.319 1.875 7.205 1.875 11.659v3.989h-44.216v-9h30.546c0-2.09-.455-3.943-1.364-5.557a9.764 9.764 0 0 0-3.784-3.784c-1.591-.932-3.443-1.397-5.557-1.397-2.204 0-4.159.51-5.863 1.533-1.682 1-3 2.353-3.955 4.057-.955 1.682-1.443 3.557-1.466 5.625v8.557c0 2.591.477 4.83 1.432 6.716.977 1.886 2.352 3.341 4.125 4.364 1.773 1.022 3.875 1.534 6.307 1.534 1.613 0 3.091-.227 4.432-.682 1.34-.455 2.488-1.136 3.443-2.045.954-.91 1.682-2.023 2.182-3.341l13.431.886c-.681 3.227-2.079 6.045-4.193 8.455-2.091 2.386-4.795 4.25-8.113 5.59-3.296 1.319-7.103 1.978-11.421 1.978Zm48.443-.034c-3.341 0-6.318-.58-8.932-1.739-2.613-1.182-4.681-2.92-6.204-5.216-1.5-2.318-2.25-5.204-2.25-8.659 0-2.909.534-5.352 1.602-7.33 1.068-1.977 2.523-3.568 4.364-4.772 1.841-1.205 3.932-2.114 6.273-2.728a47.864 47.864 0 0 1 7.431-1.295c3.046-.318 5.5-.614 7.364-.886 1.864-.296 3.216-.728 4.057-1.296.841-.568 1.261-1.409 1.261-2.522v-.205c0-2.16-.682-3.83-2.045-5.011-1.341-1.182-3.25-1.773-5.728-1.773-2.613 0-4.693.58-6.238 1.739-1.546 1.136-2.568 2.568-3.068 4.295L676.182 94.5c.682-3.182 2.023-5.932 4.023-8.25 2-2.34 4.579-4.136 7.738-5.386 3.182-1.273 6.864-1.91 11.046-1.91 2.909 0 5.693.342 8.352 1.023 2.682.682 5.057 1.739 7.125 3.17a15.402 15.402 0 0 1 4.943 5.523c1.205 2.228 1.807 4.898 1.807 8.012V132h-13.773v-7.261h-.409a14.784 14.784 0 0 1-3.375 4.329c-1.409 1.227-3.102 2.193-5.079 2.898-1.978.682-4.262 1.023-6.853 1.023Zm4.159-10.023c2.137 0 4.023-.421 5.659-1.261 1.637-.864 2.921-2.023 3.853-3.478.932-1.454 1.397-3.102 1.397-4.943v-5.557c-.454.296-1.079.568-1.875.818-.772.228-1.647.444-2.625.648-.977.182-1.954.352-2.931.512-.978.136-1.864.261-2.659.375-1.705.25-3.194.647-4.466 1.193-1.273.545-2.262 1.284-2.966 2.216-.705.909-1.057 2.045-1.057 3.409 0 1.977.716 3.488 2.148 4.534 1.454 1.023 3.295 1.534 5.522 1.534Zm51.12-60.784V132h-14.523V62.182h14.523Zm39.485 17.454v10.91h-31.534v-10.91h31.534Zm-24.375-12.545h14.523v48.818c0 1.341.205 2.386.614 3.136.409.728.977 1.239 1.704 1.535.75.295 1.614.443 2.591.443.682 0 1.364-.057 2.046-.171.682-.136 1.204-.238 1.568-.307l2.284 10.807c-.727.228-1.75.489-3.068.784-1.318.319-2.921.512-4.807.58-3.5.136-6.568-.33-9.205-1.398-2.613-1.068-4.647-2.727-6.102-4.977-1.454-2.25-2.17-5.091-2.148-8.523V67.091Zm49.483 34.636V132h-14.522V62.182h14.113v26.693h.614c1.182-3.09 3.091-5.511 5.727-7.261 2.637-1.773 5.943-2.66 9.921-2.66 3.636 0 6.807.796 9.511 2.387 2.727 1.568 4.841 3.83 6.341 6.784 1.523 2.932 2.273 6.443 2.25 10.534V132h-14.523v-30.75c.023-3.227-.795-5.739-2.454-7.534-1.637-1.795-3.932-2.693-6.887-2.693-1.977 0-3.727.42-5.25 1.261-1.5.841-2.681 2.068-3.545 3.682-.841 1.59-1.273 3.511-1.296 5.761Zm65.216-27.375v-12.17h57.341v12.17h-21.375V132H898.19V74.352h-21.375Zm82.782 58.671c-5.387 0-10.023-1.091-13.909-3.273-3.864-2.205-6.841-5.318-8.932-9.341-2.091-4.045-3.137-8.829-3.137-14.352 0-5.387 1.046-10.114 3.137-14.182s5.034-7.239 8.829-9.511c3.818-2.273 8.296-3.41 13.432-3.41 3.455 0 6.671.557 9.648 1.671 3 1.09 5.613 2.739 7.841 4.943 2.25 2.205 4 4.978 5.25 8.318 1.25 3.319 1.875 7.205 1.875 11.659v3.989h-44.216v-9h30.545c0-2.09-.454-3.943-1.363-5.557a9.767 9.767 0 0 0-3.785-3.784c-1.59-.932-3.443-1.397-5.556-1.397-2.205 0-4.159.51-5.864 1.533-1.682 1-3 2.353-3.954 4.057-.955 1.682-1.444 3.557-1.466 5.625v8.557c0 2.591.477 4.83 1.431 6.716.978 1.886 2.353 3.341 4.125 4.364 1.773 1.022 3.875 1.534 6.307 1.534 1.614 0 3.091-.227 4.432-.682 1.341-.455 2.489-1.136 3.443-2.045.955-.91 1.682-2.023 2.182-3.341l13.432.886c-.682 3.227-2.08 6.045-4.193 8.455-2.091 2.386-4.796 4.25-8.114 5.59-3.295 1.319-7.102 1.978-11.42 1.978Zm57.173 0c-5.37 0-9.98-1.137-13.84-3.409-3.845-2.296-6.799-5.478-8.868-9.546-2.045-4.068-3.068-8.75-3.068-14.045 0-5.364 1.034-10.069 3.103-14.114 2.091-4.068 5.056-7.239 8.893-9.511 3.85-2.296 8.41-3.444 13.71-3.444 4.57 0 8.57.83 12 2.49 3.43 1.658 6.15 3.988 8.15 6.988 2 3 3.1 6.522 3.3 10.568h-13.7c-.39-2.614-1.41-4.716-3.07-6.307-1.64-1.614-3.78-2.42-6.44-2.42-2.25 0-4.22.613-5.9 1.84-1.66 1.205-2.95 2.966-3.89 5.285-.93 2.318-1.39 5.125-1.39 8.42 0 3.341.45 6.182 1.36 8.523.93 2.341 2.24 4.125 3.92 5.352 1.68 1.227 3.65 1.841 5.9 1.841 1.66 0 3.15-.341 4.46-1.023a8.605 8.605 0 0 0 3.31-2.966c.89-1.318 1.47-2.897 1.74-4.738h13.7c-.22 4-1.31 7.523-3.27 10.568-1.93 3.023-4.6 5.386-8.01 7.091-3.41 1.704-7.44 2.557-12.1 2.557Zm47.2-31.296V132h-14.52V62.182h14.12v26.693h.61c1.18-3.09 3.09-5.511 5.73-7.261 2.63-1.773 5.94-2.66 9.92-2.66 3.63 0 6.8.796 9.51 2.387 2.73 1.568 4.84 3.83 6.34 6.784 1.52 2.932 2.27 6.443 2.25 10.534V132h-14.52v-30.75c.02-3.227-.8-5.739-2.46-7.534-1.63-1.795-3.93-2.693-6.88-2.693-1.98 0-3.73.42-5.25 1.261-1.5.841-2.69 2.068-3.55 3.682-.84 1.59-1.27 3.511-1.3 5.761ZM593.072 226.564c-.888 3.355-2.566 5.723-5.032 7.104-2.418 1.381-5.106 2.072-8.066 2.072-5.476 0-9.571-1.653-12.284-4.958-2.714-3.355-4.07-7.819-4.07-13.394v-1.48c0-5.525 1.307-9.941 3.922-13.246 2.614-3.355 6.413-5.032 11.396-5.032 2.664 0 5.081.543 7.252 1.628 2.22 1.085 3.971 2.689 5.254 4.81 1.332 2.121 1.998 4.761 1.998 7.918 0 1.48-.148 3.034-.444 4.662H570.28v2.22c0 5.18.789 8.905 2.368 11.174 1.628 2.22 4.242 3.33 7.844 3.33 2.269 0 4.144-.592 5.624-1.776 1.529-1.184 2.54-3.231 3.034-6.142l3.922 1.11Zm-14.134-26.566c-2.911 0-5.082 1.11-6.512 3.33-1.431 2.22-2.146 5.871-2.146 10.952h16.65v-.222c.098-.641.172-1.258.222-1.85.049-.641.074-1.209.074-1.702 0-3.7-.765-6.364-2.294-7.992-1.53-1.677-3.528-2.516-5.994-2.516Zm84.907 33.152V235h-11.396v-5.846c-1.53 2.269-3.232 3.947-5.106 5.032-1.826 1.036-3.873 1.554-6.142 1.554-4.243 0-7.548-1.579-9.916-4.736-2.319-3.207-3.478-7.721-3.478-13.542v-1.48c0-5.575 1.356-10.015 4.07-13.32 2.762-3.355 6.536-5.032 11.322-5.032 3.502 0 6.462 1.085 8.88 3.256v-14.652c0-1.727-.074-2.738-.222-3.034-.148-.296-.617-.493-1.406-.592l-4.07-.37v-1.998h11.766v48.766c0 1.727.074 2.738.222 3.034.148.296.616.493 1.406.592l4.07.518Zm-29.378-13.468c0 4.637.666 8.041 1.998 10.212 1.381 2.171 3.28 3.256 5.698 3.256 1.578 0 3.206-.493 4.884-1.48 1.677-.987 3.354-2.985 5.032-5.994v-21.164c-2.171-2.911-5.008-4.366-8.51-4.366-3.158 0-5.476 1.209-6.956 3.626-1.431 2.417-2.146 5.747-2.146 9.99v5.92Zm98.795 13.394V235h-11.396v-5.92c-1.726 2.319-3.7 4.021-5.92 5.106-2.17 1.036-4.341 1.554-6.512 1.554-3.502 0-6.24-1.11-8.214-3.33-1.924-2.269-2.886-5.451-2.886-9.546v-18.5c0-1.727-.074-2.738-.222-3.034-.148-.296-.616-.493-1.406-.592l-4.07-.37v-1.998h11.766v24.42c0 3.651.543 6.241 1.628 7.77 1.135 1.48 2.763 2.22 4.884 2.22 1.579 0 3.306-.493 5.18-1.48 1.924-.987 3.725-2.886 5.402-5.698v-21.238c0-1.727-.074-2.738-.222-3.034-.148-.345-.616-.543-1.406-.592l-5.55-.37v-1.998h13.246v30.636c0 1.727.074 2.738.222 3.034.148.296.617.493 1.406.592l4.07.444Zm47.185-33.078c-2.713 0-4.835 1.135-6.364 3.404-1.48 2.22-2.22 5.895-2.22 11.026v4.44c0 5.18.74 8.905 2.22 11.174 1.529 2.22 3.996 3.33 7.4 3.33 2.319 0 4.193-.592 5.624-1.776 1.431-1.184 2.393-3.231 2.886-6.142l3.922 1.11c-.888 3.355-2.516 5.723-4.884 7.104-2.368 1.381-5.007 2.072-7.918 2.072-5.328 0-9.324-1.653-11.988-4.958-2.615-3.355-3.922-7.819-3.922-13.394v-1.48c0-5.525 1.307-9.941 3.922-13.246 2.615-3.355 6.389-5.032 11.322-5.032 3.157 0 5.772.617 7.844 1.85 2.121 1.233 3.626 2.911 4.514 5.032.888 2.072 1.135 4.366.74 6.882l-5.846.888c.543-3.947.173-6.981-1.11-9.102-1.233-2.121-3.281-3.182-6.142-3.182Zm75.477 35.52c-3.848 0-6.118-1.776-6.808-5.328-1.727 1.973-3.626 3.404-5.698 4.292-2.072.839-4.12 1.258-6.142 1.258-3.454 0-5.994-.962-7.622-2.886-1.628-1.924-2.442-4.243-2.442-6.956 0-2.911.986-5.205 2.96-6.882 2.022-1.727 5.5-2.59 10.434-2.59h8.362v-5.994c0-3.947-.691-6.66-2.072-8.14-1.332-1.529-3.158-2.294-5.476-2.294-1.48 0-2.812.296-3.996.888-1.184.592-2.048 1.677-2.59 3.256-.494 1.529-.543 3.774-.148 6.734l-5.846-.888c-.247-2.319.049-4.391.888-6.216.888-1.875 2.318-3.355 4.292-4.44 2.022-1.135 4.538-1.702 7.548-1.702 3.601 0 6.364.617 8.288 1.85 1.924 1.184 3.256 2.738 3.996 4.662.789 1.924 1.184 4.021 1.184 6.29v16.65c0 2.516.271 4.095.814 4.736.592.641 1.233.962 1.924.962.444 0 .912-.099 1.406-.296.493-.247 1.036-.617 1.628-1.11l1.332 1.85c-.74.641-1.628 1.184-2.664 1.628-.987.444-2.171.666-3.552.666Zm-16.576-2.886c1.381 0 2.861-.37 4.44-1.11 1.628-.789 3.354-2.343 5.18-4.662v-8.066h-7.548c-2.763 0-4.786.567-6.068 1.702-1.234 1.085-1.85 2.787-1.85 5.106 0 2.22.468 3.947 1.406 5.18.986 1.233 2.466 1.85 4.44 1.85Zm75.631-5.18c-.74 2.861-1.9 4.958-3.478 6.29-1.579 1.332-3.602 1.998-6.068 1.998-2.368 0-4.292-.518-5.772-1.554a9.49 9.49 0 0 1-3.256-4.218 14.407 14.407 0 0 1-1.036-5.402v-20.202c0-1.727-.074-2.738-.222-3.034-.099-.296-.568-.493-1.406-.592l-4.07-.37v-1.998h5.698v-9.694l6.068-1.258v10.952h12.062v2.368h-12.062v24.42c0 3.108.419 5.254 1.258 6.438.888 1.184 2.047 1.776 3.478 1.776 1.43 0 2.516-.543 3.256-1.628.789-1.085 1.356-2.861 1.702-5.328l3.848 1.036Zm38.015-37.37c-1.184 0-2.171-.37-2.96-1.11-.74-.789-1.11-1.801-1.11-3.034 0-1.184.37-2.146 1.11-2.886.789-.74 1.776-1.11 2.96-1.11s2.146.37 2.886 1.11c.789.74 1.184 1.702 1.184 2.886 0 1.233-.395 2.245-1.184 3.034-.74.74-1.702 1.11-2.886 1.11Zm-8.658 10.286v-1.998h11.766v30.636c0 1.727.074 2.738.222 3.034.148.296.616.493 1.406.592l4.07.444V235h-17.464v-1.924l4.07-.444c.789-.099 1.258-.296 1.406-.592.148-.296.222-1.307.222-3.034v-24.642c0-1.727-.074-2.738-.222-3.034-.148-.296-.617-.493-1.406-.592l-4.07-.37Zm81.314 15.54v1.48c0 5.575-1.41 10.039-4.22 13.394-2.76 3.305-6.71 4.958-11.84 4.958-5.08 0-9.03-1.653-11.839-4.958-2.763-3.355-4.144-7.819-4.144-13.394v-1.48c0-5.525 1.381-9.941 4.144-13.246 2.759-3.355 6.709-5.032 11.839-5.032 5.13 0 9.08 1.677 11.84 5.032 2.81 3.305 4.22 7.721 4.22 13.246Zm-6.66-1.48c0-5.131-.81-8.806-2.44-11.026-1.58-2.269-3.9-3.404-6.96-3.404-3.01 0-5.33 1.135-6.95 3.404-1.58 2.22-2.37 5.895-2.37 11.026v4.44c0 5.18.79 8.905 2.37 11.174 1.62 2.22 3.94 3.33 6.95 3.33 3.06 0 5.38-1.11 6.96-3.33 1.63-2.269 2.44-5.994 2.44-11.174v-4.44Zm80.34 18.648V235h-17.47v-1.924l4.07-.444c.79-.099 1.26-.296 1.41-.592.15-.296.22-1.307.22-3.034V210.58c0-3.651-.59-6.216-1.78-7.696-1.18-1.529-2.88-2.294-5.1-2.294-1.63 0-3.43.493-5.4 1.48-1.98.987-3.83 2.911-5.55 5.772v21.164c0 1.727.07 2.738.22 3.034.15.296.62.493 1.4.592l4.07.444V235h-17.46v-1.924l4.07-.444c.79-.099 1.26-.296 1.41-.592.14-.296.22-1.307.22-3.034v-24.642c0-1.727-.08-2.738-.22-3.034-.15-.296-.62-.493-1.41-.592l-4.07-.37v-1.998h11.4v5.994c1.77-2.368 3.77-4.07 5.99-5.106 2.27-1.085 4.54-1.628 6.81-1.628 3.65 0 6.46 1.135 8.43 3.404 2.03 2.22 3.04 5.377 3.04 9.472v18.5c0 1.727.07 2.738.22 3.034.15.296.62.493 1.41.592l4.07.444Z"/></svg>