<svg xmlns="http://www.w3.org/2000/svg" width="17" height="14" fill="none"><path fill="#F7F7EE" d="M17 1.729a7.266 7.266 0 0 1-2.008.55A3.466 3.466 0 0 0 16.525.353a6.966 6.966 0 0 1-2.21.844A3.484 3.484 0 0 0 8.286 3.58c0 .276.024.542.081.795A9.865 9.865 0 0 1 1.184.729a3.49 3.49 0 0 0 1.071 4.658 3.442 3.442 0 0 1-1.575-.43v.04c0 1.693 1.208 3.1 2.792 3.424a3.478 3.478 0 0 1-.913.114c-.224 0-.449-.012-.66-.06a3.518 3.518 0 0 0 3.256 2.429 7.003 7.003 0 0 1-4.32 1.486A6.52 6.52 0 0 1 0 12.342a9.811 9.811 0 0 0 5.346 1.564c6.414 0 9.92-5.312 9.92-9.917 0-.154-.005-.303-.013-.45A6.954 6.954 0 0 0 17 1.728Z"/></svg>