<svg width="212" height="55" viewBox="0 0 212 55" fill="none" xmlns="http://www.w3.org/2000/svg">
<path d="M32.4263 0.73926V7.32409C32.4782 7.99904 32.3115 8.19851 31.645 8.21694H25.2834C24.4561 8.2484 24.2349 8.47794 24.2231 9.22141V15.583C24.3399 16.3041 24.5939 16.4722 25.2834 16.4759H31.645C32.3319 16.4815 32.449 16.7102 32.4263 17.3129V23.4513C32.4097 24.1868 32.594 24.4319 33.2075 24.6232H39.8481C40.4774 24.4389 40.6833 24.2005 40.6852 23.4513V17.3129C40.6647 16.6444 40.8641 16.4909 41.4664 16.4759H47.7164C48.5517 16.4442 48.8369 16.2811 48.8325 15.583V9.22141C48.7375 8.53847 48.5479 8.25866 47.6048 8.21694H41.4664C40.8353 8.24792 40.6396 8.08104 40.6852 7.32409V0.73926C40.5616 0.203566 40.36 0.0509631 39.8481 0.0138133C39.8481 0.0138133 33.827 -0.0172667 33.2075 0.0138133C32.588 0.0448933 32.4445 0.373847 32.4263 0.73926Z" fill="#01DCA2"/>
<path d="M37.5 49.3941L35.8259 54.249C35.4372 42.392 16.2388 38.2892 7.14286 32.5972C4.222 29.0483 2.52154 26.9339 0 23.278C1.22086 21.9433 2.45536 22.162 3.85045 23.8919C5.61636 24.4012 5.74777 26.1798 8.42634 27.8539L7.14286 25.9008C8.47199 24.1415 9.59799 26.2558 9.82143 26.4588C10.9366 27.8721 11.6409 28.8391 12.0672 29.4818C12.1338 29.4355 12.2374 29.4105 12.3884 29.4164C21.1336 29.7579 23.5369 33.4536 26.3951 31.0905C24.1629 27.4633 18.0246 22.3852 22.8795 20.432C23.3441 20.3985 23.4488 20.4716 23.7165 20.5995C27.0089 24.1151 28.1808 26.9611 32.8683 31.3696C34.7656 33.6017 35.5441 35.8592 37.5 37.6754V49.3941Z" fill="#18A0FB"/>
<path d="M35.5 49.3941L37.1741 54.249C37.5628 42.392 56.7612 38.2892 65.8571 32.5972C68.778 29.0483 70.4785 26.9339 73 23.278C71.7791 21.9433 70.5446 22.162 69.1496 23.8919C67.3836 24.4012 67.2522 26.1798 64.5737 27.8539L65.8571 25.9008C64.528 24.1415 63.402 26.2558 63.1786 26.4588C62.0634 27.8721 61.3591 28.8391 60.9328 29.4818C60.8662 29.4355 60.7626 29.4105 60.6116 29.4164C51.8664 29.7579 49.4631 33.4536 46.6049 31.0905C48.8371 27.4633 54.9754 22.3852 50.1205 20.432C49.6559 20.3985 49.5512 20.4716 49.2835 20.5995C45.9911 24.1151 44.8192 26.9611 40.1317 31.3696C38.2344 33.6017 37.4559 35.8592 35.5 37.6754V49.3941Z" fill="#18A0FB"/>
<path d="M83.2642 29V14.4545H86.3395V20.456H92.5824V14.4545H95.6506V29H92.5824V22.9915H86.3395V29H83.2642ZM104.101 29.2131C102.979 29.2131 102.013 28.9858 101.203 28.5312C100.398 28.072 99.7779 27.4233 99.3423 26.5852C98.9067 25.7424 98.6889 24.7457 98.6889 23.5952C98.6889 22.473 98.9067 21.4882 99.3423 20.6406C99.7779 19.7931 100.391 19.1326 101.182 18.6591C101.977 18.1856 102.91 17.9489 103.98 17.9489C104.7 17.9489 105.37 18.0649 105.99 18.2969C106.615 18.5241 107.16 18.8674 107.624 19.3267C108.092 19.786 108.457 20.3636 108.717 21.0597C108.978 21.7509 109.108 22.5606 109.108 23.4886V24.3196H99.8963V22.4446H106.26C106.26 22.009 106.165 21.6231 105.976 21.2869C105.786 20.9508 105.524 20.688 105.188 20.4986C104.856 20.3045 104.47 20.2074 104.03 20.2074C103.571 20.2074 103.163 20.3139 102.808 20.527C102.458 20.7353 102.183 21.017 101.984 21.3722C101.786 21.7225 101.684 22.1132 101.679 22.544V24.3267C101.679 24.8665 101.778 25.3329 101.977 25.7259C102.181 26.1188 102.467 26.4219 102.837 26.6349C103.206 26.848 103.644 26.9545 104.151 26.9545C104.487 26.9545 104.795 26.9072 105.074 26.8125C105.353 26.7178 105.592 26.5758 105.791 26.3864C105.99 26.197 106.142 25.965 106.246 25.6903L109.044 25.875C108.902 26.5473 108.611 27.1345 108.17 27.6364C107.735 28.1335 107.171 28.5218 106.48 28.8011C105.794 29.0758 105 29.2131 104.101 29.2131ZM115.193 29.206C114.497 29.206 113.877 29.0852 113.332 28.8438C112.788 28.5975 112.357 28.2353 112.04 27.7571C111.727 27.2741 111.571 26.6728 111.571 25.9531C111.571 25.3471 111.682 24.8381 111.905 24.4261C112.127 24.0142 112.43 23.6828 112.814 23.4318C113.197 23.1809 113.633 22.9915 114.121 22.8636C114.613 22.7358 115.129 22.6458 115.669 22.5938C116.304 22.5275 116.815 22.4659 117.203 22.4091C117.591 22.3475 117.873 22.2576 118.048 22.1392C118.223 22.0208 118.311 21.8456 118.311 21.6136V21.571C118.311 21.1212 118.169 20.7732 117.885 20.527C117.606 20.2808 117.208 20.1577 116.692 20.1577C116.147 20.1577 115.714 20.2784 115.392 20.5199C115.07 20.7566 114.857 21.0549 114.753 21.4148L111.955 21.1875C112.097 20.5246 112.376 19.9517 112.793 19.4688C113.209 18.9811 113.747 18.607 114.405 18.3466C115.068 18.0814 115.835 17.9489 116.706 17.9489C117.312 17.9489 117.892 18.0199 118.446 18.1619C119.005 18.304 119.5 18.5241 119.93 18.8224C120.366 19.1207 120.709 19.5043 120.96 19.973C121.211 20.437 121.337 20.9934 121.337 21.642V29H118.467V27.4872H118.382C118.207 27.8281 117.973 28.1288 117.679 28.3892C117.385 28.6449 117.033 28.8461 116.621 28.9929C116.209 29.1349 115.733 29.206 115.193 29.206ZM116.06 27.1179C116.505 27.1179 116.898 27.0303 117.239 26.8551C117.58 26.6752 117.847 26.4337 118.041 26.1307C118.235 25.8277 118.332 25.4844 118.332 25.1009V23.9432C118.238 24.0047 118.107 24.0616 117.942 24.1136C117.781 24.161 117.598 24.206 117.395 24.2486C117.191 24.2865 116.988 24.322 116.784 24.3551C116.58 24.3835 116.396 24.4096 116.23 24.4332C115.875 24.4853 115.565 24.5682 115.3 24.6818C115.035 24.7955 114.829 24.9493 114.682 25.1435C114.535 25.3329 114.462 25.5696 114.462 25.8537C114.462 26.2656 114.611 26.5805 114.909 26.7983C115.212 27.0114 115.596 27.1179 116.06 27.1179ZM127.71 14.4545V29H124.684V14.4545H127.71ZM136.936 18.0909V20.3636H130.366V18.0909H136.936ZM131.858 15.4773H134.883V25.6477C134.883 25.9271 134.926 26.1449 135.011 26.3011C135.096 26.4527 135.215 26.5592 135.366 26.6207C135.522 26.6823 135.702 26.7131 135.906 26.7131C136.048 26.7131 136.19 26.7012 136.332 26.6776C136.474 26.6491 136.583 26.6278 136.659 26.6136L137.135 28.8651C136.983 28.9124 136.77 28.9669 136.495 29.0284C136.221 29.0947 135.887 29.1349 135.494 29.1491C134.765 29.1776 134.126 29.0805 133.576 28.858C133.032 28.6354 132.608 28.2898 132.305 27.821C132.002 27.3523 131.853 26.7604 131.858 26.0455V15.4773ZM143.167 22.6932V29H140.141V14.4545H143.081V20.0156H143.209C143.455 19.3717 143.853 18.8674 144.402 18.5028C144.952 18.1335 145.641 17.9489 146.469 17.9489C147.227 17.9489 147.887 18.1146 148.451 18.446C149.019 18.7727 149.459 19.2438 149.772 19.8594C150.089 20.4702 150.245 21.2017 150.24 22.054V29H147.215V22.5938C147.22 21.9214 147.049 21.3982 146.703 21.0241C146.363 20.6501 145.884 20.4631 145.269 20.4631C144.857 20.4631 144.492 20.5507 144.175 20.7259C143.863 20.901 143.616 21.1567 143.436 21.4929C143.261 21.8243 143.171 22.2244 143.167 22.6932ZM158.753 16.9901V14.4545H170.699V16.9901H166.246V29H163.206V16.9901H158.753ZM176.999 29.2131C175.877 29.2131 174.911 28.9858 174.102 28.5312C173.297 28.072 172.676 27.4233 172.241 26.5852C171.805 25.7424 171.587 24.7457 171.587 23.5952C171.587 22.473 171.805 21.4882 172.241 20.6406C172.676 19.7931 173.29 19.1326 174.08 18.6591C174.876 18.1856 175.808 17.9489 176.879 17.9489C177.598 17.9489 178.268 18.0649 178.888 18.2969C179.513 18.5241 180.058 18.8674 180.522 19.3267C180.991 19.786 181.355 20.3636 181.616 21.0597C181.876 21.7509 182.006 22.5606 182.006 23.4886V24.3196H172.795V22.4446H179.158C179.158 22.009 179.064 21.6231 178.874 21.2869C178.685 20.9508 178.422 20.688 178.086 20.4986C177.754 20.3045 177.369 20.2074 176.928 20.2074C176.469 20.2074 176.062 20.3139 175.707 20.527C175.356 20.7353 175.082 21.017 174.883 21.3722C174.684 21.7225 174.582 22.1132 174.577 22.544V24.3267C174.577 24.8665 174.677 25.3329 174.876 25.7259C175.079 26.1188 175.366 26.4219 175.735 26.6349C176.104 26.848 176.542 26.9545 177.049 26.9545C177.385 26.9545 177.693 26.9072 177.972 26.8125C178.252 26.7178 178.491 26.5758 178.69 26.3864C178.888 26.197 179.04 25.965 179.144 25.6903L181.942 25.875C181.8 26.5473 181.509 27.1345 181.069 27.6364C180.633 28.1335 180.07 28.5218 179.379 28.8011C178.692 29.0758 177.899 29.2131 176.999 29.2131ZM189.91 29.2131C188.792 29.2131 187.831 28.9763 187.026 28.5028C186.226 28.0246 185.611 27.3617 185.18 26.5142C184.754 25.6667 184.54 24.6913 184.54 23.5881C184.54 22.4706 184.756 21.4905 185.187 20.6477C185.622 19.8002 186.24 19.1397 187.04 18.6662C187.841 18.188 188.792 17.9489 189.896 17.9489C190.847 17.9489 191.681 18.1217 192.396 18.4673C193.111 18.813 193.676 19.2983 194.093 19.9233C194.51 20.5483 194.739 21.2822 194.782 22.125H191.927C191.846 21.5805 191.633 21.1425 191.288 20.8111C190.947 20.4749 190.499 20.3068 189.945 20.3068C189.477 20.3068 189.067 20.4347 188.717 20.6903C188.371 20.9413 188.101 21.3082 187.907 21.7912C187.713 22.2741 187.616 22.8589 187.616 23.5455C187.616 24.2415 187.71 24.8333 187.9 25.321C188.094 25.8087 188.366 26.1804 188.717 26.4361C189.067 26.6918 189.477 26.8196 189.945 26.8196C190.291 26.8196 190.601 26.7486 190.876 26.6065C191.155 26.4645 191.385 26.2585 191.565 25.9886C191.749 25.714 191.87 25.3849 191.927 25.0014H194.782C194.735 25.8348 194.507 26.5687 194.1 27.2031C193.698 27.8329 193.141 28.3253 192.431 28.6804C191.721 29.0355 190.88 29.2131 189.91 29.2131ZM200.745 22.6932V29H197.719V14.4545H200.659V20.0156H200.787C201.033 19.3717 201.431 18.8674 201.98 18.5028C202.53 18.1335 203.219 17.9489 204.047 17.9489C204.805 17.9489 205.465 18.1146 206.029 18.446C206.597 18.7727 207.037 19.2438 207.35 19.8594C207.667 20.4702 207.823 21.2017 207.819 22.054V29H204.793V22.5938C204.798 21.9214 204.627 21.3982 204.282 21.0241C203.941 20.6501 203.462 20.4631 202.847 20.4631C202.435 20.4631 202.07 20.5507 201.753 20.7259C201.441 20.901 201.194 21.1567 201.015 21.4929C200.839 21.8243 200.749 22.2244 200.745 22.6932Z" fill="#302F2F"/>
<path d="M91.7123 43.176C91.5203 43.9013 91.1576 44.4133 90.6243 44.712C90.1016 45.0107 89.5203 45.16 88.8803 45.16C87.6963 45.16 86.8109 44.8027 86.2243 44.088C85.6376 43.3627 85.3443 42.3973 85.3443 41.192V40.872C85.3443 39.6773 85.6269 38.7227 86.1923 38.008C86.7576 37.2827 87.5789 36.92 88.6563 36.92C89.2323 36.92 89.7549 37.0373 90.2243 37.272C90.7043 37.5067 91.0829 37.8533 91.3603 38.312C91.6483 38.7707 91.7923 39.3413 91.7923 40.024C91.7923 40.344 91.7603 40.68 91.6963 41.032H86.7843V41.512C86.7843 42.632 86.9549 43.4373 87.2963 43.928C87.6483 44.408 88.2136 44.648 88.9923 44.648C89.4829 44.648 89.8883 44.52 90.2083 44.264C90.5389 44.008 90.7576 43.5653 90.8643 42.936L91.7123 43.176ZM88.6563 37.432C88.0269 37.432 87.5576 37.672 87.2483 38.152C86.9389 38.632 86.7843 39.4213 86.7843 40.52H90.3843V40.472C90.4056 40.3333 90.4216 40.2 90.4323 40.072C90.4429 39.9333 90.4483 39.8107 90.4483 39.704C90.4483 38.904 90.2829 38.328 89.9523 37.976C89.6216 37.6133 89.1896 37.432 88.6563 37.432ZM107.655 44.6V45H105.191V43.736C104.86 44.2267 104.492 44.5893 104.087 44.824C103.692 45.048 103.249 45.16 102.759 45.16C101.841 45.16 101.127 44.8187 100.615 44.136C100.113 43.4427 99.8625 42.4667 99.8625 41.208V40.888C99.8625 39.6827 100.156 38.7227 100.743 38.008C101.34 37.2827 102.156 36.92 103.191 36.92C103.948 36.92 104.588 37.1547 105.111 37.624V34.456C105.111 34.0827 105.095 33.864 105.063 33.8C105.031 33.736 104.929 33.6933 104.759 33.672L103.879 33.592V33.16H106.423V43.704C106.423 44.0773 106.439 44.296 106.471 44.36C106.503 44.424 106.604 44.4667 106.775 44.488L107.655 44.6ZM101.303 41.688C101.303 42.6907 101.447 43.4267 101.735 43.896C102.033 44.3653 102.444 44.6 102.967 44.6C103.308 44.6 103.66 44.4933 104.023 44.28C104.385 44.0667 104.748 43.6347 105.111 42.984V38.408C104.641 37.7787 104.028 37.464 103.271 37.464C102.588 37.464 102.087 37.7253 101.767 38.248C101.457 38.7707 101.303 39.4907 101.303 40.408V41.688ZM123.304 44.584V45H120.84V43.72C120.466 44.2213 120.04 44.5893 119.56 44.824C119.09 45.048 118.621 45.16 118.152 45.16C117.394 45.16 116.802 44.92 116.376 44.44C115.96 43.9493 115.752 43.2613 115.752 42.376V38.376C115.752 38.0027 115.736 37.784 115.704 37.72C115.672 37.656 115.57 37.6133 115.4 37.592L114.52 37.512V37.08H117.064V42.36C117.064 43.1493 117.181 43.7093 117.416 44.04C117.661 44.36 118.013 44.52 118.472 44.52C118.813 44.52 119.186 44.4133 119.592 44.2C120.008 43.9867 120.397 43.576 120.76 42.968V38.376C120.76 38.0027 120.744 37.784 120.712 37.72C120.68 37.6453 120.578 37.6027 120.408 37.592L119.208 37.512V37.08H122.072V43.704C122.072 44.0773 122.088 44.296 122.12 44.36C122.152 44.424 122.253 44.4667 122.424 44.488L123.304 44.584ZM134.146 37.432C133.559 37.432 133.101 37.6773 132.77 38.168C132.45 38.648 132.29 39.4427 132.29 40.552V41.512C132.29 42.632 132.45 43.4373 132.77 43.928C133.101 44.408 133.634 44.648 134.37 44.648C134.871 44.648 135.277 44.52 135.586 44.264C135.895 44.008 136.103 43.5653 136.21 42.936L137.058 43.176C136.866 43.9013 136.514 44.4133 136.002 44.712C135.49 45.0107 134.919 45.16 134.29 45.16C133.138 45.16 132.274 44.8027 131.698 44.088C131.133 43.3627 130.85 42.3973 130.85 41.192V40.872C130.85 39.6773 131.133 38.7227 131.698 38.008C132.263 37.2827 133.079 36.92 134.146 36.92C134.829 36.92 135.394 37.0533 135.842 37.32C136.301 37.5867 136.626 37.9493 136.818 38.408C137.01 38.856 137.063 39.352 136.978 39.896L135.714 40.088C135.831 39.2347 135.751 38.5787 135.474 38.12C135.207 37.6613 134.765 37.432 134.146 37.432ZM151.105 45.112C150.273 45.112 149.782 44.728 149.633 43.96C149.26 44.3867 148.849 44.696 148.401 44.888C147.953 45.0693 147.51 45.16 147.073 45.16C146.326 45.16 145.777 44.952 145.425 44.536C145.073 44.12 144.897 43.6187 144.897 43.032C144.897 42.4027 145.11 41.9067 145.537 41.544C145.974 41.1707 146.726 40.984 147.793 40.984H149.601V39.688C149.601 38.8347 149.452 38.248 149.153 37.928C148.865 37.5973 148.47 37.432 147.969 37.432C147.649 37.432 147.361 37.496 147.105 37.624C146.849 37.752 146.662 37.9867 146.545 38.328C146.438 38.6587 146.428 39.144 146.513 39.784L145.249 39.592C145.196 39.0907 145.26 38.6427 145.441 38.248C145.633 37.8427 145.942 37.5227 146.369 37.288C146.806 37.0427 147.35 36.92 148.001 36.92C148.78 36.92 149.377 37.0533 149.793 37.32C150.209 37.576 150.497 37.912 150.657 38.328C150.828 38.744 150.913 39.1973 150.913 39.688V43.288C150.913 43.832 150.972 44.1733 151.089 44.312C151.217 44.4507 151.356 44.52 151.505 44.52C151.601 44.52 151.702 44.4987 151.809 44.456C151.916 44.4027 152.033 44.3227 152.161 44.216L152.449 44.616C152.289 44.7547 152.097 44.872 151.873 44.968C151.66 45.064 151.404 45.112 151.105 45.112ZM147.521 44.488C147.82 44.488 148.14 44.408 148.481 44.248C148.833 44.0773 149.206 43.7413 149.601 43.24V41.496H147.969C147.372 41.496 146.934 41.6187 146.657 41.864C146.39 42.0987 146.257 42.4667 146.257 42.968C146.257 43.448 146.358 43.8213 146.561 44.088C146.774 44.3547 147.094 44.488 147.521 44.488ZM164.514 43.368C164.354 43.9867 164.103 44.44 163.762 44.728C163.42 45.016 162.983 45.16 162.45 45.16C161.938 45.16 161.522 45.048 161.202 44.824C160.882 44.5893 160.647 44.2853 160.498 43.912C160.348 43.5387 160.274 43.1493 160.274 42.744V38.376C160.274 38.0027 160.258 37.784 160.226 37.72C160.204 37.656 160.103 37.6133 159.922 37.592L159.042 37.512V37.08H160.274V34.984L161.586 34.712V37.08H164.194V37.592H161.586V42.872C161.586 43.544 161.676 44.008 161.858 44.264C162.05 44.52 162.3 44.648 162.61 44.648C162.919 44.648 163.154 44.5307 163.314 44.296C163.484 44.0613 163.607 43.6773 163.682 43.144L164.514 43.368ZM173.373 35.288C173.117 35.288 172.904 35.208 172.733 35.048C172.573 34.8773 172.493 34.6587 172.493 34.392C172.493 34.136 172.573 33.928 172.733 33.768C172.904 33.608 173.117 33.528 173.373 33.528C173.629 33.528 173.837 33.608 173.997 33.768C174.168 33.928 174.253 34.136 174.253 34.392C174.253 34.6587 174.168 34.8773 173.997 35.048C173.837 35.208 173.629 35.288 173.373 35.288ZM171.501 37.512V37.08H174.045V43.704C174.045 44.0773 174.061 44.296 174.093 44.36C174.125 44.424 174.227 44.4667 174.397 44.488L175.277 44.584V45H171.501V44.584L172.381 44.488C172.552 44.4667 172.653 44.424 172.685 44.36C172.717 44.296 172.733 44.0773 172.733 43.704V38.376C172.733 38.0027 172.717 37.784 172.685 37.72C172.653 37.656 172.552 37.6133 172.381 37.592L171.501 37.512ZM189.722 40.872V41.192C189.722 42.3973 189.418 43.3627 188.81 44.088C188.213 44.8027 187.36 45.16 186.25 45.16C185.152 45.16 184.298 44.8027 183.69 44.088C183.093 43.3627 182.794 42.3973 182.794 41.192V40.872C182.794 39.6773 183.093 38.7227 183.69 38.008C184.288 37.2827 185.141 36.92 186.25 36.92C187.36 36.92 188.213 37.2827 188.81 38.008C189.418 38.7227 189.722 39.6773 189.722 40.872ZM188.282 40.552C188.282 39.4427 188.106 38.648 187.754 38.168C187.413 37.6773 186.912 37.432 186.25 37.432C185.6 37.432 185.098 37.6773 184.746 38.168C184.405 38.648 184.234 39.4427 184.234 40.552V41.512C184.234 42.632 184.405 43.4373 184.746 43.928C185.098 44.408 185.6 44.648 186.25 44.648C186.912 44.648 187.413 44.408 187.754 43.928C188.106 43.4373 188.282 42.632 188.282 41.512V40.552ZM206.293 44.584V45H202.517V44.584L203.397 44.488C203.567 44.4667 203.669 44.424 203.701 44.36C203.733 44.296 203.749 44.0773 203.749 43.704V39.72C203.749 38.9307 203.621 38.376 203.365 38.056C203.109 37.7253 202.741 37.56 202.261 37.56C201.909 37.56 201.519 37.6667 201.093 37.88C200.666 38.0933 200.266 38.5093 199.893 39.128V43.704C199.893 44.0773 199.909 44.296 199.941 44.36C199.973 44.424 200.074 44.4667 200.245 44.488L201.125 44.584V45H197.349V44.584L198.229 44.488C198.399 44.4667 198.501 44.424 198.533 44.36C198.565 44.296 198.581 44.0773 198.581 43.704V38.376C198.581 38.0027 198.565 37.784 198.533 37.72C198.501 37.656 198.399 37.6133 198.229 37.592L197.349 37.512V37.08H199.813V38.376C200.197 37.864 200.629 37.496 201.109 37.272C201.599 37.0373 202.09 36.92 202.581 36.92C203.37 36.92 203.978 37.1653 204.405 37.656C204.842 38.136 205.061 38.8187 205.061 39.704V43.704C205.061 44.0773 205.077 44.296 205.109 44.36C205.141 44.424 205.242 44.4667 205.413 44.488L206.293 44.584Z" fill="#302F2F"/>
</svg>
